<svg width="17" height="24" viewBox="0 0 17 24" fill="none" xmlns="http://www.w3.org/2000/svg">
<path d="M14.3805 0.0610352H1.71664C0.794511 0.0610352 0.0463867 0.862785 0.0463867 1.85166V7.56129C0.0463867 7.83743 0.270244 8.06129 0.546387 8.06129H15.55C15.8262 8.06129 16.05 7.83743 16.05 7.56129V1.85166C16.0504 0.862785 15.3026 0.0610352 14.3805 0.0610352ZM4.02439 5.26604C4.02439 5.55516 3.76526 5.78916 3.44501 5.78916C3.12514 5.78916 2.86601 5.55516 2.86601 5.26604V2.91891C2.86601 2.62979 3.12514 2.39579 3.44501 2.39579C3.76526 2.39579 4.02439 2.62979 4.02439 2.91891V5.26604Z" fill="url(#paint0_linear_2_17624)"/>
<path d="M0.046875 22.3974C0.046875 23.249 0.795 23.939 1.71712 23.939H14.3814C15.3027 23.939 16.0505 23.249 16.0505 22.3974V9.72217C16.0505 9.44603 15.8266 9.22217 15.5505 9.22217H0.546875C0.270732 9.22217 0.046875 9.44603 0.046875 9.72217V22.3974ZM2.86612 12.7727C2.86612 12.3902 3.12525 12.08 3.44513 12.08C3.76538 12.08 4.0245 12.3902 4.0245 12.7727V15.8803C4.0245 16.2628 3.76538 16.5725 3.44513 16.5725C3.12525 16.5725 2.86612 16.2628 2.86612 15.8803V12.7727Z" fill="url(#paint1_linear_2_17624)"/>
<defs>
<linearGradient id="paint0_linear_2_17624" x1="8.0482" y1="0.0610352" x2="8.0482" y2="8.06129" gradientUnits="userSpaceOnUse">
<stop stop-color="#34D399"/>
<stop offset="1" stop-color="#10B981"/>
</linearGradient>
<linearGradient id="paint1_linear_2_17624" x1="8.04869" y1="9.22217" x2="8.04869" y2="23.939" gradientUnits="userSpaceOnUse">
<stop stop-color="#34D399"/>
<stop offset="1" stop-color="#10B981"/>
</linearGradient>
</defs>
</svg>
