<svg width="27" height="27" viewBox="0 0 27 27" fill="none" xmlns="http://www.w3.org/2000/svg">
<rect width="27" height="27" rx="6" fill="#6DC66A"/>
<path d="M14.124 6.62502C14.124 6.45926 14.1899 6.30029 14.3071 6.18308C14.4243 6.06587 14.5832 6.00002 14.749 6.00002C16.406 6.00184 17.9947 6.66091 19.1664 7.83261C20.3381 9.00432 20.9972 10.593 20.999 12.25C20.999 12.4158 20.9331 12.5748 20.8159 12.692C20.6987 12.8092 20.5398 12.875 20.374 12.875C20.2082 12.875 20.0493 12.8092 19.9321 12.692C19.8148 12.5748 19.749 12.4158 19.749 12.25C19.7475 10.9244 19.2202 9.65349 18.2829 8.71613C17.3455 7.77877 16.0746 7.25151 14.749 7.25002C14.5832 7.25002 14.4243 7.18417 14.3071 7.06696C14.1899 6.94975 14.124 6.79078 14.124 6.62502V6.62502ZM14.749 9.75002C15.412 9.75002 16.0479 10.0134 16.5168 10.4823C16.9856 10.9511 17.249 11.587 17.249 12.25C17.249 12.4158 17.3148 12.5748 17.4321 12.692C17.5493 12.8092 17.7082 12.875 17.874 12.875C18.0398 12.875 18.1987 12.8092 18.3159 12.692C18.4332 12.5748 18.499 12.4158 18.499 12.25C18.498 11.2558 18.1026 10.3025 17.3996 9.59947C16.6965 8.89642 15.7433 8.50101 14.749 8.50002C14.5832 8.50002 14.4243 8.56587 14.3071 8.68308C14.1899 8.80029 14.124 8.95926 14.124 9.12502C14.124 9.29078 14.1899 9.44975 14.3071 9.56696C14.4243 9.68417 14.5832 9.75002 14.749 9.75002V9.75002ZM20.4321 16.4619C20.7943 16.8251 20.9977 17.3171 20.9977 17.83C20.9977 18.343 20.7943 18.835 20.4321 19.1981L19.8634 19.8538C14.7446 24.7544 2.28839 12.3013 7.11339 7.16627L7.83214 6.54127C8.19574 6.18919 8.68334 5.99443 9.18945 5.99911C9.69556 6.00378 10.1795 6.20753 10.5365 6.56627C10.5559 6.58565 11.714 8.09002 11.714 8.09002C12.0577 8.45104 12.2489 8.9306 12.2481 9.42902C12.2473 9.92744 12.0545 10.4064 11.7096 10.7663L10.9859 11.6763C11.3864 12.6495 11.9753 13.5339 12.7187 14.2788C13.4621 15.0237 14.3454 15.6144 15.3178 16.0169L16.2334 15.2888C16.5933 14.9442 17.0722 14.7516 17.5704 14.7509C18.0687 14.7502 18.5481 14.9415 18.909 15.285C18.909 15.285 20.4127 16.4425 20.4321 16.4619ZM19.5721 17.3706C19.5721 17.3706 18.0765 16.22 18.0571 16.2006C17.9284 16.073 17.7544 16.0013 17.5731 16.0013C17.3917 16.0013 17.2178 16.073 17.089 16.2006C17.0721 16.2181 15.8115 17.2225 15.8115 17.2225C15.7266 17.2901 15.6254 17.3345 15.5182 17.3511C15.4109 17.3678 15.3011 17.3562 15.1996 17.3175C13.9399 16.8485 12.7957 16.1142 11.8445 15.1644C10.8933 14.2147 10.1574 13.0715 9.68651 11.8125C9.64476 11.7097 9.63115 11.5976 9.64707 11.4877C9.663 11.3779 9.70789 11.2743 9.77713 11.1875C9.77713 11.1875 10.7815 9.92627 10.7984 9.91002C10.9261 9.78126 10.9977 9.60728 10.9977 9.42596C10.9977 9.24464 10.9261 9.07066 10.7984 8.9419C10.779 8.92315 9.62839 7.42627 9.62839 7.42627C9.4977 7.30909 9.32714 7.24633 9.15167 7.25086C8.97619 7.2554 8.8091 7.32687 8.68464 7.45065L7.96589 8.07565C4.43964 12.3156 15.234 22.5113 18.9496 19L19.519 18.3438C19.6524 18.2202 19.7326 18.0496 19.7425 17.868C19.7524 17.6864 19.6913 17.508 19.5721 17.3706V17.3706Z" fill="white"/>
</svg>
