<svg width="27" height="27" viewBox="0 0 27 27" fill="none" xmlns="http://www.w3.org/2000/svg">
<rect width="27" height="27" rx="6" fill="#EB9B38"/>
<path d="M13.5 5C11.8189 5 10.1755 5.49852 8.77766 6.43251C7.37984 7.3665 6.29037 8.69402 5.64703 10.2472C5.00368 11.8004 4.83535 13.5094 5.16333 15.1583C5.4913 16.8071 6.30085 18.3217 7.4896 19.5104C8.67834 20.6992 10.1929 21.5087 11.8417 21.8367C13.4906 22.1646 15.1996 21.9963 16.7528 21.353C18.306 20.7096 19.6335 19.6202 20.5675 18.2223C21.5015 16.8245 22 15.1811 22 13.5C22 11.2457 21.1045 9.08365 19.5104 7.48959C17.9163 5.89553 15.7543 5 13.5 5V5ZM13.5 20.5829C12.0991 20.5829 10.7297 20.1675 9.56494 19.3892C8.40016 18.611 7.49232 17.5048 6.95623 16.2105C6.42014 14.9163 6.27988 13.4921 6.55317 12.1182C6.82647 10.7442 7.50105 9.48218 8.49162 8.49161C9.48218 7.50105 10.7442 6.82646 12.1182 6.55317C13.4921 6.27987 14.9163 6.42014 16.2105 6.95623C17.5048 7.49232 18.611 8.40015 19.3892 9.56493C20.1675 10.7297 20.5829 12.0991 20.5829 13.5C20.5829 15.3785 19.8367 17.1801 18.5084 18.5084C17.1801 19.8367 15.3785 20.5829 13.5 20.5829V20.5829ZM13.5 9.95793C12.9992 9.95694 12.5143 10.1332 12.1311 10.4556C11.7479 10.7779 11.4911 11.2255 11.4063 11.719C11.3215 12.2126 11.4141 12.7202 11.6678 13.1519C11.9214 13.5837 12.3197 13.9118 12.7921 14.078V16.3329C12.7921 16.5208 12.8667 16.7011 12.9996 16.8339C13.1325 16.9668 13.3127 17.0415 13.5006 17.0415C13.6885 17.0415 13.8687 16.9668 14.0016 16.8339C14.1345 16.7011 14.2091 16.5208 14.2091 16.3329V14.078C14.6816 13.9117 15.08 13.5836 15.3336 13.1517C15.5872 12.7198 15.6798 12.212 15.5948 11.7184C15.5099 11.2248 15.2529 10.7772 14.8694 10.455C14.486 10.1327 14.0009 9.95665 13.5 9.95793ZM13.5 12.7921C13.36 12.7921 13.2231 12.7506 13.1067 12.6728C12.9903 12.595 12.8995 12.4844 12.846 12.3551C12.7924 12.2257 12.7784 12.0834 12.8057 11.946C12.833 11.8087 12.9004 11.6826 12.9994 11.5836C13.0984 11.4846 13.2246 11.4171 13.3619 11.3898C13.4992 11.3625 13.6416 11.3765 13.7709 11.4301C13.9003 11.4837 14.0108 11.5744 14.0886 11.6908C14.1664 11.8073 14.2079 11.9441 14.2079 12.0841C14.2079 12.2719 14.1333 12.452 14.0006 12.5847C13.8678 12.7175 13.6878 12.7921 13.5 12.7921Z" fill="white"/>
</svg>
