<svg width="48" height="48" viewBox="0 0 48 48" fill="none" xmlns="http://www.w3.org/2000/svg">
<path d="M24 48C10.7452 48 0 37.2548 0 24C0 10.7452 10.7452 0 24 0C37.2548 0 48 10.7452 48 24C48 37.2548 37.2548 48 24 48Z" fill="#6765C8"/>
<path d="M24 47C11.2975 47 1 36.7025 1 24C1 11.2975 11.2975 1 24 1C36.7025 1 47 11.2975 47 24C47 36.7025 36.7025 47 24 47Z" stroke="white" stroke-width="2"/>
<g clip-path="url(#clip0_2_18932)">
<path d="M25.6667 19.8333V14.3833C26.4376 14.6744 27.1378 15.1261 27.7209 15.7083L30.6242 18.6133C31.2071 19.1957 31.6591 19.8957 31.9501 20.6667H26.5001C26.2791 20.6667 26.0671 20.5789 25.9108 20.4226C25.7545 20.2663 25.6667 20.0543 25.6667 19.8333ZM32.3334 22.7375V29.8333C32.3321 30.938 31.8927 31.997 31.1116 32.7782C30.3305 33.5593 29.2714 33.9987 28.1667 34H19.8334C18.7288 33.9987 17.6697 33.5593 16.8886 32.7782C16.1075 31.997 15.6681 30.938 15.6667 29.8333V18.1667C15.6681 17.062 16.1075 16.003 16.8886 15.2218C17.6697 14.4407 18.7288 14.0013 19.8334 14H23.5959C23.7317 14 23.8659 14.0108 24.0001 14.02V19.8333C24.0001 20.4964 24.2635 21.1323 24.7323 21.6011C25.2012 22.0699 25.837 22.3333 26.5001 22.3333H32.3134C32.3226 22.4675 32.3334 22.6017 32.3334 22.7375ZM25.6667 29.8333C25.6667 29.6123 25.5789 29.4004 25.4227 29.2441C25.2664 29.0878 25.0544 29 24.8334 29H20.6667C20.4457 29 20.2338 29.0878 20.0775 29.2441C19.9212 29.4004 19.8334 29.6123 19.8334 29.8333C19.8334 30.0543 19.9212 30.2663 20.0775 30.4226C20.2338 30.5789 20.4457 30.6667 20.6667 30.6667H24.8334C25.0544 30.6667 25.2664 30.5789 25.4227 30.4226C25.5789 30.2663 25.6667 30.0543 25.6667 29.8333ZM28.1667 26.5C28.1667 26.279 28.079 26.067 27.9227 25.9107C27.7664 25.7545 27.5544 25.6667 27.3334 25.6667H20.6667C20.4457 25.6667 20.2338 25.7545 20.0775 25.9107C19.9212 26.067 19.8334 26.279 19.8334 26.5C19.8334 26.721 19.9212 26.933 20.0775 27.0893C20.2338 27.2455 20.4457 27.3333 20.6667 27.3333H27.3334C27.5544 27.3333 27.7664 27.2455 27.9227 27.0893C28.079 26.933 28.1667 26.721 28.1667 26.5Z" fill="white"/>
</g>
<defs>
<clipPath id="clip0_2_18932">
<rect width="20" height="20" fill="white" transform="translate(14 14)"/>
</clipPath>
</defs>
</svg>
