<svg width="48" height="20" viewBox="0 0 48 20" fill="none" xmlns="http://www.w3.org/2000/svg">
<path d="M9.03197 2.57894C9.59457 1.8847 9.97635 0.952549 9.87566 0C9.05208 0.040401 8.04707 0.536034 7.46521 1.23081C6.94276 1.82578 6.48036 2.79697 6.60091 3.70958C7.52542 3.7887 8.44907 3.25369 9.03197 2.57894Z" fill="#3A3A3C"/>
<path d="M9.86467 3.88712C8.52206 3.80822 7.38052 4.63887 6.73935 4.63887C6.09783 4.63887 5.116 3.92688 4.05406 3.94607C2.67189 3.9661 1.38939 4.73708 0.687997 5.96329C-0.754652 8.41633 0.307282 12.055 1.71018 14.0529C2.39146 15.0413 3.21252 16.1296 4.29439 16.0905C5.31658 16.051 5.71723 15.4376 6.95974 15.4376C8.20134 15.4376 8.56224 16.0905 9.64429 16.0708C10.7664 16.051 11.4679 15.0819 12.1492 14.0925C12.9307 12.9658 13.2507 11.8778 13.2708 11.8181C13.2507 11.7983 11.1071 10.987 11.0872 8.55436C11.067 6.51747 12.7702 5.54861 12.8503 5.48852C11.8885 4.08512 10.3857 3.92688 9.86467 3.88712Z" fill="#3A3A3C"/>
<path d="M21.5554 1.13184C24.4735 1.13184 26.5055 3.11628 26.5055 6.00548C26.5055 8.905 24.4317 10.8998 21.4822 10.8998H18.2512V15.9687H15.9169V1.13184H21.5554V1.13184ZM18.2512 8.96668H20.9298C22.9622 8.96668 24.1189 7.88719 24.1189 6.01579C24.1189 4.1446 22.9622 3.07523 20.9402 3.07523H18.2512V8.96668Z" fill="#3A3A3C"/>
<path d="M27.116 12.8943C27.116 11.0023 28.5856 9.8405 31.1913 9.69652L34.1927 9.52179V8.68902C34.1927 7.48598 33.3693 6.76626 31.9938 6.76626C30.6907 6.76626 29.8778 7.38305 29.68 8.34969H27.5539C27.6789 6.39599 29.3672 4.95654 32.077 4.95654C34.7346 4.95654 36.4333 6.34462 36.4333 8.5141V15.9685H34.2759V14.1898H34.224C33.5884 15.3928 32.2021 16.1536 30.7639 16.1536C28.6169 16.1536 27.116 14.8375 27.116 12.8943ZM34.1927 11.9176V11.0642L31.4932 11.2286C30.1488 11.3212 29.3881 11.9072 29.3881 12.8326C29.3881 13.7784 30.1801 14.3954 31.3891 14.3954C32.9628 14.3954 34.1927 13.3261 34.1927 11.9176Z" fill="#3A3A3C"/>
<path d="M38.4696 19.9487V18.1493C38.6361 18.1903 39.0112 18.1903 39.1989 18.1903C40.2411 18.1903 40.804 17.7586 41.1477 16.6482C41.1477 16.6275 41.3459 15.9901 41.3459 15.9798L37.3857 5.15283H39.8241L42.5967 13.9543H42.6381L45.4107 5.15283H47.7869L43.6803 16.5349C42.7427 19.157 41.6587 20.0001 39.3867 20.0001C39.1989 20.0001 38.6361 19.9794 38.4696 19.9487Z" fill="#3A3A3C"/>
</svg>
