<svg width="27" height="27" viewBox="0 0 27 27" fill="none" xmlns="http://www.w3.org/2000/svg">
<rect width="27" height="27" rx="6" fill="#3979F4"/>
<path d="M18.3549 10.967V9.95793C18.3912 8.68086 17.9193 7.44157 17.0428 6.51205C16.1663 5.58253 14.9569 5.03873 13.6799 5C12.4029 5.03873 11.1934 5.58253 10.317 6.51205C9.44047 7.44157 8.9686 8.68086 9.00489 9.95793V10.967C8.39783 11.2614 7.88709 11.7225 7.53231 12.2964C7.17753 12.8703 6.99336 13.5333 7.00132 14.2079V18.4579C6.97613 19.37 7.31341 20.2549 7.93929 20.9187C8.56518 21.5826 9.42865 21.9714 10.3406 22H17.0192C17.9311 21.9714 18.7946 21.5826 19.4205 20.9187C20.0464 20.2549 20.3836 19.37 20.3585 18.4579V14.2079C20.3664 13.5333 20.1822 12.8703 19.8275 12.2964C19.4727 11.7225 18.9619 11.2614 18.3549 10.967V10.967ZM10.3406 9.95793C10.3148 9.04581 10.6519 8.16071 11.2779 7.49687C11.904 6.83303 12.7678 6.44469 13.6799 6.41707C14.5922 6.44469 15.4562 6.8332 16.0823 7.4973C16.7084 8.1614 17.0453 9.04682 17.0192 9.95914V10.6671H10.3406V9.95793ZM19.0227 18.4579C19.0308 18.729 18.9854 18.9991 18.8891 19.2527C18.7928 19.5062 18.6474 19.7383 18.4613 19.9356C18.2753 20.133 18.0521 20.2917 17.8047 20.4028C17.5572 20.5139 17.2903 20.5751 17.0192 20.5829H10.3406C10.0695 20.5751 9.80256 20.5139 9.55511 20.4028C9.30766 20.2917 9.08452 20.133 8.89844 19.9356C8.71237 19.7383 8.56702 19.5062 8.47069 19.2527C8.37436 18.9991 8.32894 18.729 8.33703 18.4579V14.2079C8.32894 13.9368 8.37436 13.6668 8.47069 13.4132C8.56702 13.1597 8.71237 12.9276 8.89844 12.7302C9.08452 12.5329 9.30766 12.3741 9.55511 12.2631C9.80256 12.152 10.0695 12.0908 10.3406 12.0829H17.0192C17.2903 12.0908 17.5572 12.152 17.8047 12.2631C18.0521 12.3741 18.2753 12.5329 18.4613 12.7302C18.6474 12.9276 18.7928 13.1597 18.8891 13.4132C18.9854 13.6668 19.0308 13.9368 19.0227 14.2079V18.4579Z" fill="white"/>
<path d="M13.6796 14.9033C13.4905 14.9033 13.3092 14.9784 13.1756 15.1121C13.0419 15.2458 12.9668 15.4271 12.9668 15.6161V17.0417C12.9668 17.1353 12.9852 17.228 13.0211 17.3144C13.0569 17.4009 13.1094 17.4795 13.1756 17.5457C13.2418 17.6119 13.3203 17.6644 13.4068 17.7002C13.4933 17.736 13.586 17.7545 13.6796 17.7545C13.7732 17.7545 13.8659 17.736 13.9524 17.7002C14.0388 17.6644 14.1174 17.6119 14.1836 17.5457C14.2498 17.4795 14.3023 17.4009 14.3381 17.3144C14.3739 17.228 14.3924 17.1353 14.3924 17.0417V15.6161C14.3924 15.4271 14.3173 15.2458 14.1836 15.1121C14.0499 14.9784 13.8686 14.9033 13.6796 14.9033V14.9033Z" fill="white"/>
</svg>
