<svg width="12" height="24" viewBox="0 0 12 24" fill="none" xmlns="http://www.w3.org/2000/svg">
<path fill-rule="evenodd" clip-rule="evenodd" d="M6.39797 0.341354C5.82183 0.550101 4.8465 1.12335 4.23021 1.61503C3.3387 2.32638 3.10972 2.73616 3.10972 3.61964C3.10972 4.23015 2.96521 4.72985 2.78857 4.72985C2.61194 4.72985 2.17839 5.01889 1.82513 5.37215C1.25798 5.9393 1.18283 6.44254 1.18283 9.6733C1.18283 12.6295 1.09034 13.3678 0.701106 13.5171C0.304487 13.669 0.219383 14.4989 0.219383 18.2082C0.219383 24.2262 -0.00766923 23.9988 6.00006 23.9988C12.0078 23.9988 11.7807 24.2262 11.7807 18.2082C11.7807 14.4989 11.6956 13.669 11.299 13.5171C10.9098 13.3678 10.8173 12.6295 10.8173 9.6733C10.8173 6.44254 10.7421 5.9393 10.175 5.37215C9.82174 5.01889 9.38818 4.72985 9.21155 4.72985C9.03139 4.72985 8.8904 3.84123 8.8904 2.70662C8.8904 -0.0321417 8.48608 -0.415915 6.39797 0.341354ZM8.8904 10.0288V13.4009H6.00006H3.10972V10.0288V6.65675H6.00006H8.8904V10.0288Z" fill="url(#paint0_linear_2_17618)"/>
<defs>
<linearGradient id="paint0_linear_2_17618" x1="6.00006" y1="0" x2="6.00006" y2="23.9999" gradientUnits="userSpaceOnUse">
<stop stop-color="#22D3EE"/>
<stop offset="1" stop-color="#06B6D4"/>
</linearGradient>
</defs>
</svg>
