<svg width="71" height="22" viewBox="0 0 71 22" fill="none" xmlns="http://www.w3.org/2000/svg">
<path d="M6.55741 16.266C5.63341 16.266 4.84007 16.1027 4.17741 15.776C3.51474 15.4493 2.97341 15.0247 2.55341 14.502C2.14274 13.9793 1.83941 13.41 1.64341 12.794C1.44741 12.178 1.34941 11.5853 1.34941 11.016V10.708C1.34941 10.0733 1.44741 9.448 1.64341 8.832C1.84874 8.216 2.16141 7.656 2.58141 7.152C3.00141 6.648 3.53341 6.24667 4.17741 5.948C4.83074 5.64 5.60074 5.486 6.48741 5.486C7.41141 5.486 8.21407 5.654 8.89541 5.99C9.58607 6.31667 10.1367 6.78333 10.5474 7.39C10.9581 7.98733 11.2054 8.68733 11.2894 9.49H9.28741C9.21274 9.02333 9.04474 8.63133 8.78341 8.314C8.53141 7.98733 8.20941 7.74467 7.81741 7.586C7.42541 7.418 6.98207 7.334 6.48741 7.334C5.98341 7.334 5.53541 7.42267 5.14341 7.6C4.75141 7.768 4.42474 8.01067 4.16341 8.328C3.90207 8.64533 3.70141 9.01867 3.56141 9.448C3.43074 9.87733 3.36541 10.3533 3.36541 10.876C3.36541 11.38 3.43074 11.8467 3.56141 12.276C3.70141 12.7053 3.90674 13.0833 4.17741 13.41C4.44807 13.7273 4.77941 13.9747 5.17141 14.152C5.57274 14.3293 6.03474 14.418 6.55741 14.418C7.32274 14.418 7.96674 14.2313 8.48941 13.858C9.02141 13.4753 9.34341 12.9433 9.45541 12.262H11.4574C11.3641 12.99 11.1167 13.6573 10.7154 14.264C10.3141 14.8707 9.76341 15.356 9.06341 15.72C8.36341 16.084 7.52807 16.266 6.55741 16.266ZM12.481 16V5.78H14.427V11.744H14.091C14.091 10.9787 14.189 10.33 14.385 9.798C14.581 9.266 14.8703 8.86 15.253 8.58C15.645 8.3 16.1397 8.16 16.737 8.16H16.821C17.689 8.16 18.347 8.45867 18.795 9.056C19.243 9.65333 19.467 10.5213 19.467 11.66V16H17.521V11.478C17.521 10.9927 17.381 10.61 17.101 10.33C16.8303 10.05 16.471 9.91 16.023 9.91C15.547 9.91 15.1597 10.0687 14.861 10.386C14.5717 10.694 14.427 11.1 14.427 11.604V16H12.481ZM25.6651 16V13.746H25.3431V11.24C25.3431 10.8013 25.2358 10.4747 25.0211 10.26C24.8065 10.0453 24.4751 9.938 24.0271 9.938C23.7938 9.938 23.5138 9.94267 23.1871 9.952C22.8605 9.96133 22.5291 9.97533 22.1931 9.994C21.8665 10.0033 21.5725 10.0173 21.3111 10.036V8.384C21.5258 8.36533 21.7685 8.34667 22.0391 8.328C22.3098 8.30933 22.5851 8.3 22.8651 8.3C23.1545 8.29067 23.4251 8.286 23.6771 8.286C24.4611 8.286 25.1098 8.38867 25.6231 8.594C26.1458 8.79933 26.5378 9.12133 26.7991 9.56C27.0698 9.99867 27.2051 10.5727 27.2051 11.282V16H25.6651ZM23.2151 16.196C22.6645 16.196 22.1791 16.098 21.7591 15.902C21.3485 15.706 21.0265 15.426 20.7931 15.062C20.5691 14.698 20.4571 14.2593 20.4571 13.746C20.4571 13.186 20.5925 12.7287 20.8631 12.374C21.1431 12.0193 21.5305 11.7533 22.0251 11.576C22.5291 11.3987 23.1171 11.31 23.7891 11.31H25.5531V12.472H23.7611C23.3131 12.472 22.9678 12.584 22.7251 12.808C22.4918 13.0227 22.3751 13.3027 22.3751 13.648C22.3751 13.9933 22.4918 14.2733 22.7251 14.488C22.9678 14.7027 23.3131 14.81 23.7611 14.81C24.0318 14.81 24.2791 14.7633 24.5031 14.67C24.7365 14.5673 24.9278 14.3993 25.0771 14.166C25.2358 13.9233 25.3245 13.5967 25.3431 13.186L25.8191 13.732C25.7725 14.264 25.6418 14.712 25.4271 15.076C25.2218 15.44 24.9325 15.72 24.5591 15.916C24.1951 16.1027 23.7471 16.196 23.2151 16.196ZM28.7896 16V8.398H30.3296V11.66H30.1896C30.1896 10.8853 30.2923 10.2413 30.4976 9.728C30.7029 9.20533 31.0063 8.81333 31.4076 8.552C31.8183 8.29067 32.3269 8.16 32.9336 8.16H33.0176C33.9229 8.16 34.6089 8.454 35.0756 9.042C35.5423 9.62067 35.7756 10.4887 35.7756 11.646V16H33.8296V11.478C33.8296 11.0113 33.6943 10.6333 33.4236 10.344C33.1623 10.0547 32.7983 9.91 32.3316 9.91C31.8556 9.91 31.4683 10.0593 31.1696 10.358C30.8803 10.6473 30.7356 11.0393 30.7356 11.534V16H28.7896ZM40.3357 18.996C39.9717 18.996 39.5984 18.982 39.2157 18.954C38.8424 18.926 38.4924 18.8887 38.1657 18.842V17.218C38.5017 17.2553 38.8611 17.288 39.2437 17.316C39.6264 17.3533 39.9857 17.372 40.3217 17.372C40.9471 17.372 41.4511 17.2973 41.8337 17.148C42.2257 16.9987 42.5104 16.7607 42.6877 16.434C42.8744 16.1167 42.9677 15.7107 42.9677 15.216V13.718L43.3877 12.766C43.3597 13.466 43.2151 14.0633 42.9537 14.558C42.6924 15.0433 42.3377 15.4167 41.8897 15.678C41.4417 15.93 40.9237 16.056 40.3357 16.056C39.8131 16.056 39.3371 15.958 38.9077 15.762C38.4877 15.566 38.1237 15.2953 37.8157 14.95C37.5171 14.6047 37.2837 14.1987 37.1157 13.732C36.9477 13.2653 36.8637 12.766 36.8637 12.234V11.94C36.8637 11.408 36.9477 10.9133 37.1157 10.456C37.2931 9.98933 37.5404 9.58333 37.8577 9.238C38.1751 8.89267 38.5531 8.62667 38.9917 8.44C39.4304 8.25333 39.9157 8.16 40.4477 8.16C41.0731 8.16 41.6144 8.29533 42.0717 8.566C42.5384 8.83667 42.9024 9.22867 43.1637 9.742C43.4251 10.2553 43.5697 10.8853 43.5977 11.632L43.2617 11.688V8.398H44.8017V15.104C44.8017 16.028 44.6431 16.7747 44.3257 17.344C44.0084 17.9133 43.5184 18.3287 42.8557 18.59C42.2024 18.8607 41.3624 18.996 40.3357 18.996ZM40.8957 14.39C41.2691 14.39 41.6097 14.306 41.9177 14.138C42.2257 13.97 42.4731 13.7273 42.6597 13.41C42.8464 13.0927 42.9397 12.71 42.9397 12.262V11.772C42.9397 11.3427 42.8417 10.9787 42.6457 10.68C42.4591 10.3813 42.2117 10.1573 41.9037 10.008C41.5957 9.84933 41.2597 9.77 40.8957 9.77C40.4851 9.77 40.1211 9.868 39.8037 10.064C39.4957 10.2507 39.2531 10.5167 39.0757 10.862C38.8984 11.2073 38.8097 11.618 38.8097 12.094C38.8097 12.5607 38.8984 12.9667 39.0757 13.312C39.2531 13.6573 39.4957 13.9233 39.8037 14.11C40.1211 14.2967 40.4851 14.39 40.8957 14.39ZM49.8264 16.266C49.173 16.266 48.599 16.154 48.1044 15.93C47.619 15.706 47.213 15.4073 46.8864 15.034C46.569 14.6513 46.3264 14.2267 46.1584 13.76C45.9997 13.2933 45.9204 12.8173 45.9204 12.332V12.066C45.9204 11.562 45.9997 11.0767 46.1584 10.61C46.3264 10.134 46.569 9.714 46.8864 9.35C47.213 8.97667 47.6144 8.68267 48.0904 8.468C48.5664 8.244 49.117 8.132 49.7424 8.132C50.5637 8.132 51.2497 8.314 51.8004 8.678C52.3604 9.03267 52.7804 9.504 53.0604 10.092C53.3404 10.6707 53.4804 11.296 53.4804 11.968V12.668H46.7464V11.478H52.2624L51.6604 12.066C51.6604 11.5807 51.5904 11.1653 51.4504 10.82C51.3104 10.4747 51.0957 10.2087 50.8064 10.022C50.5264 9.83533 50.1717 9.742 49.7424 9.742C49.313 9.742 48.949 9.84 48.6504 10.036C48.3517 10.232 48.123 10.5167 47.9644 10.89C47.815 11.254 47.7404 11.6927 47.7404 12.206C47.7404 12.682 47.815 13.1067 47.9644 13.48C48.1137 13.844 48.3424 14.1333 48.6504 14.348C48.9584 14.5533 49.3504 14.656 49.8264 14.656C50.3024 14.656 50.6897 14.5627 50.9884 14.376C51.287 14.18 51.4784 13.942 51.5624 13.662H53.3544C53.2424 14.1847 53.0277 14.642 52.7104 15.034C52.393 15.426 51.987 15.7293 51.4924 15.944C51.007 16.1587 50.4517 16.266 49.8264 16.266Z" fill="#6765C8"/>
<path d="M59.6666 14.3332L66.3333 7.6665" stroke="#6765C8" stroke-width="2" stroke-linecap="round" stroke-linejoin="round"/>
<path d="M59.6666 7.6665H66.3333V14.3332" stroke="#6765C8" stroke-width="2" stroke-linecap="round" stroke-linejoin="round"/>
</svg>
