<svg width="27" height="27" viewBox="0 0 27 27" fill="none" xmlns="http://www.w3.org/2000/svg">
<rect width="27" height="27" rx="6" fill="#EB435A"/>
<path fill-rule="evenodd" clip-rule="evenodd" d="M12.6925 5.02034C10.04 5.2924 7.70124 6.74407 6.28502 8.99731C4.6672 11.5714 4.56958 14.9073 6.03418 17.5709C6.42378 18.2794 6.87779 18.8844 7.46473 19.4773C8.16782 20.1874 8.86602 20.6891 9.76639 21.1311C10.6307 21.5554 11.4585 21.807 12.4597 21.9495C12.8547 22.0057 14.161 22.0048 14.5711 21.948C16.6406 21.6615 18.3883 20.7498 19.7983 19.2213C21.1505 17.7554 21.9871 15.6855 21.9996 13.7748C22.003 13.2597 21.9877 13.2105 21.7738 13.0508C21.645 12.9547 21.3296 12.9547 21.2009 13.0508C20.9987 13.2018 20.9781 13.2608 20.9493 13.7716C20.8344 15.8085 20.0666 17.5129 18.6529 18.8691C17.5379 19.9388 16.2425 20.5842 14.6709 20.8534C14.1067 20.9501 12.9717 20.957 12.4265 20.8671C10.8075 20.6003 9.49044 19.9515 8.35047 18.8591C5.2983 15.9343 5.2983 11.0609 8.35047 8.13615C9.38254 7.1472 10.6461 6.48049 12.0122 6.20401C14.4309 5.71455 16.9153 6.43759 18.6718 8.14213L18.9652 8.42686L18.2335 8.44349C17.5577 8.45885 17.4947 8.46543 17.4081 8.52967C17.0818 8.77177 17.0818 9.1794 17.4082 9.42133C17.4993 9.48889 17.541 9.49112 18.8546 9.49924C20.2042 9.50758 20.2075 9.50745 20.3402 9.4326C20.4274 9.38342 20.4989 9.30661 20.548 9.20939C20.6218 9.06325 20.6228 9.04327 20.6221 7.77973C20.6212 6.34639 20.616 6.31021 20.3856 6.14588C20.2358 6.03902 19.9401 6.03326 19.8043 6.13461C19.5901 6.29458 19.5769 6.33781 19.5588 6.93802L19.5422 7.48955L19.2622 7.23239C17.9837 6.05803 16.4338 5.32382 14.6875 5.06526C14.2809 5.00505 13.1007 4.97848 12.6925 5.02034ZM8.85572 10.8901C8.29368 11.0412 7.85284 11.4884 7.70457 12.0576C7.63218 12.3355 7.63218 14.6597 7.70457 14.9376C7.85845 15.5285 8.34714 16.0024 8.92661 16.1227C9.04618 16.1475 9.83219 16.1562 11.4018 16.15C13.6658 16.1412 13.7032 16.14 13.7936 16.0725C13.9681 15.9422 14.0225 15.836 14.0225 15.6257C14.0225 15.4154 13.9681 15.3092 13.7936 15.1789C13.7035 15.1115 13.66 15.11 11.3791 15.0937C9.09815 15.0773 9.05466 15.0758 8.96451 15.0085C8.91404 14.9708 8.84188 14.8986 8.80418 14.8481C8.73774 14.7592 8.73561 14.717 8.73561 13.4976C8.73561 12.2782 8.73774 12.2361 8.80418 12.1471C8.84188 12.0966 8.91404 12.0245 8.96455 11.9868C9.05622 11.9183 9.06377 11.9182 13.5071 11.9182C17.9505 11.9182 17.958 11.9183 18.0497 11.9868C18.1002 12.0245 18.1723 12.0966 18.2101 12.1471C18.2768 12.2364 18.279 12.2862 18.2952 14.0296C18.3114 15.773 18.3137 15.8228 18.3804 15.9122C18.5107 16.0866 18.617 16.1411 18.8273 16.1411C19.0375 16.1411 19.1438 16.0866 19.2741 15.9122C19.341 15.8225 19.3428 15.7788 19.3518 14.0533C19.358 12.8629 19.3491 12.2287 19.3244 12.1101C19.204 11.5297 18.7305 11.0411 18.1392 10.8872C17.8576 10.8138 9.12907 10.8166 8.85572 10.8901ZM10.0656 12.4625C9.75964 12.5429 9.49097 12.7631 9.35056 13.0487C9.2383 13.277 9.23541 13.7059 9.3446 13.9309C9.45865 14.1659 9.59385 14.3073 9.82209 14.4304C10.0148 14.5343 10.056 14.5437 10.315 14.5431C10.5552 14.5424 10.6232 14.5291 10.7675 14.4541C11.0181 14.3239 11.1224 14.2231 11.2482 13.9898C11.3514 13.7984 11.3612 13.7557 11.3612 13.4976C11.3612 13.2393 11.3514 13.1969 11.2478 13.0047C11.0609 12.6582 10.7719 12.4721 10.3853 12.4492C10.2644 12.4421 10.1205 12.448 10.0656 12.4625ZM13.2577 12.4625C12.9517 12.5429 12.6831 12.7631 12.5426 13.0487C12.4304 13.277 12.4275 13.7059 12.5367 13.9309C12.6507 14.1659 12.7859 14.3073 13.0142 14.4304C13.2069 14.5343 13.2481 14.5437 13.5071 14.5431C13.7473 14.5424 13.8153 14.5291 13.9596 14.4541C14.2101 14.3239 14.3145 14.2231 14.4403 13.9898C14.5435 13.7984 14.5533 13.7557 14.5533 13.4976C14.5533 13.2393 14.5435 13.1969 14.4399 13.0047C14.253 12.6582 13.964 12.4721 13.5774 12.4492C13.4564 12.4421 13.3126 12.448 13.2577 12.4625ZM16.4498 12.4625C16.1438 12.5429 15.8751 12.7631 15.7347 13.0487C15.6225 13.277 15.6196 13.7059 15.7288 13.9309C15.8428 14.1659 15.978 14.3073 16.2063 14.4304C16.399 14.5343 16.4402 14.5437 16.6992 14.5431C16.9394 14.5424 17.0073 14.5291 17.1516 14.4541C17.4022 14.3239 17.5066 14.2231 17.6324 13.9898C17.7356 13.7984 17.7454 13.7557 17.7454 13.4976C17.7454 13.2393 17.7356 13.1969 17.632 13.0047C17.4451 12.6582 17.1561 12.4721 16.7695 12.4492C16.6485 12.4421 16.5047 12.448 16.4498 12.4625ZM17.025 15.6669C16.9756 15.69 16.6111 16.0006 16.2149 16.3572C15.8188 16.7138 15.4827 17.0101 15.4682 17.0157C15.4536 17.0212 15.3169 16.9116 15.1644 16.772C14.8396 16.4749 14.7146 16.4101 14.5102 16.4332C14.2694 16.4603 14.0813 16.6427 14.0495 16.8799C14.0149 17.1378 14.0706 17.2186 14.6319 17.7254C15.2765 18.3073 15.3877 18.3607 15.6748 18.2267C15.7423 18.1952 16.2237 17.784 16.7446 17.3131C17.7614 16.3936 17.79 16.3587 17.7529 16.0819C17.7199 15.836 17.5272 15.6567 17.2752 15.6373C17.187 15.6306 17.0744 15.6439 17.025 15.6669Z" fill="white"/>
</svg>
