<svg width="17" height="16" viewBox="0 0 17 16" fill="none" xmlns="http://www.w3.org/2000/svg">
<path d="M13.5443 0H2.87392C2.16688 0 1.4888 0.280871 0.988842 0.780825C0.488888 1.28078 0.208016 1.95886 0.208016 2.6659V10.6636C0.20713 11.0143 0.275432 11.3617 0.40901 11.6859C0.542587 12.0101 0.738816 12.3048 0.986456 12.5531C1.2341 12.8013 1.52828 12.9983 1.85216 13.1327C2.17605 13.2671 2.52326 13.3363 2.87392 13.3363H4.807L7.77062 15.8446C7.89154 15.945 8.0438 16 8.20101 16C8.35822 16 8.51048 15.945 8.63141 15.8446L11.6045 13.3363H13.5443C14.2513 13.3363 14.9294 13.0554 15.4294 12.5554C15.9293 12.0555 16.2102 11.3774 16.2102 10.6704V2.6659C16.2102 1.95886 15.9293 1.28078 15.4294 0.780825C14.9294 0.280871 14.2513 0 13.5443 0V0ZM14.8779 10.6636C14.8779 11.0173 14.7374 11.3565 14.4873 11.6066C14.2372 11.8567 13.898 11.9972 13.5443 11.9972H11.6045C11.2893 11.9973 10.9843 12.109 10.7437 12.3125L8.20573 14.4557L5.6678 12.3125C5.42677 12.1087 5.12128 11.997 4.80566 11.9972H2.87392C2.52022 11.9972 2.18101 11.8567 1.9309 11.6066C1.6808 11.3565 1.54029 11.0173 1.54029 10.6636V2.6659C1.54029 2.3122 1.6808 1.97299 1.9309 1.72289C2.18101 1.47279 2.52022 1.33228 2.87392 1.33228H13.5443C13.898 1.33228 14.2372 1.47279 14.4873 1.72289C14.7374 1.97299 14.8779 2.3122 14.8779 2.6659V10.6636Z" fill="#838383"/>
<path d="M4.87384 4.66663H8.20656C8.38341 4.66663 8.55302 4.59638 8.67807 4.47133C8.80312 4.34628 8.87337 4.17667 8.87337 3.99982C8.87337 3.82297 8.80312 3.65336 8.67807 3.52831C8.55302 3.40326 8.38341 3.33301 8.20656 3.33301H4.87384C4.69699 3.33301 4.52739 3.40326 4.40234 3.52831C4.27728 3.65336 4.20703 3.82297 4.20703 3.99982C4.20703 4.17667 4.27728 4.34628 4.40234 4.47133C4.52739 4.59638 4.69699 4.66663 4.87384 4.66663Z" fill="#838383"/>
<path d="M11.5379 5.99902H4.87384C4.69699 5.99902 4.52739 6.06928 4.40234 6.19433C4.27728 6.31938 4.20703 6.48899 4.20703 6.66584C4.20703 6.84269 4.27728 7.01229 4.40234 7.13734C4.52739 7.2624 4.69699 7.33265 4.87384 7.33265H11.5393C11.7161 7.33265 11.8857 7.2624 12.0108 7.13734C12.1358 7.01229 12.2061 6.84269 12.2061 6.66584C12.2061 6.48899 12.1358 6.31938 12.0108 6.19433C11.8857 6.06928 11.7161 5.99902 11.5393 5.99902H11.5379Z" fill="#838383"/>
<path d="M11.5379 8.66455H4.87384C4.69699 8.66455 4.52739 8.7348 4.40234 8.85986C4.27728 8.98491 4.20703 9.15451 4.20703 9.33136C4.20703 9.50821 4.27728 9.67782 4.40234 9.80287C4.52739 9.92792 4.69699 9.99818 4.87384 9.99818H11.5393C11.7161 9.99818 11.8857 9.92792 12.0108 9.80287C12.1358 9.67782 12.2061 9.50821 12.2061 9.33136C12.2061 9.15451 12.1358 8.98491 12.0108 8.85986C11.8857 8.7348 11.7161 8.66455 11.5393 8.66455H11.5379Z" fill="#838383"/>
</svg>
