<svg width="62" height="22" viewBox="0 0 62 22" fill="none" xmlns="http://www.w3.org/2000/svg">
<path d="M6.73709 16.266C5.81309 16.266 5.01976 16.1027 4.35709 15.776C3.69443 15.4493 3.15309 15.0247 2.73309 14.502C2.32243 13.9793 2.01909 13.41 1.82309 12.794C1.62709 12.178 1.52909 11.5853 1.52909 11.016V10.708C1.52909 10.0733 1.62709 9.448 1.82309 8.832C2.02843 8.216 2.34109 7.656 2.76109 7.152C3.18109 6.648 3.71309 6.24667 4.35709 5.948C5.01043 5.64 5.78043 5.486 6.66709 5.486C7.59109 5.486 8.39376 5.654 9.07509 5.99C9.76576 6.31667 10.3164 6.78333 10.7271 7.39C11.1378 7.98733 11.3851 8.68733 11.4691 9.49H9.46709C9.39243 9.02333 9.22443 8.63133 8.96309 8.314C8.71109 7.98733 8.38909 7.74467 7.99709 7.586C7.60509 7.418 7.16176 7.334 6.66709 7.334C6.16309 7.334 5.71509 7.42267 5.32309 7.6C4.93109 7.768 4.60443 8.01067 4.34309 8.328C4.08176 8.64533 3.88109 9.01867 3.74109 9.448C3.61043 9.87733 3.54509 10.3533 3.54509 10.876C3.54509 11.38 3.61043 11.8467 3.74109 12.276C3.88109 12.7053 4.08643 13.0833 4.35709 13.41C4.62776 13.7273 4.95909 13.9747 5.35109 14.152C5.75243 14.3293 6.21443 14.418 6.73709 14.418C7.50243 14.418 8.14643 14.2313 8.66909 13.858C9.20109 13.4753 9.52309 12.9433 9.63509 12.262H11.6371C11.5438 12.99 11.2964 13.6573 10.8951 14.264C10.4938 14.8707 9.94309 15.356 9.24309 15.72C8.54309 16.084 7.70776 16.266 6.73709 16.266ZM12.6607 16V5.78H14.6067V11.744H14.2707C14.2707 10.9787 14.3687 10.33 14.5647 9.798C14.7607 9.266 15.05 8.86 15.4327 8.58C15.8247 8.3 16.3194 8.16 16.9167 8.16H17.0007C17.8687 8.16 18.5267 8.45867 18.9747 9.056C19.4227 9.65333 19.6467 10.5213 19.6467 11.66V16H17.7007V11.478C17.7007 10.9927 17.5607 10.61 17.2807 10.33C17.01 10.05 16.6507 9.91 16.2027 9.91C15.7267 9.91 15.3394 10.0687 15.0407 10.386C14.7514 10.694 14.6067 11.1 14.6067 11.604V16H12.6607ZM24.6408 16.266C23.9875 16.266 23.4135 16.154 22.9188 15.93C22.4335 15.706 22.0275 15.4073 21.7008 15.034C21.3835 14.6513 21.1408 14.2267 20.9728 13.76C20.8141 13.2933 20.7348 12.8173 20.7348 12.332V12.066C20.7348 11.562 20.8141 11.0767 20.9728 10.61C21.1408 10.134 21.3835 9.714 21.7008 9.35C22.0275 8.97667 22.4288 8.68267 22.9048 8.468C23.3808 8.244 23.9315 8.132 24.5568 8.132C25.3781 8.132 26.0641 8.314 26.6148 8.678C27.1748 9.03267 27.5948 9.504 27.8748 10.092C28.1548 10.6707 28.2948 11.296 28.2948 11.968V12.668H21.5608V11.478H27.0768L26.4748 12.066C26.4748 11.5807 26.4048 11.1653 26.2648 10.82C26.1248 10.4747 25.9101 10.2087 25.6208 10.022C25.3408 9.83533 24.9861 9.742 24.5568 9.742C24.1275 9.742 23.7635 9.84 23.4648 10.036C23.1661 10.232 22.9375 10.5167 22.7788 10.89C22.6295 11.254 22.5548 11.6927 22.5548 12.206C22.5548 12.682 22.6295 13.1067 22.7788 13.48C22.9281 13.844 23.1568 14.1333 23.4648 14.348C23.7728 14.5533 24.1648 14.656 24.6408 14.656C25.1168 14.656 25.5041 14.5627 25.8028 14.376C26.1015 14.18 26.2928 13.942 26.3768 13.662H28.1688C28.0568 14.1847 27.8421 14.642 27.5248 15.034C27.2075 15.426 26.8015 15.7293 26.3068 15.944C25.8215 16.1587 25.2661 16.266 24.6408 16.266ZM32.7945 16.266C32.1318 16.266 31.5578 16.154 31.0725 15.93C30.5965 15.706 30.1951 15.4073 29.8685 15.034C29.5511 14.6607 29.3131 14.2407 29.1545 13.774C28.9958 13.3073 28.9165 12.8313 28.9165 12.346V12.08C28.9165 11.5667 28.9958 11.0767 29.1545 10.61C29.3225 10.134 29.5698 9.714 29.8965 9.35C30.2231 8.97667 30.6245 8.68267 31.1005 8.468C31.5858 8.244 32.1458 8.132 32.7805 8.132C33.4431 8.132 34.0358 8.26267 34.5585 8.524C35.0811 8.776 35.4965 9.13067 35.8045 9.588C36.1218 10.0453 36.2991 10.5773 36.3365 11.184H34.4465C34.3998 10.792 34.2318 10.4653 33.9425 10.204C33.6625 9.94267 33.2751 9.812 32.7805 9.812C32.3511 9.812 31.9918 9.91467 31.7025 10.12C31.4225 10.3253 31.2125 10.61 31.0725 10.974C30.9325 11.3287 30.8625 11.7393 30.8625 12.206C30.8625 12.654 30.9278 13.06 31.0585 13.424C31.1985 13.788 31.4085 14.0727 31.6885 14.278C31.9778 14.4833 32.3465 14.586 32.7945 14.586C33.1305 14.586 33.4198 14.5253 33.6625 14.404C33.9051 14.2827 34.0965 14.1147 34.2365 13.9C34.3858 13.6853 34.4791 13.4427 34.5165 13.172H36.4065C36.3691 13.788 36.1871 14.3293 35.8605 14.796C35.5431 15.2533 35.1185 15.6127 34.5865 15.874C34.0638 16.1353 33.4665 16.266 32.7945 16.266ZM42.7854 16L40.2374 12.444H39.1034L42.3374 8.398H44.3674L41.3854 12.136L41.4274 11.156L44.9834 16H42.7854ZM37.4654 16V5.78H39.4114V16H37.4654Z" fill="#6765C8"/>
<path d="M50.6667 14.3332L57.3333 7.6665" stroke="#6765C8" stroke-width="2" stroke-linecap="round" stroke-linejoin="round"/>
<path d="M50.6667 7.6665H57.3333V14.3332" stroke="#6765C8" stroke-width="2" stroke-linecap="round" stroke-linejoin="round"/>
</svg>
