<svg width="16" height="16" viewBox="0 0 16 16" fill="none" xmlns="http://www.w3.org/2000/svg">
<g clip-path="url(#clip0_2_20263)">
<path d="M15.9999 7.66648C15.9995 7.20673 15.8633 6.75734 15.6085 6.37471C15.3536 5.99208 14.9913 5.69328 14.5672 5.51582C14.2965 3.97072 13.4897 2.57055 12.2886 1.5616C11.0875 0.552637 9.56916 -0.000488281 8.00054 -0.000488281C6.43191 -0.000488281 4.91352 0.552637 3.71245 1.5616C2.51137 2.57055 1.70454 3.97072 1.43387 5.51582C0.94987 5.71944 0.548701 6.08036 0.295232 6.54022C0.0417628 7.00008 -0.0491885 7.53199 0.0370852 8.04994C0.123359 8.56789 0.381814 9.0416 0.770657 9.39447C1.1595 9.74734 1.656 9.95874 2.17987 9.99448C2.52419 10.7252 2.99117 11.3915 3.56053 11.9645C2.72626 12.8754 2.1968 14.0238 2.04587 15.2498C2.03494 15.3367 2.04125 15.4249 2.06442 15.5094C2.08759 15.5938 2.12718 15.6729 2.18092 15.742C2.23465 15.8112 2.30149 15.8691 2.37761 15.9124C2.45373 15.9557 2.53763 15.9836 2.62453 15.9945C2.65197 15.9978 2.67957 15.9996 2.7072 15.9998C2.86945 15.9996 3.02606 15.9403 3.14768 15.8329C3.2693 15.7255 3.34759 15.5775 3.36787 15.4165C3.48874 14.4499 3.91228 13.5464 4.57787 12.8352C5.57063 13.5679 6.7662 13.9749 7.99987 13.9998C9.22988 13.9746 10.422 13.5694 11.4125 12.8398C12.0752 13.5498 12.497 14.4508 12.6179 15.4145C12.638 15.5756 12.7162 15.7238 12.8379 15.8313C12.9595 15.9388 13.1162 15.9983 13.2785 15.9985C13.3064 15.9983 13.3342 15.9966 13.3619 15.9932C13.5372 15.9712 13.6967 15.8805 13.8052 15.7409C13.9137 15.6014 13.9624 15.4245 13.9405 15.2492C13.7907 14.0263 13.2639 12.8804 12.4332 11.9705C13.0057 11.3957 13.4752 10.7269 13.8212 9.99315C14.4117 9.95392 14.9652 9.69178 15.3697 9.2598C15.7742 8.82783 15.9995 8.25828 15.9999 7.66648ZM13.4985 8.64848C13.343 8.62 13.1825 8.64809 13.0459 8.72769C12.9093 8.8073 12.8057 8.93315 12.7539 9.08248C12.1432 10.8145 10.0865 12.6665 7.99987 12.6665C5.9132 12.6665 3.85653 10.8132 3.24587 9.08115C3.19389 8.93189 3.09028 8.80613 2.95373 8.72654C2.81718 8.64696 2.65669 8.6188 2.5012 8.64715C2.4458 8.65801 2.38962 8.66448 2.3332 8.66648C2.08573 8.66353 1.84814 8.5689 1.66639 8.40092C1.48464 8.23293 1.37164 8.00351 1.34925 7.75703C1.32686 7.51055 1.39666 7.26453 1.54517 7.06654C1.69367 6.86855 1.91031 6.73266 2.1532 6.68515C2.29494 6.65946 2.42455 6.58854 2.52262 6.48302C2.62069 6.3775 2.68194 6.24306 2.6972 6.09982C2.78624 5.24736 3.08041 4.42914 3.55455 3.71514C4.0287 3.00113 4.66871 2.41258 5.41987 1.99982C5.31071 2.42388 5.30568 2.86805 5.4052 3.29448C5.54074 3.85841 5.85644 4.36278 6.30444 4.73113C6.75245 5.09948 7.30833 5.31172 7.88782 5.33569C8.46732 5.35966 9.03883 5.19405 9.51572 4.86396C9.99261 4.53386 10.3489 4.05729 10.5305 3.50648C10.5602 3.40864 10.5663 3.30519 10.5485 3.20452C10.5308 3.10384 10.4895 3.00877 10.4282 2.92698C10.3669 2.8452 10.2871 2.779 10.1955 2.73374C10.1038 2.68849 10.0028 2.66545 9.90054 2.66648H9.79987C9.67725 2.6705 9.5591 2.71343 9.4625 2.78905C9.3659 2.86468 9.29586 2.96908 9.26254 3.08715C9.18504 3.32022 9.04467 3.52736 8.85692 3.68572C8.66916 3.84407 8.44131 3.94748 8.1985 3.98455C7.9557 4.02161 7.70737 3.99088 7.48092 3.89576C7.25447 3.80063 7.05869 3.64481 6.91519 3.44547C6.77169 3.24613 6.68604 3.01102 6.6677 2.76609C6.64935 2.52116 6.69901 2.27592 6.81121 2.05742C6.9234 1.83892 7.09377 1.65567 7.30352 1.52786C7.51327 1.40006 7.75425 1.33268 7.99987 1.33315C9.31709 1.33 10.5886 1.81575 11.5682 2.69634C12.5478 3.57693 13.1658 4.78971 13.3025 6.09982C13.3178 6.24306 13.3791 6.3775 13.4771 6.48302C13.5752 6.58854 13.7048 6.65946 13.8465 6.68515C14.0894 6.73266 14.3061 6.86855 14.4546 7.06654C14.6031 7.26453 14.6729 7.51055 14.6505 7.75703C14.6281 8.00351 14.5151 8.23293 14.3333 8.40092C14.1516 8.5689 13.914 8.66353 13.6665 8.66648C13.6101 8.66492 13.554 8.6589 13.4985 8.64848Z" fill="#BCBCBC"/>
<path d="M6.33337 8.6665C6.88566 8.6665 7.33337 8.21879 7.33337 7.6665C7.33337 7.11422 6.88566 6.6665 6.33337 6.6665C5.78109 6.6665 5.33337 7.11422 5.33337 7.6665C5.33337 8.21879 5.78109 8.6665 6.33337 8.6665Z" fill="#BCBCBC"/>
<path d="M9.66663 8.6665C10.2189 8.6665 10.6666 8.21879 10.6666 7.6665C10.6666 7.11422 10.2189 6.6665 9.66663 6.6665C9.11434 6.6665 8.66663 7.11422 8.66663 7.6665C8.66663 8.21879 9.11434 8.6665 9.66663 8.6665Z" fill="#BCBCBC"/>
</g>
<defs>
<clipPath id="clip0_2_20263">
<rect width="16" height="16" fill="white"/>
</clipPath>
</defs>
</svg>
