<svg width="43" height="15" viewBox="0 0 43 15" fill="none" xmlns="http://www.w3.org/2000/svg">
<path d="M5.5625 15C4.67361 15 3.88194 14.8264 3.1875 14.4792C2.49306 14.1319 1.90972 13.6597 1.4375 13.0625C0.965278 12.4653 0.604167 11.7917 0.354167 11.0417C0.118056 10.2917 0 9.52083 0 8.72917C0 7.89583 0.138889 7.06945 0.416667 6.25C0.694444 5.41667 1.09028 4.625 1.60417 3.875C2.13194 3.125 2.75 2.45833 3.45833 1.875C4.18056 1.29167 4.98611 0.833334 5.875 0.5C6.77778 0.166667 7.73611 0 8.75 0C10.1111 0 11.2222 0.298612 12.0833 0.895834C12.9444 1.49306 13.5069 2.27083 13.7708 3.22917L10.7917 5.04167C10.6944 4.51389 10.5 4.10417 10.2083 3.8125C9.93056 3.52083 9.60417 3.31944 9.22917 3.20833C8.85417 3.09722 8.47222 3.04167 8.08333 3.04167C7.31945 3.04167 6.65278 3.20833 6.08333 3.54167C5.51389 3.875 5.03472 4.31945 4.64583 4.875C4.25694 5.41667 3.96528 6.00695 3.77083 6.64583C3.57639 7.27083 3.47917 7.875 3.47917 8.45833C3.47917 9.09722 3.58333 9.68056 3.79167 10.2083C4 10.7361 4.3125 11.1597 4.72917 11.4792C5.14583 11.7986 5.65972 11.9583 6.27083 11.9583C6.64583 11.9583 7.04861 11.8889 7.47917 11.75C7.90972 11.6111 8.31944 11.3958 8.70833 11.1042C9.09722 10.7986 9.43056 10.4028 9.70833 9.91667L12.1667 11.5625C11.7222 12.2986 11.125 12.9236 10.375 13.4375C9.63889 13.9514 8.84722 14.3403 8 14.6042C7.15278 14.8681 6.34028 15 5.5625 15Z" fill="#3F3F3F"/>
<path d="M19.1738 15C18.271 15 17.4724 14.8333 16.778 14.5C16.0835 14.1528 15.5002 13.6944 15.028 13.125C14.5558 12.5417 14.1947 11.8819 13.9447 11.1458C13.7085 10.3958 13.5905 9.61806 13.5905 8.8125C13.5905 7.92361 13.7433 7.04861 14.0488 6.1875C14.3544 5.32639 14.7849 4.52083 15.3405 3.77083C15.8961 3.02083 16.5419 2.36806 17.278 1.8125C18.028 1.24306 18.8405 0.798611 19.7155 0.479167C20.5905 0.159722 21.4933 0 22.4238 0C23.3127 0 24.1044 0.173612 24.7988 0.520834C25.4933 0.854167 26.0766 1.3125 26.5488 1.89583C27.021 2.47917 27.3752 3.13889 27.6113 3.875C27.8474 4.61111 27.9655 5.38195 27.9655 6.1875C27.9655 7.07639 27.8127 7.95139 27.5072 8.8125C27.2016 9.65972 26.771 10.4583 26.2155 11.2083C25.6599 11.9444 25.0141 12.5972 24.278 13.1667C23.5419 13.7361 22.7363 14.1875 21.8613 14.5208C21.0002 14.8403 20.1044 15 19.1738 15ZM19.8405 11.9583C20.5627 11.9583 21.2085 11.7917 21.778 11.4583C22.3474 11.1111 22.8335 10.6667 23.2363 10.125C23.6391 9.56945 23.9447 8.97222 24.153 8.33333C24.3613 7.68056 24.4655 7.04167 24.4655 6.41667C24.4655 5.81945 24.3683 5.26389 24.1738 4.75C23.9794 4.23611 23.6808 3.82639 23.278 3.52083C22.8752 3.20139 22.3544 3.04167 21.7155 3.04167C21.0072 3.04167 20.3683 3.20833 19.7988 3.54167C19.2294 3.875 18.7433 4.3125 18.3405 4.85417C17.9377 5.39583 17.6252 5.99306 17.403 6.64583C17.1947 7.28472 17.0905 7.91667 17.0905 8.54167C17.0905 9.15278 17.1877 9.71528 17.3822 10.2292C17.5766 10.7431 17.8752 11.1597 18.278 11.4792C18.6947 11.7986 19.2155 11.9583 19.8405 11.9583Z" fill="#3F3F3F"/>
<path d="M31.4113 0.0833337H36.703C37.9946 0.0833337 39.0571 0.340278 39.8905 0.854167C40.7238 1.36806 41.3419 2.05556 41.7446 2.91667C42.1613 3.77778 42.3696 4.75 42.3696 5.83333C42.3696 7.13889 42.1474 8.34028 41.703 9.4375C41.2585 10.5347 40.6405 11.4931 39.8488 12.3125C39.0571 13.1319 38.1196 13.7639 37.0363 14.2083C35.9669 14.6528 34.8071 14.875 33.5571 14.875H28.2655L31.4113 0.0833337ZM34.1821 11.875C34.8766 11.875 35.5085 11.7292 36.078 11.4375C36.6613 11.1319 37.1544 10.7222 37.5571 10.2083C37.9599 9.69445 38.2724 9.10417 38.4946 8.4375C38.7169 7.77083 38.828 7.06945 38.828 6.33333C38.828 5.68056 38.7238 5.11111 38.5155 4.625C38.321 4.13889 38.0155 3.76389 37.5988 3.5C37.1821 3.22222 36.6682 3.08333 36.0571 3.08333H34.1821L32.3071 11.875H34.1821Z" fill="#3F3F3F"/>
</svg>
