<svg width="24" height="24" viewBox="0 0 24 24" fill="none" xmlns="http://www.w3.org/2000/svg">
<path d="M18.8873 6.07243C18.6871 5.87223 18.4155 5.75977 18.1323 5.75977C17.8492 5.75977 17.5776 5.87223 17.3774 6.07243L12.48 10.9698L7.58267 6.07243C7.38241 5.87223 7.11084 5.75977 6.82767 5.75977C6.54451 5.75977 6.27293 5.87223 6.07267 6.07243C5.87248 6.27269 5.76001 6.54426 5.76001 6.82743C5.76001 7.11059 5.87248 7.38217 6.07267 7.58243L10.97 12.4798L6.07267 17.3771C5.87248 17.5774 5.76001 17.8489 5.76001 18.1321C5.76001 18.4153 5.87248 18.6868 6.07267 18.8871C6.27293 19.0873 6.54451 19.1998 6.82767 19.1998C7.11084 19.1998 7.38241 19.0873 7.58267 18.8871L12.48 13.9898L17.3774 18.8871C17.5776 19.0873 17.8492 19.1998 18.1323 19.1998C18.4155 19.1998 18.6871 19.0873 18.8873 18.8871C19.0875 18.6868 19.2 18.4153 19.2 18.1321C19.2 17.8489 19.0875 17.5774 18.8873 17.3771L13.99 12.4798L18.8873 7.58243C19.0875 7.38217 19.2 7.11059 19.2 6.82743C19.2 6.54426 19.0875 6.27269 18.8873 6.07243Z" fill="#F23737"/>
</svg>
