<svg width="52" height="60" viewBox="0 0 52 60" fill="none" xmlns="http://www.w3.org/2000/svg">
<rect width="52" height="60" rx="6" fill="#E84F41" fill-opacity="0.06"/>
<path d="M34.9999 22H31.8999C31.6678 20.8714 31.0537 19.8573 30.1611 19.1287C29.2686 18.4001 28.1521 18.0015 26.9999 18H24.9999C23.8477 18.0015 22.7312 18.4001 21.8386 19.1287C20.9461 19.8573 20.332 20.8714 20.0999 22H16.9999C16.7347 22 16.4803 22.1054 16.2928 22.2929C16.1052 22.4804 15.9999 22.7348 15.9999 23C15.9999 23.2652 16.1052 23.5196 16.2928 23.7071C16.4803 23.8946 16.7347 24 16.9999 24H17.9999V37C18.0015 38.3256 18.5288 39.5964 19.4661 40.5338C20.4034 41.4711 21.6743 41.9984 22.9999 42H28.9999C30.3255 41.9984 31.5963 41.4711 32.5337 40.5338C33.471 39.5964 33.9983 38.3256 33.9999 37V24H34.9999C35.2651 24 35.5194 23.8946 35.707 23.7071C35.8945 23.5196 35.9999 23.2652 35.9999 23C35.9999 22.7348 35.8945 22.4804 35.707 22.2929C35.5194 22.1054 35.2651 22 34.9999 22V22ZM24.9999 20H26.9999C27.6202 20.0008 28.225 20.1934 28.7315 20.5514C29.238 20.9095 29.6213 21.4155 29.8289 22H22.1709C22.3785 21.4155 22.7618 20.9095 23.2683 20.5514C23.7748 20.1934 24.3796 20.0008 24.9999 20V20ZM31.9999 37C31.9999 37.7956 31.6838 38.5587 31.1212 39.1213C30.5586 39.6839 29.7955 40 28.9999 40H22.9999C22.2042 40 21.4412 39.6839 20.8786 39.1213C20.3159 38.5587 19.9999 37.7956 19.9999 37V24H31.9999V37Z" fill="#E84F41"/>
<path d="M24 35.9994C24.2652 35.9994 24.5196 35.894 24.7071 35.7065C24.8946 35.5189 25 35.2646 25 34.9994V28.9994C25 28.7342 24.8946 28.4798 24.7071 28.2923C24.5196 28.1047 24.2652 27.9994 24 27.9994C23.7348 27.9994 23.4804 28.1047 23.2929 28.2923C23.1054 28.4798 23 28.7342 23 28.9994V34.9994C23 35.2646 23.1054 35.5189 23.2929 35.7065C23.4804 35.894 23.7348 35.9994 24 35.9994Z" fill="#E84F41"/>
<path d="M27.9999 35.9994C28.2651 35.9994 28.5195 35.894 28.707 35.7065C28.8945 35.5189 28.9999 35.2646 28.9999 34.9994V28.9994C28.9999 28.7342 28.8945 28.4798 28.707 28.2923C28.5195 28.1047 28.2651 27.9994 27.9999 27.9994C27.7347 27.9994 27.4803 28.1047 27.2928 28.2923C27.1052 28.4798 26.9999 28.7342 26.9999 28.9994V34.9994C26.9999 35.2646 27.1052 35.5189 27.2928 35.7065C27.4803 35.894 27.7347 35.9994 27.9999 35.9994Z" fill="#E84F41"/>
</svg>
