<svg width="24" height="24" viewBox="0 0 24 24" fill="none" xmlns="http://www.w3.org/2000/svg">
<path d="M19.8333 5.33333H17.25C17.0566 4.39284 16.5449 3.54779 15.801 2.9406C15.0572 2.33341 14.1268 2.00121 13.1667 2L11.5 2C10.5398 2.00121 9.60943 2.33341 8.86562 2.9406C8.12182 3.54779 7.61008 4.39284 7.41667 5.33333H4.83333C4.61232 5.33333 4.40036 5.42113 4.24408 5.57741C4.0878 5.73369 4 5.94565 4 6.16667C4 6.38768 4.0878 6.59964 4.24408 6.75592C4.40036 6.9122 4.61232 7 4.83333 7H5.66667V17.8333C5.66799 18.938 6.1074 19.997 6.88852 20.7782C7.66963 21.5593 8.72867 21.9987 9.83333 22H14.8333C15.938 21.9987 16.997 21.5593 17.7782 20.7782C18.5593 19.997 18.9987 18.938 19 17.8333V7H19.8333C20.0543 7 20.2663 6.9122 20.4226 6.75592C20.5789 6.59964 20.6667 6.38768 20.6667 6.16667C20.6667 5.94565 20.5789 5.73369 20.4226 5.57741C20.2663 5.42113 20.0543 5.33333 19.8333 5.33333ZM11.5 3.66667H13.1667C13.6836 3.6673 14.1876 3.82781 14.6097 4.1262C15.0317 4.42459 15.3512 4.84624 15.5242 5.33333H9.1425C9.31549 4.84624 9.63492 4.42459 10.057 4.1262C10.4791 3.82781 10.9831 3.6673 11.5 3.66667ZM17.3333 17.8333C17.3333 18.4964 17.0699 19.1323 16.6011 19.6011C16.1323 20.0699 15.4964 20.3333 14.8333 20.3333H9.83333C9.17029 20.3333 8.53441 20.0699 8.06557 19.6011C7.59673 19.1323 7.33333 18.4964 7.33333 17.8333V7H17.3333V17.8333Z" fill="#161C2A"/>
<path d="M10.6667 16.9994C10.8877 16.9994 11.0997 16.9116 11.256 16.7553C11.4122 16.5991 11.5 16.3871 11.5 16.1661V11.1661C11.5 10.9451 11.4122 10.7331 11.256 10.5768C11.0997 10.4206 10.8877 10.3328 10.6667 10.3328C10.4457 10.3328 10.2337 10.4206 10.0775 10.5768C9.92117 10.7331 9.83337 10.9451 9.83337 11.1661V16.1661C9.83337 16.3871 9.92117 16.5991 10.0775 16.7553C10.2337 16.9116 10.4457 16.9994 10.6667 16.9994Z" fill="#161C2A"/>
<path d="M14 16.9994C14.221 16.9994 14.4329 16.9116 14.5892 16.7553C14.7455 16.5991 14.8333 16.3871 14.8333 16.1661V11.1661C14.8333 10.9451 14.7455 10.7331 14.5892 10.5768C14.4329 10.4206 14.221 10.3328 14 10.3328C13.7789 10.3328 13.567 10.4206 13.4107 10.5768C13.2544 10.7331 13.1666 10.9451 13.1666 11.1661V16.1661C13.1666 16.3871 13.2544 16.5991 13.4107 16.7553C13.567 16.9116 13.7789 16.9994 14 16.9994Z" fill="#161C2A"/>
</svg>
