<svg width="48" height="48" viewBox="0 0 48 48" fill="none" xmlns="http://www.w3.org/2000/svg">
<path d="M24 48C10.7452 48 0 37.2548 0 24C0 10.7452 10.7452 0 24 0C37.2548 0 48 10.7452 48 24C48 37.2548 37.2548 48 24 48Z" fill="#6765C8"/>
<path d="M24 47C11.2975 47 1 36.7025 1 24C1 11.2975 11.2975 1 24 1C36.7025 1 47 11.2975 47 24C47 36.7025 36.7025 47 24 47Z" stroke="white" stroke-width="2"/>
<g clip-path="url(#clip0_2_18911)">
<path d="M24 14.0352C21.7949 14.0376 19.6809 14.9146 18.1216 16.4737C16.5623 18.0328 15.6851 20.1468 15.6825 22.3518C15.6825 24.4935 17.3408 27.8452 20.6117 32.3135C21.001 32.8469 21.5109 33.2809 22.0997 33.5801C22.6885 33.8793 23.3396 34.0352 24 34.0352C24.6604 34.0352 25.3115 33.8793 25.9003 33.5801C26.4891 33.2809 26.9989 32.8469 27.3883 32.3135C30.6592 27.8452 32.3175 24.4935 32.3175 22.3518C32.3148 20.1468 31.4377 18.0328 29.8784 16.4737C28.3191 14.9146 26.205 14.0376 24 14.0352ZM24 25.6668C23.3407 25.6668 22.6963 25.4713 22.1481 25.1051C21.5999 24.7388 21.1727 24.2182 20.9204 23.6091C20.6681 23 20.6021 22.3298 20.7307 21.6832C20.8593 21.0366 21.1768 20.4426 21.643 19.9765C22.1091 19.5103 22.7031 19.1928 23.3497 19.0642C23.9963 18.9356 24.6665 19.0016 25.2756 19.2539C25.8847 19.5062 26.4053 19.9334 26.7716 20.4816C27.1378 21.0298 27.3333 21.6742 27.3333 22.3335C27.3333 23.2175 26.9821 24.0654 26.357 24.6905C25.7319 25.3156 24.8841 25.6668 24 25.6668Z" fill="white"/>
</g>
<defs>
<clipPath id="clip0_2_18911">
<rect width="20" height="20" fill="white" transform="translate(14 14)"/>
</clipPath>
</defs>
</svg>
