<svg width="10" height="18" viewBox="0 0 10 18" fill="none" xmlns="http://www.w3.org/2000/svg">
<path d="M4.85 15C3.818 15 2.942 14.832 2.222 14.496C1.502 14.148 0.95 13.662 0.566 13.038C0.194 12.402 0.00800003 11.658 0.00800003 10.806H1.628C1.628 11.214 1.724 11.628 1.916 12.048C2.12 12.468 2.456 12.822 2.924 13.11C3.392 13.386 4.034 13.524 4.85 13.524C5.93 13.524 6.728 13.296 7.244 12.84C7.772 12.384 8.036 11.862 8.036 11.274C8.036 10.698 7.802 10.218 7.334 9.834C6.866 9.45 6.188 9.216 5.3 9.132L4.112 9.024C2.96 8.916 2.042 8.568 1.358 7.98C0.674 7.392 0.332 6.552 0.332 5.46C0.332 4.704 0.512 4.062 0.872 3.534C1.244 2.994 1.76 2.58 2.42 2.292C3.092 2.004 3.878 1.86 4.778 1.86C5.678 1.86 6.452 2.022 7.1 2.346C7.76 2.658 8.27 3.12 8.63 3.732C8.99 4.332 9.17 5.058 9.17 5.91H7.55C7.55 5.478 7.454 5.07 7.262 4.686C7.07 4.29 6.77 3.966 6.362 3.714C5.966 3.462 5.438 3.336 4.778 3.336C4.19 3.336 3.686 3.432 3.266 3.624C2.858 3.804 2.54 4.056 2.312 4.38C2.096 4.704 1.988 5.064 1.988 5.46C1.988 5.976 2.174 6.426 2.546 6.81C2.918 7.182 3.488 7.404 4.256 7.476L5.444 7.584C6.728 7.704 7.754 8.082 8.522 8.718C9.302 9.342 9.692 10.194 9.692 11.274C9.692 12.018 9.494 12.672 9.098 13.236C8.702 13.788 8.144 14.22 7.424 14.532C6.704 14.844 5.846 15 4.85 15ZM4.076 17.322V14.694H5.624V17.322H4.076ZM4.004 2.742V0.114H5.552V2.742H4.004Z" fill="#A4A4A4"/>
</svg>
