<svg width="27" height="23" viewBox="0 0 27 23" fill="none" xmlns="http://www.w3.org/2000/svg">
<path d="M12.5852 0.243931L12.6097 0.14699L6.87995 10.9947C6.90244 10.972 6.90882 10.9454 6.91034 10.9286C6.91183 10.9121 6.90945 10.8982 6.90746 10.8894C6.90345 10.8719 6.89625 10.8557 6.89017 10.8435C6.87737 10.8177 6.85817 10.7875 6.83608 10.7559C6.79118 10.6916 6.72599 10.61 6.65129 10.5258C6.03914 9.83566 5.46245 8.73559 5.2168 7.78668C5.0208 7.02967 4.97351 5.84246 5.1095 5.10935C5.58664 2.53733 7.62641 0.552354 10.2171 0.139601C10.4788 0.0979116 10.9401 0.0904713 11.4068 0.111041C11.8735 0.131614 12.3309 0.179563 12.5852 0.243931ZM12.5852 0.243931C13.8936 0.57525 15.1063 1.37912 15.8897 2.433L15.9639 2.37791L15.8897 2.43301C16.8277 3.69473 17.253 5.06358 17.1828 6.59056C17.0773 8.88367 15.7912 10.8286 13.7246 11.8209L13.7679 11.9111L13.7246 11.8209C12.9189 12.2078 12.2673 12.359 11.1082 12.4233C9.1841 12.5298 7.9316 12.9003 6.5266 13.7835L6.57982 13.8682L6.52659 13.7835C4.96929 14.7625 3.64938 16.3603 2.99319 18.0613L3.08649 18.0973L2.99319 18.0613C2.7962 18.5721 2.68024 18.9877 2.49754 19.8324L2.59528 19.8535L2.49754 19.8324L2.46917 19.9636L2.44298 20.0847H2.56691H5.63589C7.37811 20.0847 8.24518 20.0854 8.72313 20.1356C8.96098 20.1605 9.09072 20.1968 9.1805 20.2446C9.26931 20.2918 9.32703 20.354 9.41769 20.4557L9.49234 20.3892L9.4177 20.4557C9.75124 20.8299 9.81123 21.3305 9.57136 21.8104C9.50641 21.9404 9.45969 22.0145 9.40264 22.0724C9.34564 22.1302 9.27265 22.1774 9.14454 22.2432L8.8536 22.3925L4.96107 22.3922C3.66936 22.3921 2.67205 22.3868 1.97975 22.3763C1.63351 22.3711 1.36417 22.3647 1.17266 22.357C1.07682 22.3532 1.00126 22.349 0.945656 22.3447C0.917824 22.3425 0.895736 22.3403 0.879002 22.3382C0.870657 22.3372 0.864115 22.3362 0.859159 22.3353L0.853468 22.3342C0.852068 22.3339 0.851482 22.3337 0.851538 22.3337C0.543877 22.2472 0.254816 21.9506 0.157316 21.6106L0.0611949 21.6382M12.5852 0.243931L0.0611949 21.6382M0.0611949 21.6382L0.157313 21.6106C0.121456 21.4856 0.10186 21.2933 0.100127 21.049C0.0984065 20.8066 0.114253 20.5197 0.145853 20.209C0.209066 19.5875 0.334774 18.8763 0.505548 18.2447C1.34597 15.1368 3.57979 12.4755 6.37743 11.2427C6.49888 11.1892 6.61328 11.1367 6.69996 11.095M0.0611949 21.6382L6.69996 11.095M14.7245 5.41266C14.5564 4.68595 14.2594 4.15156 13.7227 3.60752C13.1929 3.07048 12.6614 2.76368 11.9704 2.5986L11.9704 2.5986C11.4368 2.47116 10.5713 2.48394 10.0329 2.62685L10.0329 2.62685C8.8563 2.93928 7.86264 3.86709 7.48458 5.00828L7.48458 5.00829C6.91306 6.73366 7.5004 8.56182 8.94431 9.51785C11.0317 10.8999 13.8858 9.90767 14.6412 7.53431C14.7293 7.25739 14.7818 6.86672 14.797 6.4796C14.8122 6.09243 14.7905 5.69781 14.7245 5.41266ZM14.7245 5.41266L14.6271 5.43521M14.7245 5.41266C14.7245 5.41266 14.7245 5.41266 14.7245 5.41265L14.6271 5.43521M14.6271 5.43521C14.7535 5.98121 14.7145 6.97419 14.5459 7.50398C13.8109 9.81326 11.0323 10.7804 8.99952 9.43447C7.59608 8.50524 7.02109 6.72556 7.57951 5.03973C7.94678 3.9311 8.91401 3.02742 10.0585 2.72351C10.5812 2.58476 11.4299 2.57234 11.9471 2.69586C12.6187 2.8563 13.1339 3.1531 13.6515 3.67776C14.1756 4.209 14.4632 4.72701 14.6271 5.43521ZM6.69996 11.095C6.7432 11.0742 6.7802 11.0558 6.80796 11.0412M6.69996 11.095L6.80796 11.0412M6.80796 11.0412C6.82175 11.034 6.83415 11.0272 6.84425 11.0212M6.80796 11.0412L6.84425 11.0212M6.84425 11.0212L6.84482 11.0208M6.84425 11.0212L6.84482 11.0208M6.84482 11.0208C6.85126 11.017 6.8674 11.0074 6.87984 10.9949L6.84482 11.0208ZM22.3324 7.72626L22.3324 7.72626C22.5895 7.65315 22.7998 7.65235 23.0551 7.72311C23.0866 7.73183 23.1317 7.7529 23.207 7.80773C23.2822 7.86244 23.3822 7.94688 23.5234 8.07691C23.8055 8.33679 24.2426 8.77009 24.9574 9.49028L25.0284 9.41983L24.9574 9.49028C25.429 9.96532 25.8691 10.4199 26.1982 10.7696C26.3628 10.9445 26.4993 11.0927 26.5979 11.2038C26.6472 11.2595 26.6865 11.3052 26.715 11.3401C26.7292 11.3575 26.7402 11.3716 26.7481 11.3825C26.7565 11.3939 26.7591 11.3986 26.7591 11.3984C26.8344 11.547 26.8765 11.6706 26.8925 11.7912C26.9084 11.9113 26.8991 12.0341 26.8639 12.1822C26.8387 12.288 26.8002 12.3837 26.2571 12.9645C25.7198 13.5391 24.7044 14.5742 22.7586 16.5533C20.9241 18.4192 19.9007 19.4554 19.297 20.0431C18.6892 20.6349 18.5166 20.7614 18.3793 20.8246L18.3793 20.8247C18.1957 20.9093 17.0428 21.316 15.8117 21.7294L13.6052 22.4703L13.3037 22.4065L13.283 22.5043L13.3037 22.4065C12.9248 22.3263 12.6084 22.1058 12.4559 21.8305L12.4547 21.8282C12.3877 21.7072 12.3465 21.6327 12.3263 21.544C12.3065 21.4571 12.3058 21.3488 12.3411 21.1651C12.412 20.7957 12.6187 20.1645 13.0403 18.8774L13.0531 18.8381C13.27 18.176 13.4819 17.5447 13.6486 17.0611C13.732 16.8193 13.804 16.6146 13.8595 16.4617C13.9162 16.3055 13.9535 16.21 13.9684 16.1804C13.9741 16.169 13.9963 16.137 14.0458 16.077C14.0928 16.02 14.1589 15.9442 14.2455 15.8485C14.4186 15.6572 14.6708 15.3888 15.0095 15.0357C15.6868 14.3298 16.7078 13.2874 18.1284 11.8505C19.7189 10.2417 20.7407 9.21605 21.3845 8.58702C21.7066 8.27235 21.933 8.05797 22.0884 7.91977C22.1661 7.85056 22.2247 7.80166 22.2678 7.76917C22.3114 7.73628 22.33 7.72744 22.3322 7.72638C22.3324 7.72629 22.3324 7.72625 22.3324 7.72626ZM24.1301 12.0074L24.1993 11.9372L24.1302 11.867L23.47 11.196C23.2881 11.011 23.1191 10.8427 22.9934 10.7204C22.9306 10.6594 22.8781 10.6093 22.84 10.5743C22.821 10.5569 22.8047 10.5424 22.7921 10.5319C22.7897 10.5299 22.7872 10.5278 22.7846 10.5258C22.7807 10.5226 22.7766 10.5195 22.7727 10.5167C22.7711 10.5156 22.769 10.5142 22.7665 10.5126C22.7642 10.5111 22.7614 10.5095 22.7584 10.5078C22.7554 10.5062 22.7504 10.5037 22.744 10.5013C22.7389 10.4995 22.7259 10.495 22.7086 10.495C22.6883 10.495 22.6734 10.5013 22.6697 10.5028C22.6637 10.5053 22.6593 10.5079 22.6569 10.5093C22.6522 10.5121 22.6485 10.5148 22.6468 10.516C22.6431 10.5188 22.6397 10.5217 22.6375 10.5236C22.6326 10.5278 22.6267 10.5332 22.6203 10.5392C22.6072 10.5514 22.5887 10.5691 22.5655 10.5916C22.519 10.6367 22.4517 10.7031 22.366 10.7881C22.1946 10.9583 21.9487 11.2043 21.6467 11.5077C21.0427 12.1145 20.2138 12.9514 19.3057 13.8719L16.0038 17.2189L15.9867 17.2363L15.9795 17.2595L15.6784 18.2282C15.5953 18.4953 15.5237 18.7387 15.4752 18.9159C15.451 19.0042 15.4322 19.0773 15.4207 19.1289C15.415 19.1542 15.4105 19.177 15.4082 19.1946C15.4072 19.2024 15.4058 19.2147 15.4065 19.2273C15.4067 19.2325 15.4076 19.2471 15.4143 19.2636C15.4207 19.2795 15.4462 19.3259 15.5057 19.3275C15.5167 19.3278 15.526 19.3262 15.5281 19.3258L15.5283 19.3258C15.5321 19.3251 15.5357 19.3244 15.5388 19.3237C15.5414 19.3231 15.5441 19.3224 15.5471 19.3217C15.5513 19.3207 15.5558 19.3196 15.5605 19.3183C15.5767 19.3141 15.5987 19.308 15.6254 19.3003C15.679 19.285 15.7537 19.2628 15.8438 19.2356C16.0243 19.1812 16.2681 19.106 16.5317 19.0233L16.5017 18.9279L16.5317 19.0233L17.4892 18.7226L17.5129 18.7152L17.5304 18.6975L20.8302 15.3524L24.1301 12.0074Z" fill="#161C2A" stroke="#FAFAFA" stroke-width="0.2"/>
</svg>
