<svg width="30" height="24" viewBox="0 0 30 24" fill="none" xmlns="http://www.w3.org/2000/svg">
<path d="M6 5.5C6 4.94772 6.44772 4.5 7 4.5H23C23.5523 4.5 24 4.94772 24 5.5V16C24 16.2761 24.2239 16.5 24.5 16.5H26.5C26.7761 16.5 27 16.2761 27 16V3.75C27 2.51344 25.9866 1.5 24.75 1.5H5.25C4.01344 1.5 3 2.51344 3 3.75V16C3 16.2761 3.22386 16.5 3.5 16.5H5.5C5.77614 16.5 6 16.2761 6 16V5.5ZM29.25 17.9578H0.75C0.339844 17.9578 0 18.2977 0 18.7078V19.4578C0 21.1102 1.34766 22.4578 3 22.4578H27C28.6523 22.4578 30 21.1102 30 19.4578V18.7078C30 18.3375 29.6625 17.9578 29.25 17.9578Z" fill="url(#paint0_linear_2_17630)"/>
<defs>
<linearGradient id="paint0_linear_2_17630" x1="15" y1="1.5" x2="15" y2="22.4578" gradientUnits="userSpaceOnUse">
<stop stop-color="#FB923C"/>
<stop offset="1" stop-color="#F97316"/>
</linearGradient>
</defs>
</svg>
