<svg width="30" height="24" viewBox="0 0 30 24" fill="none" xmlns="http://www.w3.org/2000/svg">
<path d="M29.5 7.63125C29.5 7.95548 29.3961 8.28188 29.1823 8.55469L26.9185 11.4436C26.6321 11.809 26.2107 11.9991 25.7852 11.9991C25.4676 11.9991 25.1477 11.893 24.8803 11.6747L22.25 9.52969V21.75C22.25 22.9927 21.2763 24 20.075 24H9.92501C8.72423 24 7.75001 22.9922 7.75001 21.75V9.52969L5.08111 11.6766C4.85228 11.8922 4.53237 11.9578 4.21473 11.9578C3.78934 11.9578 3.36784 11.7676 3.08147 11.4023L0.817745 8.55469C0.60387 8.28281 0.5 7.95469 0.5 7.63125C0.5 7.19709 0.68628 6.76687 1.0442 6.47437L7.16139 1.4775C7.74095 1.00734 8.46142 0.75 9.15923 0.75H10.7225C11.0714 2.87625 12.8477 4.5 15 4.5C17.1524 4.5 18.93 2.87625 19.2771 0.75H20.7996C21.5404 0.75 22.2595 1.00734 22.8382 1.47984L28.9554 6.47672C29.3142 6.76875 29.5 7.2 29.5 7.63125Z" fill="url(#paint0_linear_2_17636)"/>
<defs>
<linearGradient id="paint0_linear_2_17636" x1="15" y1="0.75" x2="15" y2="24" gradientUnits="userSpaceOnUse">
<stop stop-color="#2DD4BF"/>
<stop offset="1" stop-color="#14B8A6"/>
</linearGradient>
</defs>
</svg>
