<svg width="18" height="16" viewBox="0 0 18 16" fill="none" xmlns="http://www.w3.org/2000/svg">
<path d="M13.1253 0C12.2813 0.0128783 11.4556 0.248184 10.7316 0.682165C10.0076 1.11615 9.4109 1.73344 9.00173 2.47175C8.59256 1.73344 7.99586 1.11615 7.27186 0.682165C6.54786 0.248184 5.72219 0.0128783 4.87818 0C3.53212 0.0581622 2.26381 0.646783 1.35041 1.63723C0.437023 2.62767 -0.047177 3.93941 0.00363009 5.28577C0.00363009 8.69502 3.59196 12.4183 6.60092 14.9426C7.27283 15.5072 8.12236 15.8167 9 15.8167C9.87764 15.8167 10.7272 15.5072 11.3991 14.9426C14.4085 12.4183 17.9964 8.69254 17.9964 5.28577C18.0472 3.93998 17.5635 2.62875 16.6508 1.63841C15.7382 0.648062 14.4707 0.0590531 13.1253 0ZM10.4378 13.7953C10.0359 14.1337 9.52736 14.3192 9.00198 14.3192C8.4766 14.3192 7.9681 14.1337 7.5662 13.7953C3.71398 10.5631 1.50414 7.46237 1.50414 5.28577C1.45287 4.33725 1.77868 3.40693 2.41055 2.69766C3.04241 1.98839 3.92907 1.55771 4.87719 1.49952C5.82531 1.55771 6.71197 1.98839 7.34383 2.69766C7.9757 3.40693 8.30151 4.33725 8.25024 5.28577C8.25024 5.48461 8.32923 5.67532 8.46984 5.81593C8.61045 5.95653 8.80115 6.03552 9 6.03552C9.19885 6.03552 9.38955 5.95653 9.53016 5.81593C9.67076 5.67532 9.74976 5.48461 9.74976 5.28577C9.69848 4.33725 10.0243 3.40693 10.6562 2.69766C11.288 1.98839 12.1747 1.55771 13.1228 1.49952C14.0709 1.55771 14.9576 1.98839 15.5894 2.69766C16.2213 3.40693 16.5471 4.33725 16.4959 5.28577C16.4959 7.46237 14.2865 10.5631 10.4343 13.7923L10.4378 13.7953Z" fill="#EF4444"/>
<path d="M8.10088 1.7999L9.00088 4.4999L9.45088 3.5999L9.90088 2.6999L10.3509 1.3499L12.6009 0.899902H14.4009L15.7509 1.7999L16.6509 3.1499L17.5509 4.9499L16.6509 5.8499L16.2009 7.6499L15.3009 9.4499L13.0509 12.1499L11.7009 13.4999L9.45088 14.8499L7.20088 14.3999L3.60088 10.7999L1.80088 8.5499L0.900879 4.9499L1.80088 2.2499L4.05088 0.899902L5.40088 1.3499L8.10088 1.7999Z" fill="#EF4444"/>
</svg>
