<svg width="27" height="22" viewBox="0 0 27 22" fill="none" xmlns="http://www.w3.org/2000/svg">
<path d="M28.3926 9.59668C27.1504 9.59668 26.1426 10.6045 26.1426 11.8467V15.5967H5.14258V11.8467C5.14258 10.6045 4.13523 9.59668 2.89258 9.59668C1.64992 9.59668 0.642578 10.6045 0.642578 11.8467V20.8467C0.642578 21.2592 0.978391 21.5967 1.39258 21.5967H4.39258C4.80677 21.5967 5.10039 21.2609 5.10039 20.8467L5.14258 20.0967H26.1426V20.8467C26.1426 21.2609 26.4784 21.5967 26.8926 21.5967H29.8926C30.3068 21.5967 30.6426 21.2609 30.6426 20.8467V11.8467C30.6426 10.6045 29.6348 9.59668 28.3926 9.59668ZM6.64258 11.8467V14.0967H24.6426V11.8467C24.6426 10.0359 25.933 8.5209 27.6426 8.17262V6.59668C27.6426 3.28309 24.9562 0.59668 21.6426 0.59668H9.60039C6.2868 0.59668 3.60039 3.28309 3.60039 6.59668L3.64258 8.17168C5.35352 8.52324 6.64258 10.0373 6.64258 11.8467Z" fill="url(#paint0_linear_2_17613)"/>
<defs>
<linearGradient id="paint0_linear_2_17613" x1="15.6426" y1="0.59668" x2="15.6426" y2="21.5967" gradientUnits="userSpaceOnUse">
<stop stop-color="#60A5FA"/>
<stop offset="1" stop-color="#3B82F6"/>
</linearGradient>
</defs>
</svg>
