<svg width="16" height="16" viewBox="0 0 16 16" fill="none" xmlns="http://www.w3.org/2000/svg">
<g clip-path="url(#clip0_2_20275)">
<path d="M14.6666 0H11.9999C11.8231 0 11.6535 0.0702379 11.5285 0.195262C11.4035 0.320286 11.3332 0.489856 11.3332 0.666667C11.3332 0.843478 11.4035 1.01305 11.5285 1.13807C11.6535 1.2631 11.8231 1.33333 11.9999 1.33333H13.7239L12.1239 2.93333C11.3942 2.38232 10.5177 2.05983 9.60492 2.00655C8.69214 1.95328 7.78404 2.17161 6.99523 2.634C6.40072 2.29047 5.73762 2.08258 5.05339 2.02521C4.36916 1.96784 3.6807 2.06241 3.03728 2.30215C2.39386 2.54189 1.81138 2.92087 1.33151 3.41198C0.851644 3.9031 0.486253 4.4942 0.261481 5.143C0.0367095 5.7918 -0.0418868 6.48226 0.0313156 7.16498C0.104518 7.8477 0.327709 8.50581 0.684921 9.09221C1.04213 9.67861 1.52454 10.1788 2.09761 10.557C2.67069 10.9352 3.32028 11.1821 3.9999 11.28V12.6667H2.66657C2.48976 12.6667 2.32019 12.7369 2.19516 12.8619C2.07014 12.987 1.9999 13.1565 1.9999 13.3333C1.9999 13.5101 2.07014 13.6797 2.19516 13.8047C2.32019 13.9298 2.48976 14 2.66657 14H3.9999V15.3333C3.9999 15.5101 4.07014 15.6797 4.19516 15.8047C4.32019 15.9298 4.48976 16 4.66657 16C4.84338 16 5.01295 15.9298 5.13797 15.8047C5.263 15.6797 5.33323 15.5101 5.33323 15.3333V14H6.66657C6.84338 14 7.01295 13.9298 7.13797 13.8047C7.263 13.6797 7.33323 13.5101 7.33323 13.3333C7.33323 13.1565 7.263 12.987 7.13797 12.8619C7.01295 12.7369 6.84338 12.6667 6.66657 12.6667H5.33323V11.2847C5.91927 11.1973 6.48306 10.9982 6.9939 10.698C7.9227 11.2413 9.01096 11.4461 10.0737 11.2778C11.1365 11.1095 12.1082 10.5784 12.8237 9.7748C13.5392 8.97116 13.9544 7.94455 13.9987 6.86945C14.0429 5.79435 13.7136 4.73708 13.0666 3.87733L14.6666 2.27733V4C14.6666 4.17681 14.7368 4.34638 14.8618 4.4714C14.9869 4.59643 15.1564 4.66667 15.3332 4.66667C15.51 4.66667 15.6796 4.59643 15.8046 4.4714C15.9297 4.34638 15.9999 4.17681 15.9999 4V1.33333C15.9999 0.979711 15.8594 0.640573 15.6094 0.390524C15.3593 0.140476 15.0202 0 14.6666 0V0ZM1.33323 6.66667C1.33007 6.12523 1.45962 5.59127 1.71055 5.11148C1.96148 4.6317 2.32614 4.2207 2.77264 3.91443C3.21914 3.60817 3.73388 3.41597 4.27184 3.35465C4.8098 3.29333 5.35459 3.36475 5.85857 3.56267C5.09119 4.41441 4.66653 5.52022 4.66653 6.66667C4.66653 7.81311 5.09119 8.91892 5.85857 9.77067C5.35459 9.96859 4.8098 10.04 4.27184 9.97868C3.73388 9.91736 3.21914 9.72516 2.77264 9.4189C2.32614 9.11264 1.96148 8.70164 1.71055 8.22185C1.45962 7.74206 1.33007 7.2081 1.33323 6.66667ZM9.33323 10C8.67396 10 8.0295 9.8045 7.48133 9.43823C6.93317 9.07196 6.50593 8.55136 6.25363 7.94228C6.00134 7.33319 5.93533 6.66297 6.06395 6.01637C6.19257 5.36976 6.51004 4.77582 6.97621 4.30964C7.44239 3.84347 8.03633 3.526 8.68293 3.39738C9.32954 3.26877 9.99976 3.33478 10.6088 3.58707C11.2179 3.83936 11.7385 4.2666 12.1048 4.81477C12.4711 5.36293 12.6666 6.0074 12.6666 6.66667C12.6655 7.5504 12.314 8.39763 11.6891 9.02252C11.0642 9.64741 10.217 9.99894 9.33323 10Z" fill="#BCBCBC"/>
</g>
<defs>
<clipPath id="clip0_2_20275">
<rect width="16" height="16" fill="white"/>
</clipPath>
</defs>
</svg>
