<svg width="41" height="438" viewBox="0 0 41 438" fill="none" xmlns="http://www.w3.org/2000/svg">
<g opacity="0.5">
<path d="M39.504 27.9L12.604 1L-14.345 27.944L-6.569 35.72L4.84399 24.306V76.958C4.84399 87.12 -2.69601 94.496 -12.038 94.496C-21.545 94.496 -28.921 87.12 -28.921 76.958L-28.938 50.958C-31.3351 59.3349 -36.6859 66.5597 -44 71.295V78.108C-44 97.777 -28.757 109.415 -12.038 109.415C4.51699 109.415 19.762 97.777 19.762 78.108V23.708L31.724 35.676L39.504 27.9Z" stroke="white" stroke-miterlimit="10"/>
<path d="M39.504 192.844L12.604 219.744L-14.344 192.797L-6.56802 185.021L4.84498 196.434V143.787C4.84498 133.625 -2.69502 126.248 -12.037 126.248C-21.544 126.248 -28.92 133.625 -28.92 143.787L-28.937 169.787C-31.3341 161.41 -36.6849 154.185 -43.999 149.45V142.644C-43.999 122.975 -28.756 111.337 -12.037 111.337C4.51798 111.337 19.763 122.975 19.763 142.644V197.044L31.724 185.072L39.504 192.844Z" stroke="white" stroke-miterlimit="10"/>
<path d="M39.504 246.567L12.604 219.667L-14.344 246.615L-6.56802 254.39L4.84498 242.977V295.629C4.84498 305.791 -2.69502 313.167 -12.037 313.167C-21.544 313.167 -28.92 305.791 -28.92 295.629L-28.937 269.629C-31.3341 278.006 -36.6849 285.23 -43.999 289.965V296.779C-43.999 316.448 -28.756 328.086 -12.037 328.086C4.51798 328.086 19.763 316.448 19.763 296.779V242.379L31.724 254.344L39.504 246.567Z" stroke="white" stroke-miterlimit="10"/>
<path d="M39.504 411.514L12.604 438.414L-14.344 411.466L-6.56802 403.691L4.84498 415.104V362.453C4.84498 352.292 -2.69502 344.915 -12.037 344.915C-21.544 344.915 -28.92 352.292 -28.92 362.453L-28.937 388.453C-31.3344 380.077 -36.6852 372.852 -43.999 368.117V361.303C-43.999 341.634 -28.756 329.997 -12.037 329.997C4.51798 329.997 19.763 341.634 19.763 361.303V415.703L31.732 403.734L39.504 411.514Z" stroke="white" stroke-miterlimit="10"/>
</g>
</svg>
