<svg width="33" height="633" viewBox="0 0 33 633" fill="none" xmlns="http://www.w3.org/2000/svg">
<g opacity="0.2">
<path d="M1 -5.285C1 -23.806 15.1 -42 39.518 -42C63.776 -42 78.036 -23.806 78.036 -5.285C78.036 13.236 63.776 31.431 39.518 31.431C15.096 31.434 1 13.234 1 -5.285ZM39.518 17.334C42.5057 17.3973 45.4753 16.8554 48.2482 15.7411C51.021 14.6268 53.5398 12.963 55.6529 10.8499C57.766 8.73681 59.4298 6.21804 60.5441 3.44519C61.6584 0.672336 62.2002 -2.29729 62.137 -5.285C62.2002 -8.27272 61.6584 -11.2423 60.5441 -14.0152C59.4298 -16.7881 57.766 -19.3068 55.6529 -21.4199C53.5398 -23.533 51.021 -25.1968 48.2482 -26.3111C45.4753 -27.4254 42.5057 -27.9673 39.518 -27.904C36.5217 -27.9703 33.5429 -27.4318 30.7595 -26.3207C27.9761 -25.2096 25.4453 -23.5487 23.3184 -21.4372C21.1915 -19.3257 19.5122 -16.8071 18.3809 -14.0318C17.2496 -11.2565 16.6894 -8.28166 16.734 -5.285C16.6894 -2.28835 17.2496 0.686536 18.3809 3.46179C19.5122 6.23705 21.1915 8.7557 23.3184 10.8672C25.4453 12.9786 27.9761 14.6396 30.7595 15.7507C33.5429 16.8619 36.5217 17.4003 39.518 17.334V17.334Z" stroke="white" stroke-miterlimit="10"/>
<path d="M1 69.946C1 88.467 15.1 106.661 39.518 106.661C63.776 106.661 78.036 88.467 78.036 69.946C78.036 51.425 63.776 33.23 39.518 33.23C15.096 33.234 1 51.424 1 69.946ZM39.518 47.327C42.5057 47.2637 45.4753 47.8056 48.2482 48.9199C51.021 50.0342 53.5398 51.698 55.6529 53.8111C57.766 55.9242 59.4298 58.4429 60.5441 61.2158C61.6584 63.9886 62.2002 66.9583 62.137 69.946C62.2002 72.9337 61.6584 75.9033 60.5441 78.6762C59.4298 81.449 57.766 83.9678 55.6529 86.0809C53.5398 88.194 51.021 89.8578 48.2482 90.9721C45.4753 92.0864 42.5057 92.6282 39.518 92.565C36.5217 92.6313 33.5429 92.0928 30.7595 90.9817C27.9761 89.8706 25.4453 88.2097 23.3184 86.0982C21.1915 83.9867 19.5122 81.468 18.3809 78.6928C17.2496 75.9175 16.6894 72.9426 16.734 69.946C16.6894 66.9493 17.2496 63.9744 18.3809 61.1992C19.5122 58.4239 21.1915 55.9053 23.3184 53.7938C25.4453 51.6823 27.9761 50.0214 30.7595 48.9102C33.5429 47.7991 36.5217 47.2607 39.518 47.327V47.327Z" stroke="white" stroke-miterlimit="10"/>
<path d="M1 145.382C1 126.861 15.1 108.667 39.518 108.667C63.776 108.667 78.036 126.861 78.036 145.382C78.036 163.903 63.776 182.097 39.518 182.097C15.096 182.097 1 163.903 1 145.382ZM39.518 168.001C42.5057 168.064 45.4753 167.522 48.2482 166.408C51.021 165.294 53.5398 163.63 55.6529 161.517C57.766 159.404 59.4298 156.885 60.5441 154.112C61.6584 151.339 62.2002 148.37 62.137 145.382C62.2002 142.394 61.6584 139.425 60.5441 136.652C59.4298 133.879 57.766 131.36 55.6529 129.247C53.5398 127.134 51.021 125.47 48.2482 124.356C45.4753 123.242 42.5057 122.7 39.518 122.763C36.5217 122.697 33.5429 123.235 30.7595 124.346C27.9761 125.457 25.4453 127.118 23.3184 129.23C21.1915 131.341 19.5122 133.86 18.3809 136.635C17.2496 139.41 16.6894 142.385 16.734 145.382C16.6894 148.379 17.2496 151.354 18.3809 154.129C19.5122 156.904 21.1915 159.423 23.3184 161.534C25.4453 163.646 27.9761 165.307 30.7595 166.418C33.5429 167.529 36.5217 168.067 39.518 168.001V168.001Z" stroke="white" stroke-miterlimit="10"/>
<path d="M1 219.715C1 201.194 15.1 183 39.518 183C63.776 183 78.036 201.194 78.036 219.715C78.036 238.236 63.776 256.431 39.518 256.431C15.096 256.434 1 238.234 1 219.715ZM39.518 242.334C42.5057 242.397 45.4753 241.855 48.2482 240.741C51.021 239.627 53.5398 237.963 55.6529 235.85C57.766 233.737 59.4298 231.218 60.5441 228.445C61.6584 225.672 62.2002 222.703 62.137 219.715C62.2002 216.727 61.6584 213.758 60.5441 210.985C59.4298 208.212 57.766 205.693 55.6529 203.58C53.5398 201.467 51.021 199.803 48.2482 198.689C45.4753 197.575 42.5057 197.033 39.518 197.096C36.5217 197.03 33.5429 197.568 30.7595 198.679C27.9761 199.79 25.4453 201.451 23.3184 203.563C21.1915 205.674 19.5122 208.193 18.3809 210.968C17.2496 213.743 16.6894 216.718 16.734 219.715C16.6894 222.712 17.2496 225.687 18.3809 228.462C19.5122 231.237 21.1915 233.756 23.3184 235.867C25.4453 237.979 27.9761 239.64 30.7595 240.751C33.5429 241.862 36.5217 242.4 39.518 242.334V242.334Z" stroke="white" stroke-miterlimit="10"/>
<path d="M1 294.946C1 313.467 15.1 331.661 39.518 331.661C63.776 331.661 78.036 313.467 78.036 294.946C78.036 276.425 63.776 258.23 39.518 258.23C15.096 258.234 1 276.424 1 294.946ZM39.518 272.327C42.5057 272.264 45.4753 272.806 48.2482 273.92C51.021 275.034 53.5398 276.698 55.6529 278.811C57.766 280.924 59.4298 283.443 60.5441 286.216C61.6584 288.989 62.2002 291.958 62.137 294.946C62.2002 297.934 61.6584 300.903 60.5441 303.676C59.4298 306.449 57.766 308.968 55.6529 311.081C53.5398 313.194 51.021 314.858 48.2482 315.972C45.4753 317.086 42.5057 317.628 39.518 317.565C36.5217 317.631 33.5429 317.093 30.7595 315.982C27.9761 314.871 25.4453 313.21 23.3184 311.098C21.1915 308.987 19.5122 306.468 18.3809 303.693C17.2496 300.918 16.6894 297.943 16.734 294.946C16.6894 291.949 17.2496 288.974 18.3809 286.199C19.5122 283.424 21.1915 280.905 23.3184 278.794C25.4453 276.682 27.9761 275.021 30.7595 273.91C33.5429 272.799 36.5217 272.261 39.518 272.327V272.327Z" stroke="white" stroke-miterlimit="10"/>
<path d="M1 370.382C1 351.861 15.1 333.667 39.518 333.667C63.776 333.667 78.036 351.861 78.036 370.382C78.036 388.903 63.776 407.097 39.518 407.097C15.096 407.097 1 388.903 1 370.382ZM39.518 393.001C42.5057 393.064 45.4753 392.522 48.2482 391.408C51.021 390.294 53.5398 388.63 55.6529 386.517C57.766 384.404 59.4298 381.885 60.5441 379.112C61.6584 376.339 62.2002 373.37 62.137 370.382C62.2002 367.394 61.6584 364.425 60.5441 361.652C59.4298 358.879 57.766 356.36 55.6529 354.247C53.5398 352.134 51.021 350.47 48.2482 349.356C45.4753 348.242 42.5057 347.7 39.518 347.763C36.5217 347.697 33.5429 348.235 30.7595 349.346C27.9761 350.457 25.4453 352.118 23.3184 354.23C21.1915 356.341 19.5122 358.86 18.3809 361.635C17.2496 364.41 16.6894 367.385 16.734 370.382C16.6894 373.379 17.2496 376.354 18.3809 379.129C19.5122 381.904 21.1915 384.423 23.3184 386.534C25.4453 388.646 27.9761 390.307 30.7595 391.418C33.5429 392.529 36.5217 393.067 39.518 393.001V393.001Z" stroke="white" stroke-miterlimit="10"/>
<path d="M1 444.715C1 426.194 15.1 408 39.518 408C63.776 408 78.036 426.194 78.036 444.715C78.036 463.236 63.776 481.431 39.518 481.431C15.096 481.434 1 463.234 1 444.715ZM39.518 467.334C42.5057 467.397 45.4753 466.855 48.2482 465.741C51.021 464.627 53.5398 462.963 55.6529 460.85C57.766 458.737 59.4298 456.218 60.5441 453.445C61.6584 450.672 62.2002 447.703 62.137 444.715C62.2002 441.727 61.6584 438.758 60.5441 435.985C59.4298 433.212 57.766 430.693 55.6529 428.58C53.5398 426.467 51.021 424.803 48.2482 423.689C45.4753 422.575 42.5057 422.033 39.518 422.096C36.5217 422.03 33.5429 422.568 30.7595 423.679C27.9761 424.79 25.4453 426.451 23.3184 428.563C21.1915 430.674 19.5122 433.193 18.3809 435.968C17.2496 438.743 16.6894 441.718 16.734 444.715C16.6894 447.712 17.2496 450.687 18.3809 453.462C19.5122 456.237 21.1915 458.756 23.3184 460.867C25.4453 462.979 27.9761 464.64 30.7595 465.751C33.5429 466.862 36.5217 467.4 39.518 467.334V467.334Z" stroke="white" stroke-miterlimit="10"/>
<path d="M1 519.946C1 538.467 15.1 556.661 39.518 556.661C63.776 556.661 78.036 538.467 78.036 519.946C78.036 501.425 63.776 483.23 39.518 483.23C15.096 483.234 1 501.424 1 519.946ZM39.518 497.327C42.5057 497.264 45.4753 497.806 48.2482 498.92C51.021 500.034 53.5398 501.698 55.6529 503.811C57.766 505.924 59.4298 508.443 60.5441 511.216C61.6584 513.989 62.2002 516.958 62.137 519.946C62.2002 522.934 61.6584 525.903 60.5441 528.676C59.4298 531.449 57.766 533.968 55.6529 536.081C53.5398 538.194 51.021 539.858 48.2482 540.972C45.4753 542.086 42.5057 542.628 39.518 542.565C36.5217 542.631 33.5429 542.093 30.7595 540.982C27.9761 539.871 25.4453 538.21 23.3184 536.098C21.1915 533.987 19.5122 531.468 18.3809 528.693C17.2496 525.918 16.6894 522.943 16.734 519.946C16.6894 516.949 17.2496 513.974 18.3809 511.199C19.5122 508.424 21.1915 505.905 23.3184 503.794C25.4453 501.682 27.9761 500.021 30.7595 498.91C33.5429 497.799 36.5217 497.261 39.518 497.327V497.327Z" stroke="white" stroke-miterlimit="10"/>
<path d="M1 595.382C1 576.861 15.1 558.667 39.518 558.667C63.776 558.667 78.036 576.861 78.036 595.382C78.036 613.903 63.776 632.097 39.518 632.097C15.096 632.097 1 613.903 1 595.382ZM39.518 618.001C42.5057 618.064 45.4753 617.522 48.2482 616.408C51.021 615.294 53.5398 613.63 55.6529 611.517C57.766 609.404 59.4298 606.885 60.5441 604.112C61.6584 601.339 62.2002 598.37 62.137 595.382C62.2002 592.394 61.6584 589.425 60.5441 586.652C59.4298 583.879 57.766 581.36 55.6529 579.247C53.5398 577.134 51.021 575.47 48.2482 574.356C45.4753 573.242 42.5057 572.7 39.518 572.763C36.5217 572.697 33.5429 573.235 30.7595 574.346C27.9761 575.457 25.4453 577.118 23.3184 579.23C21.1915 581.341 19.5122 583.86 18.3809 586.635C17.2496 589.41 16.6894 592.385 16.734 595.382C16.6894 598.379 17.2496 601.354 18.3809 604.129C19.5122 606.904 21.1915 609.423 23.3184 611.534C25.4453 613.646 27.9761 615.307 30.7595 616.418C33.5429 617.529 36.5217 618.067 39.518 618.001V618.001Z" stroke="white" stroke-miterlimit="10"/>
</g>
</svg>
