<svg width="177" height="58" viewBox="0 0 177 58" fill="none" xmlns="http://www.w3.org/2000/svg">
<path d="M108.178 8.07275V41.0137C108.178 43.4447 107.212 45.7761 105.493 47.4951C103.774 49.214 101.443 50.1797 99.0119 50.1797C96.581 50.1797 94.2496 49.214 92.5306 47.4951C90.8117 45.7761 89.8459 43.4447 89.8459 41.0137L89.8369 27.4038C88.5024 31.8315 85.5934 35.6176 81.6589 38.0477V41.6138C81.6589 51.9088 89.9349 57.9998 99.0119 57.9998C108 57.9998 116.276 51.9088 116.276 41.6138V8.07275H108.178Z" fill="white"/>
<path d="M69.909 1.56787C83.169 1.56787 90.822 11.4459 90.822 21.5019C90.822 31.5579 83.169 41.4359 69.909 41.4359C56.738 41.4359 48.996 31.5579 48.996 21.5019C48.996 11.4459 56.738 1.56787 69.909 1.56787ZM69.909 33.7819C72.3381 33.7823 74.7127 33.0623 76.7326 31.7131C78.7525 30.3638 80.3269 28.4458 81.2567 26.2018C82.1865 23.9577 82.4299 21.4883 81.9562 19.1058C81.4825 16.7234 80.3129 14.5349 78.5953 12.8172C76.8778 11.0996 74.6894 9.92979 72.307 9.45587C69.9246 8.98196 67.4552 9.22519 65.211 10.1548C62.9669 11.0844 61.0488 12.6587 59.6994 14.6784C58.3499 16.6982 57.6298 19.0728 57.63 21.5019C57.6057 23.1211 57.9067 24.7288 58.5152 26.2296C59.1237 27.7303 60.0272 29.0937 61.1723 30.2389C62.3173 31.384 63.6806 32.2877 65.1814 32.8963C66.6821 33.5049 68.2897 33.806 69.909 33.7819Z" fill="white"/>
<path d="M101.982 19.853L97.756 15.6329L112.387 1.00195L126.992 15.607L122.77 19.829L112.386 9.44495L101.982 19.853Z" fill="white"/>
<path d="M69.909 1.56787C83.169 1.56787 90.822 11.4459 90.822 21.5019C90.822 31.5579 83.169 41.4359 69.909 41.4359C56.738 41.4359 48.996 31.5579 48.996 21.5019C48.996 11.4459 56.738 1.56787 69.909 1.56787ZM69.909 33.7819C72.3381 33.7823 74.7127 33.0623 76.7326 31.7131C78.7525 30.3638 80.3269 28.4458 81.2567 26.2018C82.1865 23.9577 82.4299 21.4883 81.9562 19.1058C81.4825 16.7234 80.3129 14.5349 78.5953 12.8172C76.8778 11.0996 74.6894 9.92979 72.307 9.45587C69.9246 8.98196 67.4552 9.22519 65.211 10.1548C62.9669 11.0844 61.0488 12.6587 59.6994 14.6784C58.3499 16.6982 57.6298 19.0728 57.63 21.5019C57.6057 23.1211 57.9067 24.7288 58.5152 26.2296C59.1237 27.7303 60.0272 29.0937 61.1723 30.2389C62.3173 31.384 63.6806 32.2877 65.1814 32.8963C66.6821 33.5049 68.2897 33.806 69.909 33.7819Z" fill="white"/>
<path d="M41.996 36.928C41.996 50.312 31.664 58.001 20.661 58.001C17.3832 58.0048 14.1441 57.2933 11.1698 55.916C8.19542 54.5388 5.55746 52.529 3.44 50.027L10.616 44.806C11.7526 46.3089 13.2093 47.5401 14.8806 48.4102C16.552 49.2804 18.396 49.7678 20.279 49.837C29.179 49.837 33.672 44.047 33.672 37.876V35.219C31.991 37.2525 29.867 38.8743 27.4626 39.9602C25.0581 41.0462 22.437 41.5674 19.8 41.484C9.276 41.484 0 33.606 0 20.884C0 7.594 9.95 0 20.856 0C26.31 0 30.71 2.088 33.581 5.79H33.681V1.045H42.004L41.996 36.928ZM21.618 33.32C28.698 33.32 33.673 27.72 33.673 20.79C33.6863 17.5544 32.4136 14.446 30.1351 12.1487C27.8565 9.85133 24.7586 8.55326 21.523 8.54C18.2874 8.52674 15.179 9.79937 12.8817 12.0779C10.5843 14.3565 9.28626 17.4544 9.27299 20.69C9.276 27.72 14.156 33.32 21.618 33.32Z" fill="white"/>
<path d="M142.71 7.93423H142.805C144.429 6.01489 146.464 4.48519 148.76 3.45823C151.055 2.43128 153.552 1.93335 156.065 2.00123C169.325 2.00123 176.997 12.7372 176.997 23.1012C176.997 32.9892 168.757 44.2012 155.687 44.2012C149.72 44.2012 145.079 41.6572 142.806 38.2672H142.711V57.0082H133.998V3.03723H142.711L142.71 7.93423ZM155.023 10.1002C152.443 10.0578 149.909 10.7839 147.743 12.1863C145.577 13.5887 143.878 15.6039 142.861 17.9753C141.844 20.3467 141.556 22.967 142.033 25.5027C142.51 28.0384 143.731 30.3747 145.541 32.2143C147.35 34.0538 149.666 35.3134 152.193 35.8326C154.721 36.3518 157.345 36.1071 159.733 35.1298C162.121 34.1524 164.164 32.4866 165.602 30.3444C167.041 28.2022 167.809 25.6804 167.809 23.1002C167.83 19.6829 166.496 16.3964 164.1 13.9601C161.703 11.5237 158.439 10.1359 155.022 10.1002H155.023Z" fill="white"/>
</svg>
