<svg width="51" height="20" viewBox="0 0 51 20" fill="none" xmlns="http://www.w3.org/2000/svg">
<path d="M23.7904 9.72858V15.6249H21.9191V1.06445H26.8798C28.137 1.06445 29.2091 1.48353 30.0862 2.32168C30.9828 3.15983 31.4312 4.18315 31.4312 5.39164C31.4312 6.62937 30.9828 7.65269 30.0862 8.4811C29.2188 9.3095 28.1468 9.71883 26.8798 9.71883H23.7904V9.72858ZM23.7904 2.8577V7.93533H26.9188C27.6595 7.93533 28.2832 7.68193 28.7705 7.18489C29.2676 6.68785 29.5209 6.0836 29.5209 5.40139C29.5209 4.72892 29.2676 4.13442 28.7705 3.63738C28.2832 3.12084 27.6692 2.86745 26.9188 2.86745H23.7904V2.8577Z" fill="#5C6065"/>
<path d="M36.3243 5.33252C37.7082 5.33252 38.7997 5.70286 39.5989 6.44355C40.3981 7.18424 40.7977 8.19782 40.7977 9.48428V15.6242H39.0142V14.2403H38.9362C38.1663 15.3806 37.1332 15.9458 35.8467 15.9458C34.7454 15.9458 33.8293 15.6242 33.0886 14.9712C32.3479 14.3183 31.9776 13.5093 31.9776 12.5348C31.9776 11.5017 32.3674 10.683 33.1471 10.0788C33.9268 9.46479 34.9696 9.16266 36.2658 9.16266C37.3768 9.16266 38.293 9.36733 39.0044 9.77666V9.34784C39.0044 8.69486 38.751 8.14909 38.2345 7.69103C37.7179 7.23297 37.1137 7.00882 36.4217 7.00882C35.3789 7.00882 34.5505 7.44738 33.9463 8.33426L32.2992 7.30119C33.2056 5.98549 34.5505 5.33252 36.3243 5.33252ZM33.9073 12.564C33.9073 13.0513 34.112 13.4606 34.531 13.7822C34.9404 14.1038 35.4277 14.2695 35.9832 14.2695C36.7726 14.2695 37.4743 13.9771 38.0883 13.3924C38.7023 12.8076 39.0142 12.1254 39.0142 11.336C38.4294 10.8779 37.6205 10.644 36.5777 10.644C35.8175 10.644 35.184 10.8292 34.6772 11.1898C34.1607 11.5699 33.9073 12.028 33.9073 12.564Z" fill="#5C6065"/>
<path d="M50.9716 5.6543L44.7342 20.0003H42.8045L45.124 14.9811L41.0113 5.6543H43.0482L46.0109 12.8078H46.0499L48.9347 5.6543H50.9716Z" fill="#5C6065"/>
<path d="M16.3472 8.53844C16.3472 7.92835 16.2926 7.34457 16.1913 6.7832H8.34778V9.99936L12.865 10.0003C12.6818 11.0704 12.0922 11.9827 11.1887 12.5908V14.6774H13.8776C15.4477 13.2243 16.3472 11.0763 16.3472 8.53844Z" fill="#4285F4"/>
<path d="M11.1884 12.5894C10.4399 13.0942 9.47602 13.3895 8.34841 13.3895C6.1702 13.3895 4.32238 11.9218 3.66063 9.94336H0.88694V12.0953C2.26111 14.8222 5.08548 16.6934 8.34841 16.6934C10.6036 16.6934 12.4982 15.9517 13.8773 14.675L11.1884 12.5894Z" fill="#34A853"/>
<path d="M3.40035 8.34838C3.40035 7.79286 3.49293 7.25586 3.66154 6.75102V4.59912H0.887852C0.319665 5.72672 0 6.99954 0 8.34838C0 9.69721 0.320639 10.97 0.887852 12.0976L3.66154 9.94573C3.49293 9.4409 3.40035 8.90389 3.40035 8.34838Z" fill="#FABB05"/>
<path d="M8.34842 3.30387C9.57932 3.30387 10.6816 3.72781 11.5519 4.55622L13.9348 2.17529C12.4875 0.827429 10.6007 0 8.34842 0C5.08646 0 2.26111 1.87122 0.88694 4.59812L3.66063 6.75002C4.32238 4.7716 6.1702 3.30387 8.34842 3.30387Z" fill="#E94235"/>
</svg>
