<svg width="104" height="61" viewBox="0 0 104 61" fill="none" xmlns="http://www.w3.org/2000/svg">
<g filter="url(#filter0_d_1030_7868)">
<path d="M16 12H88V12C88 16.4183 84.4183 20 80 20H24C19.5817 20 16 16.4183 16 12V12Z" fill="#6765C8"/>
</g>
<path d="M63.1213 45.0689L55.5363 37.4829C54.5975 36.5469 53.3259 36.0212 52.0003 36.0212C50.6746 36.0212 49.403 36.5469 48.4643 37.4829L40.8793 45.0689C40.5997 45.3467 40.378 45.6772 40.2271 46.0413C40.0763 46.4053 39.9991 46.7958 40.0003 47.1899V57.0069C40.0003 57.8025 40.3163 58.5656 40.8789 59.1282C41.4415 59.6908 42.2046 60.0069 43.0003 60.0069H61.0003C61.7959 60.0069 62.559 59.6908 63.1216 59.1282C63.6842 58.5656 64.0003 57.8025 64.0003 57.0069V47.1899C64.0014 46.7958 63.9243 46.4053 63.7734 46.0413C63.6225 45.6772 63.4008 45.3467 63.1213 45.0689V45.0689ZM55.0003 58.0069H49.0003V54.0729C49.0003 53.2772 49.3163 52.5142 49.8789 51.9515C50.4415 51.3889 51.2046 51.0729 52.0003 51.0729C52.7959 51.0729 53.559 51.3889 54.1216 51.9515C54.6842 52.5142 55.0003 53.2772 55.0003 54.0729V58.0069ZM62.0003 57.0069C62.0003 57.2721 61.8949 57.5264 61.7074 57.714C61.5198 57.9015 61.2655 58.0069 61.0003 58.0069H57.0003V54.0729C57.0003 52.7468 56.4735 51.475 55.5358 50.5373C54.5981 49.5997 53.3263 49.0729 52.0003 49.0729C50.6742 49.0729 49.4024 49.5997 48.4647 50.5373C47.527 51.475 47.0003 52.7468 47.0003 54.0729V58.0069H43.0003C42.735 58.0069 42.4807 57.9015 42.2931 57.714C42.1056 57.5264 42.0003 57.2721 42.0003 57.0069V47.1899C42.0012 46.9248 42.1064 46.6709 42.2933 46.4829L49.8783 38.8999C50.442 38.3388 51.2049 38.0238 52.0003 38.0238C52.7956 38.0238 53.5586 38.3388 54.1223 38.8999L61.7073 46.4859C61.8933 46.6731 61.9985 46.9259 62.0003 47.1899V57.0069Z" fill="#6765C8"/>
<defs>
<filter id="filter0_d_1030_7868" x="0" y="0" width="104" height="40" filterUnits="userSpaceOnUse" color-interpolation-filters="sRGB">
<feFlood flood-opacity="0" result="BackgroundImageFix"/>
<feColorMatrix in="SourceAlpha" type="matrix" values="0 0 0 0 0 0 0 0 0 0 0 0 0 0 0 0 0 0 127 0" result="hardAlpha"/>
<feOffset dy="4"/>
<feGaussianBlur stdDeviation="8"/>
<feComposite in2="hardAlpha" operator="out"/>
<feColorMatrix type="matrix" values="0 0 0 0 0.137255 0 0 0 0 0.309804 0 0 0 0 0.188235 0 0 0 0.4 0"/>
<feBlend mode="normal" in2="BackgroundImageFix" result="effect1_dropShadow_1030_7868"/>
<feBlend mode="normal" in="SourceGraphic" in2="effect1_dropShadow_1030_7868" result="shape"/>
</filter>
</defs>
</svg>
