<svg width="27" height="27" viewBox="0 0 27 27" fill="none" xmlns="http://www.w3.org/2000/svg">
<rect width="27" height="27" rx="6" fill="#5854CF"/>
<path fill-rule="evenodd" clip-rule="evenodd" d="M7.05873 6.02874C6.55586 6.12748 6.12839 6.56374 6.03093 7.07769C5.98969 7.2951 5.98969 17.0313 6.03093 17.2487C6.1307 17.7748 6.55557 18.1997 7.08167 18.2994C7.17872 18.3179 7.96772 18.3293 9.13384 18.3293H11.0283L11.0954 18.9079C11.2097 19.8931 11.2338 20.022 11.3469 20.2523C11.4584 20.4794 11.7112 20.743 11.9196 20.8492C12.2084 20.9966 12.1376 20.9941 16.0811 20.9946C18.4633 20.9948 19.8163 20.9844 19.9183 20.9651C20.4444 20.8653 20.8693 20.4404 20.9691 19.9143C21.0103 19.6969 21.0103 9.96075 20.9691 9.74334C20.8823 9.28567 20.5801 8.92861 20.1233 8.74378L19.9591 8.67734L16.6497 8.66269L13.3402 8.64805L13.2456 7.88643C13.1935 7.46755 13.1366 7.06717 13.1191 6.99672C13.0407 6.68144 12.7607 6.3166 12.4795 6.16357C12.1746 5.99763 12.1751 5.99766 9.57476 6.00068C8.2617 6.0022 7.1295 6.01482 7.05873 6.02874ZM12.0871 6.9587C12.1397 6.99622 12.2035 7.0672 12.229 7.11641C12.2611 7.17854 12.4669 8.74832 12.9015 12.2477C13.246 15.0207 13.5344 17.3257 13.5424 17.37L13.5571 17.4506H10.3931C7.27975 17.4506 7.22714 17.4496 7.11339 17.3916C7.03896 17.3536 6.97674 17.2914 6.93878 17.217C6.88037 17.1025 6.87981 17.0546 6.87981 12.1632C6.87981 7.2738 6.8804 7.22386 6.93872 7.10953C6.9746 7.0392 7.04042 6.97135 7.10715 6.93597C7.21407 6.87923 7.27327 6.87803 9.60405 6.88418L11.9914 6.89048L12.0871 6.9587ZM9.36971 9.1479C9.15645 9.23695 9.16606 9.2023 8.67731 11.6422C8.42979 12.8778 8.22728 13.9195 8.22728 13.9572C8.22728 14.1591 8.45419 14.3748 8.66668 14.3748C8.8096 14.3748 8.98099 14.2711 9.04262 14.1474C9.07259 14.0872 9.16029 13.7183 9.23754 13.3276L9.37794 12.6172H9.98486H10.5918L10.7322 13.3276C10.8094 13.7183 10.8971 14.0872 10.9271 14.1474C10.9887 14.2711 11.1601 14.3748 11.303 14.3748C11.5155 14.3748 11.7424 14.1591 11.7424 13.9572C11.7424 13.9195 11.5399 12.8778 11.2924 11.6422C10.8011 9.18967 10.814 9.23552 10.5921 9.14644C10.4378 9.08445 9.51901 9.08557 9.36971 9.1479ZM19.8866 9.60045C19.961 9.63841 20.0233 9.70063 20.0612 9.77506C20.1196 9.88957 20.1202 9.93746 20.1202 14.8288C20.1202 19.7202 20.1196 19.7681 20.0612 19.8826C20.0232 19.9571 19.961 20.0193 19.8864 20.0574C19.7719 20.1158 19.7304 20.1164 16.2442 20.109L12.7178 20.1016L13.578 19.1062C14.1588 18.4344 14.4473 18.0783 14.466 18.0104C14.4877 17.9321 14.3809 17.0004 13.9826 13.7916C13.7014 11.5265 13.4665 9.64362 13.4605 9.60739L13.4495 9.54148H16.6103C19.7203 9.54148 19.7729 9.54242 19.8866 9.60045ZM10.2398 10.8597L10.4155 11.7384H9.98486H9.55419L9.72989 10.8597L9.90559 9.98087H9.98486H10.0641L10.2398 10.8597ZM16.8031 11.7988C16.6347 11.8878 16.5758 12.0313 16.5758 12.3524V12.6172H15.8716C15.2236 12.6172 15.1581 12.6219 15.0518 12.6762C14.9218 12.7425 14.8182 12.9113 14.8182 13.0566C14.8182 13.2824 15.0349 13.496 15.264 13.496C15.3568 13.496 15.3634 13.5038 15.4308 13.6937C15.6202 14.227 15.9195 14.785 16.2441 15.2096L16.4009 15.4147L16.2613 15.5418C16.1845 15.6117 15.9492 15.8068 15.7383 15.9753C15.4869 16.1762 15.3382 16.3168 15.3063 16.3838C15.1308 16.7518 15.524 17.1475 15.8815 16.9627C15.982 16.9107 16.3483 16.6245 16.7502 16.2838C16.8865 16.1683 17.0057 16.0738 17.0151 16.0738C17.0246 16.0738 17.1438 16.1683 17.28 16.2838C17.682 16.6245 18.0483 16.9107 18.1488 16.9627C18.4198 17.1028 18.7727 16.8829 18.7727 16.5739C18.7727 16.3981 18.6862 16.2904 18.292 15.9753C18.0811 15.8068 17.8458 15.6117 17.769 15.5418L17.6294 15.4147L17.7862 15.2096C18.1108 14.785 18.4101 14.227 18.5995 13.6937C18.6669 13.5038 18.6735 13.496 18.7663 13.496C18.9954 13.496 19.2121 13.2824 19.2121 13.0566C19.2121 12.9113 19.1085 12.7425 18.9785 12.6762C18.8722 12.6219 18.8067 12.6172 18.1587 12.6172H17.4545V12.3524C17.4545 12.0261 17.3958 11.8866 17.221 11.7974C17.0766 11.7238 16.9444 11.7242 16.8031 11.7988ZM17.7178 13.5326C17.7162 13.6679 17.0913 14.7556 17.0151 14.7556C16.939 14.7556 16.3141 13.6679 16.3125 13.5326C16.3122 13.5043 16.472 13.496 17.0151 13.496C17.5583 13.496 17.7181 13.5043 17.7178 13.5326ZM12.5992 18.8956C12.3293 19.207 12.0954 19.4646 12.0793 19.4678C12.0547 19.4728 11.9271 18.6126 11.9203 18.3952L11.9182 18.3293H12.504H13.0897L12.5992 18.8956Z" fill="white"/>
</svg>
