<svg width="20" height="20" viewBox="0 0 20 20" fill="none" xmlns="http://www.w3.org/2000/svg">
<path d="M11.3824 13.9487L8.93611 16.395C8.22587 17.0862 7.27202 17.4701 6.28095 17.4634C5.28987 17.4568 4.34126 17.0602 3.64035 16.3595C2.93944 15.6588 2.54259 14.7103 2.53567 13.7192C2.52875 12.7281 2.91231 11.7742 3.60337 11.0637L6.04963 8.61524C6.19025 8.47452 6.26921 8.28371 6.26914 8.08477C6.26907 7.88584 6.18998 7.69508 6.04926 7.55447C5.90854 7.41385 5.71773 7.33489 5.51879 7.33496C5.31986 7.33503 5.1291 7.41412 4.98849 7.55484L2.54297 10.0034C1.55477 10.992 0.999801 12.3328 1.00015 13.7307C1.0005 15.1286 1.55615 16.469 2.54485 17.4572C3.53354 18.4454 4.87431 19.0004 6.27219 19.0001C7.67007 18.9997 9.01055 18.4441 9.99875 17.4554L12.445 15.0091C12.5816 14.8677 12.6572 14.6782 12.6555 14.4816C12.6538 14.285 12.5749 14.0969 12.4359 13.9578C12.2968 13.8188 12.1087 13.7399 11.9121 13.7382C11.7155 13.7365 11.5261 13.8121 11.3846 13.9487H11.3824Z" fill="#161C2A" stroke="#161C2A" stroke-width="0.2"/>
<path d="M17.4555 2.54562C16.9675 2.05428 16.3869 1.66466 15.7472 1.39935C15.1075 1.13404 14.4216 0.998308 13.7291 1.00002C13.037 0.99818 12.3513 1.13356 11.7118 1.39834C11.0724 1.66312 10.4917 2.05204 10.0035 2.54262L7.55344 4.98964C7.41272 5.13025 7.33363 5.32101 7.33356 5.51994C7.33349 5.71888 7.41245 5.90969 7.55306 6.05041C7.69368 6.19113 7.88444 6.27022 8.08337 6.27029C8.28231 6.27036 8.47312 6.1914 8.61384 6.05078L11.0624 3.60452C11.4115 3.25329 11.8268 2.97481 12.2843 2.78519C12.7418 2.59558 13.2324 2.4986 13.7276 2.49987C14.4732 2.50012 15.202 2.72143 15.8219 3.13581C16.4418 3.5502 16.9249 4.13906 17.2101 4.82797C17.4954 5.51687 17.57 6.27488 17.4245 7.00617C17.279 7.73747 16.92 8.40922 16.3928 8.93651L13.9466 11.3828C13.8059 11.5235 13.7268 11.7143 13.7268 11.9133C13.7268 12.1123 13.8059 12.3032 13.9466 12.4439C14.0873 12.5846 14.2781 12.6637 14.4771 12.6637C14.6762 12.6637 14.867 12.5846 15.0077 12.4439L17.454 9.99915C18.4409 9.01007 18.9953 7.66995 18.9956 6.2727C18.9959 4.87544 18.442 3.5351 17.4555 2.54562Z" fill="#161C2A" stroke="#161C2A" stroke-width="0.2"/>
<path d="M11.7183 7.21881L7.21869 11.7184C7.14706 11.7876 7.08993 11.8703 7.05063 11.9618C7.01133 12.0533 6.99064 12.1517 6.98977 12.2513C6.98891 12.3508 7.00788 12.4496 7.04559 12.5418C7.0833 12.6339 7.13898 12.7177 7.2094 12.7881C7.27981 12.8585 7.36354 12.9142 7.4557 12.9519C7.54787 12.9896 7.64662 13.0085 7.74619 13.0077C7.84577 13.0068 7.94417 12.9861 8.03567 12.9468C8.12716 12.9075 8.20991 12.8504 8.27909 12.7788L12.7787 8.27921C12.9153 8.13777 12.9909 7.94834 12.9891 7.75171C12.9874 7.55508 12.9086 7.36699 12.7695 7.22795C12.6305 7.08891 12.4424 7.01004 12.2458 7.00833C12.0491 7.00662 11.8597 7.08221 11.7183 7.21881Z" fill="#161C2A" stroke="#161C2A" stroke-width="0.2"/>
</svg>
