<svg width="16" height="20" viewBox="0 0 16 20" fill="none" xmlns="http://www.w3.org/2000/svg">
<path d="M8.383 20H7.717C7.50775 19.9998 7.30381 19.934 7.13392 19.8119C6.96404 19.6897 6.83675 19.5173 6.77 19.319L6.26 17.78C5.70777 16.4731 4.77229 15.3643 3.577 14.6C1.819 13.207 0 11.764 0 8C0 5.87827 0.842855 3.84344 2.34315 2.34315C3.84344 0.842855 5.87827 0 8 0C10.1217 0 12.1566 0.842855 13.6569 2.34315C15.1571 3.84344 16 5.87827 16 8C16 11.756 14.209 13.2 12.476 14.6C11.2932 15.366 10.3733 16.4757 9.84 17.78L9.33 19.32C9.26308 19.5181 9.13572 19.6903 8.96585 19.8123C8.79597 19.9343 8.59213 19.9999 8.383 20ZM8 5C7.40666 5 6.82664 5.17595 6.33329 5.50559C5.83994 5.83524 5.45542 6.30377 5.22836 6.85195C5.0013 7.40013 4.94189 8.00333 5.05764 8.58527C5.1734 9.16721 5.45912 9.70176 5.87868 10.1213C6.29824 10.5409 6.83279 10.8266 7.41473 10.9424C7.99667 11.0581 8.59987 10.9987 9.14805 10.7716C9.69623 10.5446 10.1648 10.1601 10.4944 9.66671C10.8241 9.17336 11 8.59334 11 8C11 7.20435 10.6839 6.44129 10.1213 5.87868C9.55871 5.31607 8.79565 5 8 5Z" fill="#DA0000"/>
</svg>
