<svg width="10" height="10" viewBox="0 0 10 10" fill="none" xmlns="http://www.w3.org/2000/svg">
<g clip-path="url(#clip0_2_18755)">
<path d="M5.00004 2.5C4.67041 2.5 4.34817 2.59775 4.07409 2.78088C3.80001 2.96402 3.58639 3.22432 3.46024 3.52886C3.3341 3.8334 3.30109 4.16852 3.3654 4.49182C3.42971 4.81512 3.58844 5.11209 3.82153 5.34518C4.05462 5.57827 4.35159 5.737 4.67489 5.80131C4.99819 5.86562 5.3333 5.83261 5.63785 5.70647C5.94239 5.58032 6.20269 5.3667 6.38582 5.09262C6.56896 4.81854 6.66671 4.4963 6.66671 4.16667C6.66671 3.72464 6.49111 3.30072 6.17855 2.98816C5.86599 2.67559 5.44207 2.5 5.00004 2.5ZM5.00004 5C4.83522 5 4.67411 4.95113 4.53707 4.85956C4.40003 4.76799 4.29321 4.63784 4.23014 4.48557C4.16707 4.3333 4.15057 4.16574 4.18272 4.00409C4.21487 3.84244 4.29424 3.69396 4.41079 3.57741C4.52733 3.46087 4.67582 3.3815 4.83747 3.34935C4.99912 3.31719 5.16667 3.33369 5.31894 3.39677C5.47122 3.45984 5.60137 3.56665 5.69293 3.70369C5.7845 3.84073 5.83337 4.00185 5.83337 4.16667C5.83337 4.38768 5.74558 4.59964 5.5893 4.75592C5.43302 4.9122 5.22106 5 5.00004 5Z" fill="#EF4444"/>
<path d="M4.99998 10.0003C4.64912 10.0021 4.30294 9.91985 3.99042 9.76037C3.6779 9.60088 3.40814 9.36884 3.20373 9.08368C1.61581 6.89326 0.810394 5.2466 0.810394 4.1891C0.810394 3.07795 1.2518 2.01231 2.03749 1.22661C2.82319 0.440913 3.88883 -0.000488281 4.99998 -0.000488281C6.11112 -0.000488281 7.17676 0.440913 7.96246 1.22661C8.74816 2.01231 9.18956 3.07795 9.18956 4.1891C9.18956 5.2466 8.38414 6.89326 6.79623 9.08368C6.59181 9.36884 6.32205 9.60088 6.00953 9.76037C5.69701 9.91985 5.35083 10.0021 4.99998 10.0003ZM4.99998 0.909095C4.13015 0.910088 3.29623 1.25606 2.68117 1.87113C2.06611 2.48619 1.72014 3.3201 1.71914 4.18993C1.71914 5.02743 2.50789 6.57618 3.93956 8.55076C4.0611 8.71817 4.22055 8.85442 4.40486 8.94837C4.58917 9.04232 4.7931 9.0913 4.99998 9.0913C5.20685 9.0913 5.41079 9.04232 5.5951 8.94837C5.77941 8.85442 5.93885 8.71817 6.06039 8.55076C7.49206 6.57618 8.28081 5.02743 8.28081 4.18993C8.27982 3.3201 7.93384 2.48619 7.31878 1.87113C6.70372 1.25606 5.8698 0.910088 4.99998 0.909095Z" fill="#EF4444"/>
</g>
<defs>
<clipPath id="clip0_2_18755">
<rect width="10" height="10" fill="white"/>
</clipPath>
</defs>
</svg>
