<svg width="18" height="18" viewBox="0 0 18 18" fill="none" xmlns="http://www.w3.org/2000/svg">
<path d="M9.99158 0H7.99036V10.0016H9.99158V0ZM14.8221 2.17074L13.4015 3.59139C14.2114 4.24097 14.8649 5.06448 15.3134 6.00091C15.7619 6.93735 15.9939 7.96269 15.9922 9.00098C15.9937 10.1829 15.6959 11.346 15.1267 12.3818C14.5574 13.4177 13.7352 14.2925 12.7366 14.9248C11.738 15.5572 10.5956 15.9264 9.41583 15.9981C8.23606 16.0698 7.05734 15.8417 5.98951 15.335C4.92169 14.8283 3.99953 14.0595 3.30897 13.1003C2.61841 12.141 2.18193 11.0226 2.04022 9.84918C1.89851 8.67576 2.05617 7.48556 2.49852 6.38951C2.94087 5.29346 3.6535 4.32724 4.56999 3.58089L3.15984 2.17074C2.0125 3.15074 1.13023 4.40372 0.594299 5.81423C0.0583642 7.22475 -0.114 8.74746 0.0930822 10.2421C0.300165 11.7367 0.880036 13.1552 1.77928 14.3669C2.67852 15.5785 3.86822 16.5444 5.23878 17.1756C6.60934 17.8067 8.1167 18.0828 9.62198 17.9785C11.1273 17.8741 12.5821 17.3926 13.8524 16.5783C15.1228 15.764 16.1678 14.6432 16.8912 13.319C17.6146 11.9948 17.9931 10.5099 17.992 9.00098C17.9926 7.70038 17.7093 6.41531 17.1618 5.23556C16.6143 4.05582 15.8158 3.00985 14.8221 2.17074Z" fill="white"/>
</svg>
