<svg width="4" height="16" viewBox="0 0 4 16" fill="none" xmlns="http://www.w3.org/2000/svg">
<path d="M-3.41715e-07 2C-3.59005e-07 2.39556 0.117298 2.78224 0.33706 3.11114C0.556823 3.44004 0.869181 3.69638 1.23463 3.84776C1.60009 3.99913 2.00222 4.03874 2.39018 3.96157C2.77814 3.8844 3.13451 3.69392 3.41421 3.41421C3.69392 3.13451 3.8844 2.77814 3.96157 2.39018C4.03874 2.00222 3.99913 1.60008 3.84776 1.23463C3.69638 0.869181 3.44004 0.556823 3.11114 0.33706C2.78224 0.117297 2.39556 -7.01322e-08 2 -8.74228e-08C1.46957 -1.10609e-07 0.960859 0.210713 0.585786 0.585786C0.210713 0.960858 -3.18529e-07 1.46957 -3.41715e-07 2ZM-6.03983e-07 8C-6.21274e-07 8.39556 0.117297 8.78224 0.33706 9.11114C0.556823 9.44004 0.86918 9.69638 1.23463 9.84776C1.60008 9.99913 2.00222 10.0387 2.39018 9.96157C2.77814 9.8844 3.13451 9.69392 3.41421 9.41421C3.69392 9.13451 3.8844 8.77814 3.96157 8.39018C4.03874 8.00222 3.99913 7.60008 3.84776 7.23463C3.69638 6.86918 3.44004 6.55682 3.11114 6.33706C2.78224 6.1173 2.39556 6 2 6C1.46957 6 0.960859 6.21071 0.585786 6.58579C0.210713 6.96086 -5.80797e-07 7.46957 -6.03983e-07 8ZM-8.66251e-07 14C-8.83542e-07 14.3956 0.117297 14.7822 0.33706 15.1111C0.556823 15.44 0.86918 15.6964 1.23463 15.8478C1.60008 15.9991 2.00222 16.0387 2.39018 15.9616C2.77814 15.8844 3.13451 15.6939 3.41421 15.4142C3.69392 15.1345 3.8844 14.7781 3.96157 14.3902C4.03874 14.0022 3.99913 13.6001 3.84776 13.2346C3.69638 12.8692 3.44004 12.5568 3.11114 12.3371C2.78224 12.1173 2.39556 12 2 12C1.46957 12 0.960858 12.2107 0.585786 12.5858C0.210713 12.9609 -8.43066e-07 13.4696 -8.66251e-07 14Z" fill="#161C2A"/>
</svg>
