<svg width="27" height="27" viewBox="0 0 27 27" fill="none" xmlns="http://www.w3.org/2000/svg">
<rect width="27" height="27" rx="6" fill="#6765C8"/>
<path d="M11.3333 15.1667L16.3333 10.1667M11.75 10.5833H11.7584M15.9167 14.75H15.925M19.6667 21V7.66667C19.6667 6.74619 18.9205 6 18 6H9.66667C8.74619 6 8 6.74619 8 7.66667V21L10.9167 19.3333L13.8333 21L16.75 19.3333L19.6667 21ZM12.1667 10.5833C12.1667 10.8135 11.9801 11 11.75 11C11.5199 11 11.3333 10.8135 11.3333 10.5833C11.3333 10.3532 11.5199 10.1667 11.75 10.1667C11.9801 10.1667 12.1667 10.3532 12.1667 10.5833ZM16.3333 14.75C16.3333 14.9801 16.1468 15.1667 15.9167 15.1667C15.6865 15.1667 15.5 14.9801 15.5 14.75C15.5 14.5199 15.6865 14.3333 15.9167 14.3333C16.1468 14.3333 16.3333 14.5199 16.3333 14.75Z" stroke="white" stroke-width="1.3" stroke-linecap="round" stroke-linejoin="round"/>
</svg>
