<svg width="27" height="27" viewBox="0 0 27 27" fill="none" xmlns="http://www.w3.org/2000/svg">
<rect width="27" height="27" rx="6" fill="#EB9B38"/>
<path d="M11.793 14.707C11.5391 14.4532 11.1276 14.4532 10.8737 14.707C10.6199 14.9609 10.6199 15.3724 10.8737 15.6263L11.793 14.707ZM13 16.8333L12.5404 17.293C12.7942 17.5468 13.2058 17.5468 13.4596 17.293L13 16.8333ZM16.793 13.9596C17.0468 13.7058 17.0468 13.2942 16.793 13.0404C16.5391 12.7865 16.1276 12.7865 15.8737 13.0404L16.793 13.9596ZM19.0167 9.33333V19.3333H20.3167V9.33333H19.0167ZM18 20.35H9.66667V21.65H18V20.35ZM8.65 19.3333V9.33333H7.35V19.3333H8.65ZM9.66667 8.31667H11.3333V7.01667H9.66667V8.31667ZM16.3333 8.31667H18V7.01667H16.3333V8.31667ZM9.66667 20.35C9.10518 20.35 8.65 19.8948 8.65 19.3333H7.35C7.35 20.6128 8.38721 21.65 9.66667 21.65V20.35ZM19.0167 19.3333C19.0167 19.8948 18.5615 20.35 18 20.35V21.65C19.2795 21.65 20.3167 20.6128 20.3167 19.3333H19.0167ZM20.3167 9.33333C20.3167 8.05387 19.2795 7.01667 18 7.01667V8.31667C18.5615 8.31667 19.0167 8.77184 19.0167 9.33333H20.3167ZM8.65 9.33333C8.65 8.77184 9.10518 8.31667 9.66667 8.31667V7.01667C8.38721 7.01667 7.35 8.05387 7.35 9.33333H8.65ZM10.8737 15.6263L12.5404 17.293L13.4596 16.3737L11.793 14.707L10.8737 15.6263ZM13.4596 17.293L16.793 13.9596L15.8737 13.0404L12.5404 16.3737L13.4596 17.293ZM13 6.65H14.6667V5.35H13V6.65ZM14.6667 8.68333H13V9.98333H14.6667V8.68333ZM13 8.68333C12.4385 8.68333 11.9833 8.22816 11.9833 7.66667H10.6833C10.6833 8.94613 11.7205 9.98333 13 9.98333V8.68333ZM15.6833 7.66667C15.6833 8.22816 15.2282 8.68333 14.6667 8.68333V9.98333C15.9461 9.98333 16.9833 8.94613 16.9833 7.66667H15.6833ZM14.6667 6.65C15.2282 6.65 15.6833 7.10518 15.6833 7.66667H16.9833C16.9833 6.38721 15.9461 5.35 14.6667 5.35V6.65ZM13 5.35C11.7205 5.35 10.6833 6.38721 10.6833 7.66667H11.9833C11.9833 7.10518 12.4385 6.65 13 6.65V5.35Z" fill="white"/>
</svg>
