<svg width="24" height="24" viewBox="0 0 24 24" fill="none" xmlns="http://www.w3.org/2000/svg">
<path d="M17.1853 7.79583L17.086 7.88333H17.2183H18.6667C19.5375 7.88333 20.3726 8.22925 20.9883 8.845C21.6041 9.46074 21.95 10.2959 21.95 11.1667V12C21.95 12.4288 21.7797 12.84 21.4765 13.1432C21.1733 13.4463 20.7621 13.6167 20.3333 13.6167H20.2833V13.6667V17.8333C20.282 18.9247 19.8479 19.971 19.0761 20.7428C18.3044 21.5145 17.258 21.9487 16.1666 21.95H7.83339C6.74197 21.9487 5.69562 21.5145 4.92387 20.7428C4.15212 19.971 3.71797 18.9247 3.71667 17.8333V13.6667V13.6167H3.66667C3.2379 13.6167 2.82669 13.4463 2.52351 13.1432C2.22033 12.84 2.05 12.4288 2.05 12V11.1667C2.05 10.2959 2.39592 9.46074 3.01167 8.845C3.62741 8.22925 4.46254 7.88333 5.33333 7.88333H6.78167H6.914L6.81473 7.79583C6.34906 7.38534 5.97943 6.87741 5.73205 6.30807C5.48468 5.73873 5.36561 5.12193 5.38331 4.50143L5.38333 4.50143V4.5C5.38333 4.29225 5.46586 4.093 5.61277 3.9461C5.75967 3.7992 5.95891 3.71667 6.16667 3.71667C6.37442 3.71667 6.57366 3.7992 6.72057 3.9461C6.86747 4.093 6.95 4.29225 6.95 4.5C6.95 5.61057 7.45339 6.36025 8.14636 6.86307C8.83707 7.36424 9.71531 7.61996 10.4698 7.75011L10.5736 7.76801L10.5219 7.67627C9.97121 6.69989 9.63958 5.61538 9.55 4.49802C9.55053 3.84895 9.80859 3.22659 10.2676 2.76759C10.7271 2.30812 11.3502 2.05 12 2.05C12.6498 2.05 13.2729 2.30812 13.7324 2.76759C14.1914 3.22659 14.4495 3.84895 14.45 4.49802C14.3604 5.61538 14.0288 6.69989 13.4781 7.67627L13.4264 7.76801L13.5302 7.75011C14.2847 7.61996 15.1629 7.36424 15.8536 6.86307C16.5466 6.36025 17.05 5.61057 17.05 4.5C17.05 4.29225 17.1325 4.093 17.2794 3.9461C17.4263 3.7992 17.6256 3.71667 17.8333 3.71667C18.0411 3.71667 18.2403 3.7992 18.3872 3.9461C18.5341 4.093 18.6167 4.29225 18.6166 4.5L18.6167 4.50143C18.6344 5.12193 18.5153 5.73873 18.2679 6.30807C18.0206 6.87741 17.6509 7.38534 17.1853 7.79583ZM12.883 4.50564L12.8833 4.50568V4.5C12.8833 4.26573 12.7903 4.04105 12.6246 3.87539C12.459 3.70973 12.2343 3.61667 12 3.61667C11.7657 3.61667 11.541 3.70973 11.3754 3.87539C11.2097 4.04105 11.1167 4.26573 11.1167 4.5H11.1163L11.117 4.50564C11.2184 5.39823 11.5044 6.25995 11.9568 7.03602L12 7.11011L12.0432 7.03602C12.4956 6.25995 12.7816 5.39823 12.883 4.50564ZM11.2167 9.5V9.45H11.1667H5.33333C4.87804 9.45 4.4414 9.63086 4.11947 9.9528C3.79753 10.2747 3.61667 10.7114 3.61667 11.1667V12V12.05H3.66667H11.1667H11.2167V12V9.5ZM5.33333 13.6167H5.28333V13.6667V17.8333C5.28333 18.5096 5.55199 19.1582 6.03021 19.6365C6.50843 20.1147 7.15703 20.3833 7.83333 20.3833H11.1667H11.2167V20.3333V13.6667V13.6167H11.1667H5.33333ZM12.7833 20.3333V20.3833H12.8333H16.1667C16.843 20.3833 17.4916 20.1147 17.9698 19.6365C18.448 19.1582 18.7167 18.5096 18.7167 17.8333V13.6667V13.6167H18.6667H12.8333H12.7833V13.6667V20.3333ZM12.7833 12V12.05H12.8333H20.3333H20.3833V12V11.1667C20.3833 10.7114 20.2025 10.2747 19.8805 9.9528C19.5586 9.63086 19.122 9.45 18.6667 9.45H12.8333H12.7833V9.5V12Z" fill="#161C2A" stroke="white" stroke-width="0.1"/>
</svg>
