<svg width="27" height="27" viewBox="0 0 27 27" fill="none" xmlns="http://www.w3.org/2000/svg">
<rect width="27" height="27" rx="6" fill="#6DC66A"/>
<path d="M8.66161 17.375C9.18341 17.375 9.60642 16.952 9.60642 16.4302C9.60642 15.9084 9.18341 15.4854 8.66161 15.4854C8.1398 15.4854 7.7168 15.9084 7.7168 16.4302C7.7168 16.952 8.1398 17.375 8.66161 17.375Z" fill="white"/>
<path d="M18.4597 7H8.54267C8.06768 7.00418 7.59829 7.103 7.16193 7.29069C6.72558 7.47838 6.33101 7.75116 6.00129 8.0931C5.67158 8.43504 5.41333 8.83927 5.24165 9.28217C5.06996 9.72506 4.98829 10.1977 5.00139 10.6726V16.5489C4.98813 17.0238 5.06969 17.4966 5.2413 17.9397C5.41291 18.3827 5.67114 18.7871 6.00087 19.1291C6.3306 19.4712 6.72522 19.7441 7.16165 19.9319C7.59809 20.1196 8.06758 20.2185 8.54267 20.2227H18.4597C18.9346 20.2182 19.4038 20.1191 19.84 19.9312C20.2761 19.7433 20.6705 19.4704 21 19.1283C21.3294 18.7863 21.5874 18.382 21.7589 17.9391C21.9304 17.4963 22.0119 17.0236 21.9986 16.5489V10.6726C22.0117 10.1979 21.9301 9.72545 21.7586 9.28271C21.587 8.83996 21.329 8.43584 20.9995 8.09393C20.6701 7.75202 20.2758 7.47919 19.8397 7.29136C19.4036 7.10354 18.9345 7.00449 18.4597 7V7ZM8.54267 8.46879H18.4597C18.7454 8.46876 19.0283 8.52633 19.2913 8.63807C19.5543 8.74981 19.7922 8.91342 19.9905 9.11913C20.1889 9.32483 20.3438 9.56842 20.4459 9.83532C20.548 10.1022 20.5953 10.387 20.5849 10.6726H6.41861C6.40821 10.3871 6.45545 10.1024 6.5575 9.8356C6.65956 9.56877 6.81433 9.32524 7.01258 9.11955C7.21083 8.91386 7.44849 8.75022 7.71138 8.63842C7.97427 8.52661 8.257 8.46892 8.54267 8.46879V8.46879ZM18.4597 18.7527H8.54267C8.2569 18.7527 7.97405 18.6952 7.71102 18.5834C7.44799 18.4717 7.21019 18.3081 7.01181 18.1024C6.81344 17.8967 6.65856 17.6531 6.55644 17.3862C6.45431 17.1193 6.40704 16.8345 6.41744 16.5489V12.1425H20.5849V16.5501C20.5951 16.8356 20.5477 17.1202 20.4456 17.387C20.3434 17.6537 20.1885 17.8972 19.9901 18.1028C19.7917 18.3083 19.554 18.4719 19.291 18.5835C19.0281 18.6952 18.7453 18.7527 18.4597 18.7527V18.7527Z" fill="white"/>
</svg>
