<svg width="48" height="48" viewBox="0 0 48 48" fill="none" xmlns="http://www.w3.org/2000/svg">
<path d="M24 48C10.7452 48 0 37.2548 0 24C0 10.7452 10.7452 0 24 0C37.2548 0 48 10.7452 48 24C48 37.2548 37.2548 48 24 48Z" fill="#6765C8"/>
<path d="M24 47C11.2975 47 1 36.7025 1 24C1 11.2975 11.2975 1 24 1C36.7025 1 47 11.2975 47 24C47 36.7025 36.7025 47 24 47Z" stroke="white" stroke-width="2"/>
<g clip-path="url(#clip0_2_18921)">
<path d="M29.8333 16.5H18.1667C17.062 16.5013 16.003 16.9407 15.2218 17.7218C14.4407 18.503 14.0013 19.562 14 20.6667H34C33.9987 19.562 33.5593 18.503 32.7782 17.7218C31.997 16.9407 30.938 16.5013 29.8333 16.5Z" fill="white"/>
<path d="M14 27.333C14.0013 28.4377 14.4407 29.4967 15.2218 30.2778C16.003 31.0589 17.062 31.4983 18.1667 31.4997H29.8333C30.938 31.4983 31.997 31.0589 32.7782 30.2778C33.5593 29.4967 33.9987 28.4377 34 27.333V22.333H14V27.333ZM19.8333 26.9163C19.8333 27.1636 19.76 27.4052 19.6227 27.6108C19.4853 27.8164 19.2901 27.9766 19.0617 28.0712C18.8333 28.1658 18.5819 28.1905 18.3395 28.1423C18.097 28.0941 17.8743 27.975 17.6994 27.8002C17.5246 27.6254 17.4056 27.4027 17.3574 27.1602C17.3091 26.9177 17.3339 26.6664 17.4285 26.438C17.5231 26.2096 17.6833 26.0144 17.8889 25.877C18.0944 25.7396 18.3361 25.6663 18.5833 25.6663C18.9149 25.6663 19.2328 25.798 19.4672 26.0325C19.7016 26.2669 19.8333 26.5848 19.8333 26.9163Z" fill="white"/>
</g>
<defs>
<clipPath id="clip0_2_18921">
<rect width="20" height="20" fill="white" transform="translate(14 14)"/>
</clipPath>
</defs>
</svg>
