<svg width="27" height="27" viewBox="0 0 27 27" fill="none" xmlns="http://www.w3.org/2000/svg">
<rect width="27" height="27" rx="6" fill="#EB9B38"/>
<path d="M17.6131 7.33789L13.6975 6.03227C13.5693 5.98957 13.4307 5.98957 13.3025 6.03227L9.38688 7.33789C8.76432 7.5447 8.22276 7.94243 7.83915 8.47459C7.45555 9.00675 7.2494 9.64626 7.25 10.3023V13.5004C7.25 18.2273 13 20.8379 13.2463 20.9466C13.3261 20.9821 13.4126 21.0005 13.5 21.0005C13.5874 21.0005 13.6739 20.9821 13.7538 20.9466C14 20.8379 19.75 18.2273 19.75 13.5004V10.3023C19.7506 9.64626 19.5445 9.00675 19.1608 8.47459C18.7772 7.94243 18.2357 7.5447 17.6131 7.33789V7.33789ZM18.5 13.5004C18.5 16.9098 14.5506 19.146 13.5 19.681C12.4481 19.1479 8.5 16.9185 8.5 13.5004V10.3023C8.50004 9.90869 8.62392 9.52511 8.8541 9.20586C9.08429 8.88661 9.40909 8.64789 9.7825 8.52352L13.5 7.28414L17.2175 8.52352C17.5909 8.64789 17.9157 8.88661 18.1459 9.20586C18.3761 9.52511 18.5 9.90869 18.5 10.3023V13.5004Z" fill="white"/>
</svg>
