<svg width="15" height="16" viewBox="0 0 15 16" fill="none" xmlns="http://www.w3.org/2000/svg">
<path fill-rule="evenodd" clip-rule="evenodd" d="M4.79922 4C4.79922 2.67451 5.87373 1.6 7.19922 1.6C8.5247 1.6 9.59921 2.67451 9.59921 4C9.59921 5.32548 8.5247 6.4 7.19922 6.4C5.87373 6.4 4.79922 5.32548 4.79922 4ZM7.19922 0C4.99008 0 3.19922 1.79086 3.19922 4C3.19922 6.20913 4.99008 7.99999 7.19922 7.99999C9.40835 7.99999 11.1992 6.20913 11.1992 4C11.1992 1.79086 9.40835 0 7.19922 0ZM4 9.59993C2.93913 9.59993 1.92172 10.0214 1.17157 10.7715C0.421427 11.5217 0 12.5391 0 13.5999V15.1999C0 15.6418 0.358172 15.9999 0.799999 15.9999C1.24183 15.9999 1.6 15.6418 1.6 15.1999V13.5999C1.6 12.9634 1.85285 12.353 2.30294 11.9029C2.75303 11.4528 3.36348 11.1999 4 11.1999H10.4C11.0365 11.1999 11.647 11.4528 12.097 11.9029C12.5471 12.353 12.8 12.9634 12.8 13.5999V15.1999C12.8 15.6418 13.1582 15.9999 13.6 15.9999C14.0418 15.9999 14.4 15.6418 14.4 15.1999V13.5999C14.4 12.5391 13.9786 11.5217 13.2284 10.7715C12.4783 10.0214 11.4609 9.59993 10.4 9.59993H4Z" fill="#BCBCBC"/>
</svg>
