<svg width="104" height="75" viewBox="0 0 104 75" fill="none" xmlns="http://www.w3.org/2000/svg">
<g filter="url(#filter0_d_1030_7871)">
<path d="M16 12H88V12C88 16.4183 84.4183 20 80 20H24C19.5817 20 16 16.4183 16 12V12Z" fill="#6765C8"/>
</g>
<g filter="url(#filter1_d_1030_7871)">
<mask id="path-2-inside-1_1030_7871" fill="white">
<path fill-rule="evenodd" clip-rule="evenodd" d="M48.1988 42C48.1988 40.0118 49.8106 38.4 51.7988 38.4C53.787 38.4 55.3988 40.0118 55.3988 42C55.3988 43.9882 53.787 45.6 51.7988 45.6C49.8106 45.6 48.1988 43.9882 48.1988 42ZM51.7988 36C48.4851 36 45.7988 38.6863 45.7988 42C45.7988 45.3137 48.4851 48 51.7988 48C55.1125 48 57.7988 45.3137 57.7988 42C57.7988 38.6863 55.1125 36 51.7988 36ZM47 50.4004C45.4087 50.4004 43.8826 51.0325 42.7574 52.1577C41.6321 53.283 41 54.8091 41 56.4004V58.8004C41 59.4631 41.5373 60.0004 42.2 60.0004C42.8627 60.0004 43.4 59.4631 43.4 58.8004V56.4004C43.4 55.4456 43.7793 54.5299 44.4544 53.8548C45.1295 53.1797 46.0452 52.8004 47 52.8004H56.6C57.5548 52.8004 58.4704 53.1797 59.1456 53.8548C59.8207 54.5299 60.2 55.4456 60.2 56.4004V58.8004C60.2 59.4631 60.7372 60.0004 61.4 60.0004C62.0627 60.0004 62.6 59.4631 62.6 58.8004V56.4004C62.6 54.8091 61.9678 53.283 60.8426 52.1577C59.7174 51.0325 58.1913 50.4004 56.6 50.4004H47Z"/>
</mask>
<path fill-rule="evenodd" clip-rule="evenodd" d="M48.1988 42C48.1988 40.0118 49.8106 38.4 51.7988 38.4C53.787 38.4 55.3988 40.0118 55.3988 42C55.3988 43.9882 53.787 45.6 51.7988 45.6C49.8106 45.6 48.1988 43.9882 48.1988 42ZM51.7988 36C48.4851 36 45.7988 38.6863 45.7988 42C45.7988 45.3137 48.4851 48 51.7988 48C55.1125 48 57.7988 45.3137 57.7988 42C57.7988 38.6863 55.1125 36 51.7988 36ZM47 50.4004C45.4087 50.4004 43.8826 51.0325 42.7574 52.1577C41.6321 53.283 41 54.8091 41 56.4004V58.8004C41 59.4631 41.5373 60.0004 42.2 60.0004C42.8627 60.0004 43.4 59.4631 43.4 58.8004V56.4004C43.4 55.4456 43.7793 54.5299 44.4544 53.8548C45.1295 53.1797 46.0452 52.8004 47 52.8004H56.6C57.5548 52.8004 58.4704 53.1797 59.1456 53.8548C59.8207 54.5299 60.2 55.4456 60.2 56.4004V58.8004C60.2 59.4631 60.7372 60.0004 61.4 60.0004C62.0627 60.0004 62.6 59.4631 62.6 58.8004V56.4004C62.6 54.8091 61.9678 53.283 60.8426 52.1577C59.7174 51.0325 58.1913 50.4004 56.6 50.4004H47Z" fill="#6765C8"/>
<path d="M42.7574 52.1577L42.6159 52.0163L42.6159 52.0163L42.7574 52.1577ZM44.4544 53.8548L44.313 53.7134L44.313 53.7134L44.4544 53.8548ZM59.1456 53.8548L59.287 53.7134L59.287 53.7134L59.1456 53.8548ZM60.8426 52.1577L60.984 52.0163L60.984 52.0163L60.8426 52.1577ZM51.7988 38.2C49.7001 38.2 47.9988 39.9013 47.9988 42H48.3988C48.3988 40.1222 49.9211 38.6 51.7988 38.6V38.2ZM55.5988 42C55.5988 39.9013 53.8975 38.2 51.7988 38.2V38.6C53.6766 38.6 55.1988 40.1222 55.1988 42H55.5988ZM51.7988 45.8C53.8975 45.8 55.5988 44.0987 55.5988 42H55.1988C55.1988 43.8778 53.6766 45.4 51.7988 45.4V45.8ZM47.9988 42C47.9988 44.0987 49.7001 45.8 51.7988 45.8V45.4C49.9211 45.4 48.3988 43.8778 48.3988 42H47.9988ZM45.9988 42C45.9988 38.7967 48.5956 36.2 51.7988 36.2V35.8C48.3747 35.8 45.5988 38.5758 45.5988 42H45.9988ZM51.7988 47.8C48.5956 47.8 45.9988 45.2032 45.9988 42H45.5988C45.5988 45.4242 48.3747 48.2 51.7988 48.2V47.8ZM57.5988 42C57.5988 45.2032 55.0021 47.8 51.7988 47.8V48.2C55.223 48.2 57.9988 45.4242 57.9988 42H57.5988ZM51.7988 36.2C55.0021 36.2 57.5988 38.7967 57.5988 42H57.9988C57.9988 38.5758 55.223 35.8 51.7988 35.8V36.2ZM42.8988 52.2992C43.9865 51.2115 45.4617 50.6004 47 50.6004V50.2004C45.3557 50.2004 43.7787 50.8536 42.6159 52.0163L42.8988 52.2992ZM41.2 56.4004C41.2 54.8621 41.8111 53.3869 42.8988 52.2992L42.6159 52.0163C41.4532 53.1791 40.8 54.756 40.8 56.4004H41.2ZM41.2 58.8004V56.4004H40.8V58.8004H41.2ZM42.2 59.8004C41.6477 59.8004 41.2 59.3527 41.2 58.8004H40.8C40.8 59.5736 41.4268 60.2004 42.2 60.2004V59.8004ZM43.2 58.8004C43.2 59.3527 42.7523 59.8004 42.2 59.8004V60.2004C42.9732 60.2004 43.6 59.5736 43.6 58.8004H43.2ZM43.2 56.4004V58.8004H43.6V56.4004H43.2ZM44.313 53.7134C43.6004 54.426 43.2 55.3926 43.2 56.4004H43.6C43.6 55.4987 43.9582 54.6338 44.5958 53.9962L44.313 53.7134ZM47 52.6004C45.9922 52.6004 45.0256 53.0007 44.313 53.7134L44.5958 53.9962C45.2335 53.3586 46.0983 53.0004 47 53.0004V52.6004ZM56.6 52.6004H47V53.0004H56.6V52.6004ZM59.287 53.7134C58.5744 53.0007 57.6078 52.6004 56.6 52.6004V53.0004C57.5017 53.0004 58.3665 53.3586 59.0041 53.9962L59.287 53.7134ZM60.4 56.4004C60.4 55.3926 59.9996 54.426 59.287 53.7134L59.0041 53.9962C59.6418 54.6338 60 55.4987 60 56.4004H60.4ZM60.4 58.8004V56.4004H60V58.8004H60.4ZM61.4 59.8004C60.8477 59.8004 60.4 59.3527 60.4 58.8004H60C60 59.5736 60.6268 60.2004 61.4 60.2004V59.8004ZM62.4 58.8004C62.4 59.3527 61.9523 59.8004 61.4 59.8004V60.2004C62.1732 60.2004 62.8 59.5736 62.8 58.8004H62.4ZM62.4 56.4004V58.8004H62.8V56.4004H62.4ZM60.7012 52.2992C61.7889 53.3869 62.4 54.8621 62.4 56.4004H62.8C62.8 54.756 62.1468 53.1791 60.984 52.0163L60.7012 52.2992ZM56.6 50.6004C58.1382 50.6004 59.6135 51.2115 60.7012 52.2992L60.984 52.0163C59.8213 50.8536 58.2443 50.2004 56.6 50.2004V50.6004ZM47 50.6004H56.6V50.2004H47V50.6004Z" fill="white" mask="url(#path-2-inside-1_1030_7871)"/>
</g>
<defs>
<filter id="filter0_d_1030_7871" x="0" y="0" width="104" height="40" filterUnits="userSpaceOnUse" color-interpolation-filters="sRGB">
<feFlood flood-opacity="0" result="BackgroundImageFix"/>
<feColorMatrix in="SourceAlpha" type="matrix" values="0 0 0 0 0 0 0 0 0 0 0 0 0 0 0 0 0 0 127 0" result="hardAlpha"/>
<feOffset dy="4"/>
<feGaussianBlur stdDeviation="8"/>
<feComposite in2="hardAlpha" operator="out"/>
<feColorMatrix type="matrix" values="0 0 0 0 0.137255 0 0 0 0 0.309804 0 0 0 0 0.188235 0 0 0 0.4 0"/>
<feBlend mode="normal" in2="BackgroundImageFix" result="effect1_dropShadow_1030_7871"/>
<feBlend mode="normal" in="SourceGraphic" in2="effect1_dropShadow_1030_7871" result="shape"/>
</filter>
<filter id="filter1_d_1030_7871" x="30" y="29" width="43.6001" height="46.0004" filterUnits="userSpaceOnUse" color-interpolation-filters="sRGB">
<feFlood flood-opacity="0" result="BackgroundImageFix"/>
<feColorMatrix in="SourceAlpha" type="matrix" values="0 0 0 0 0 0 0 0 0 0 0 0 0 0 0 0 0 0 127 0" result="hardAlpha"/>
<feOffset dy="4"/>
<feGaussianBlur stdDeviation="5.5"/>
<feComposite in2="hardAlpha" operator="out"/>
<feColorMatrix type="matrix" values="0 0 0 0 0.137255 0 0 0 0 0.309804 0 0 0 0 0.188235 0 0 0 0.3 0"/>
<feBlend mode="normal" in2="BackgroundImageFix" result="effect1_dropShadow_1030_7871"/>
<feBlend mode="normal" in="SourceGraphic" in2="effect1_dropShadow_1030_7871" result="shape"/>
</filter>
</defs>
</svg>
