<svg width="19" height="18" viewBox="0 0 19 18" fill="none" xmlns="http://www.w3.org/2000/svg">
<path d="M10 1C10 0.447715 9.55229 0 9 0C8.44772 0 8 0.447715 8 1H10ZM8 2C8 2.55228 8.44772 3 9 3C9.55229 3 10 2.55228 10 2H8ZM15 12C14.4477 12 14 12.4477 14 13C14 13.5523 14.4477 14 15 14V12ZM17 14C17.5523 14 18 13.5523 18 13C18 12.4477 17.5523 12 17 12V14ZM9 13V12C8.44772 12 8 12.4477 8 13H9ZM11 14C11.5523 14 12 13.5523 12 13C12 12.4477 11.5523 12 11 12V14ZM8 17C8 17.5523 8.44772 18 9 18C9.55229 18 10 17.5523 10 17H8ZM10 6C10 5.44772 9.55229 5 9 5C8.44772 5 8 5.44772 8 6H10ZM9 9H8C8 9.55229 8.44772 10 9 10V9ZM13 16C12.4477 16 12 16.4477 12 17C12 17.5523 12.4477 18 13 18V16ZM17 18C17.5523 18 18 17.5523 18 17C18 16.4477 17.5523 16 17 16V18ZM1 8C0.447715 8 0 8.44772 0 9C0 9.55229 0.447715 10 1 10V8ZM5 10C5.55228 10 6 9.55229 6 9C6 8.44772 5.55228 8 5 8V10ZM9.01 10C9.56229 10 10.01 9.55229 10.01 9C10.01 8.44772 9.56229 8 9.01 8V10ZM13.01 10C13.5623 10 14.01 9.55229 14.01 9C14.01 8.44772 13.5623 8 13.01 8V10ZM17 8C16.4477 8 16 8.44772 16 9C16 9.55229 16.4477 10 17 10V8ZM17.01 10C17.5623 10 18.01 9.55229 18.01 9C18.01 8.44772 17.5623 8 17.01 8V10ZM2 2H4V0H2V2ZM4 2V4H6V2H4ZM4 4H2V6H4V4ZM2 4V2H0V4H2ZM2 4H0C0 5.10457 0.89543 6 2 6V4ZM4 4V6C5.10457 6 6 5.10457 6 4H4ZM4 2V2H6C6 0.895431 5.10457 0 4 0V2ZM2 0C0.89543 0 0 0.895431 0 2H2V2V0ZM14 2H16V0H14V2ZM16 2V4H18V2H16ZM16 4H14V6H16V4ZM14 4V2H12V4H14ZM14 4H12C12 5.10457 12.8954 6 14 6V4ZM16 4V6C17.1046 6 18 5.10457 18 4H16ZM16 2V2H18C18 0.895431 17.1046 0 16 0V2ZM14 0C12.8954 0 12 0.895431 12 2H14V2V0ZM2 14H4V12H2V14ZM4 14V16H6V14H4ZM4 16H2V18H4V16ZM2 16V14H0V16H2ZM2 16H0C0 17.1046 0.89543 18 2 18V16ZM4 16V18C5.10457 18 6 17.1046 6 16H4ZM4 14H6C6 12.8954 5.10457 12 4 12V14ZM2 12C0.89543 12 0 12.8954 0 14H2V12ZM8 1V2H10V1H8ZM15 14H17V12H15V14ZM9 14H11V12H9V14ZM8 13V17H10V13H8ZM8 6V9H10V6H8ZM13 18H17V16H13V18ZM1 10H5V8H1V10ZM9 10H9.01V8H9V10ZM17 10H17.01V8H17V10ZM9 10H13.01V8H9V10Z" fill="#161C2A"/>
</svg>
