<svg width="20" height="20" viewBox="0 0 20 20" fill="none" xmlns="http://www.w3.org/2000/svg">
<path d="M10 0C8.02219 0 6.08879 0.58649 4.4443 1.6853C2.79981 2.78412 1.51809 4.3459 0.761209 6.17316C0.00433286 8.00043 -0.1937 10.0111 0.192152 11.9509C0.578004 13.8907 1.53041 15.6725 2.92894 17.0711C4.32746 18.4696 6.10929 19.422 8.0491 19.8078C9.98891 20.1937 11.9996 19.9957 13.8268 19.2388C15.6541 18.4819 17.2159 17.2002 18.3147 15.5557C19.4135 13.9112 20 11.9778 20 10C19.9971 7.34871 18.9426 4.80684 17.0679 2.9321C15.1932 1.05736 12.6513 0.00286757 10 0V0ZM10 18.3333C8.35182 18.3333 6.74066 17.8446 5.37025 16.9289C3.99984 16.0132 2.93174 14.7117 2.30101 13.189C1.67028 11.6663 1.50525 9.99075 1.82679 8.37425C2.14834 6.75774 2.94201 5.27288 4.10745 4.10744C5.27288 2.94201 6.75774 2.14833 8.37425 1.82679C9.99076 1.50525 11.6663 1.67027 13.189 2.301C14.7117 2.93173 16.0132 3.99984 16.9289 5.37025C17.8446 6.74066 18.3333 8.35182 18.3333 10C18.3309 12.2094 17.4522 14.3276 15.8899 15.8899C14.3276 17.4522 12.2094 18.3309 10 18.3333Z" fill="#161C2A"/>
<path d="M9.99999 4.1665C9.77898 4.1665 9.56702 4.2543 9.41074 4.41058C9.25445 4.56686 9.16666 4.77882 9.16666 4.99984V11.6665C9.16666 11.8875 9.25445 12.0995 9.41074 12.2558C9.56702 12.412 9.77898 12.4998 9.99999 12.4998C10.221 12.4998 10.433 12.412 10.5893 12.2558C10.7455 12.0995 10.8333 11.8875 10.8333 11.6665V4.99984C10.8333 4.77882 10.7455 4.56686 10.5893 4.41058C10.433 4.2543 10.221 4.1665 9.99999 4.1665Z" fill="#161C2A"/>
<path d="M10.8333 14.9998C10.8333 14.5396 10.4602 14.1665 9.99999 14.1665C9.53975 14.1665 9.16666 14.5396 9.16666 14.9998C9.16666 15.4601 9.53975 15.8332 9.99999 15.8332C10.4602 15.8332 10.8333 15.4601 10.8333 14.9998Z" fill="#161C2A"/>
</svg>
