<svg width="22" height="22" viewBox="0 0 22 22" fill="none" xmlns="http://www.w3.org/2000/svg">
<g clip-path="url(#clip0_2_18324)">
<path d="M11 0C8.82441 0 6.69767 0.645139 4.88873 1.85383C3.07979 3.06253 1.66989 4.7805 0.83733 6.79048C0.00476615 8.80047 -0.213071 11.0122 0.211367 13.146C0.635804 15.2798 1.68345 17.2398 3.22183 18.7782C4.76021 20.3166 6.72022 21.3642 8.85401 21.7886C10.9878 22.2131 13.1995 21.9952 15.2095 21.1627C17.2195 20.3301 18.9375 18.9202 20.1462 17.1113C21.3549 15.3023 22 13.1756 22 11C21.9968 8.08359 20.8369 5.28753 18.7747 3.22531C16.7125 1.16309 13.9164 0.00315432 11 0V0ZM11 20.1667C9.18701 20.1667 7.41473 19.6291 5.90728 18.6218C4.39983 17.6146 3.22491 16.1829 2.53111 14.5079C1.83731 12.8329 1.65578 10.9898 2.00947 9.21167C2.36317 7.43351 3.23621 5.80017 4.51819 4.51819C5.80017 3.23621 7.43352 2.36317 9.21168 2.00947C10.9898 1.65577 12.8329 1.8373 14.5079 2.5311C16.1829 3.22491 17.6146 4.39982 18.6218 5.90727C19.6291 7.41472 20.1667 9.18701 20.1667 11C20.164 13.4303 19.1974 15.7604 17.4789 17.4789C15.7604 19.1974 13.4303 20.164 11 20.1667Z" fill="#6765C8"/>
<path d="M10.9998 9.16699H10.0832C9.84005 9.16699 9.6069 9.26357 9.43499 9.43548C9.26308 9.60739 9.1665 9.84054 9.1665 10.0837C9.1665 10.3268 9.26308 10.5599 9.43499 10.7318C9.6069 10.9037 9.84005 11.0003 10.0832 11.0003H10.9998V16.5003C10.9998 16.7434 11.0964 16.9766 11.2683 17.1485C11.4402 17.3204 11.6734 17.417 11.9165 17.417C12.1596 17.417 12.3928 17.3204 12.5647 17.1485C12.7366 16.9766 12.8332 16.7434 12.8332 16.5003V11.0003C12.8332 10.5141 12.64 10.0478 12.2962 9.70396C11.9524 9.36015 11.4861 9.16699 10.9998 9.16699Z" fill="#6765C8"/>
<path d="M11 7.33301C11.7594 7.33301 12.375 6.7174 12.375 5.95801C12.375 5.19862 11.7594 4.58301 11 4.58301C10.2406 4.58301 9.625 5.19862 9.625 5.95801C9.625 6.7174 10.2406 7.33301 11 7.33301Z" fill="#6765C8"/>
</g>
<defs>
<clipPath id="clip0_2_18324">
<rect width="22" height="22" fill="white"/>
</clipPath>
</defs>
</svg>
