<svg width="345" height="43" viewBox="0 0 345 43" fill="none" xmlns="http://www.w3.org/2000/svg">
<rect width="345" height="43" rx="21.5" fill="#F1F1F3"/>
<path d="M30.5416 29.2502C35.3511 29.2502 39.2499 25.3513 39.2499 20.5418C39.2499 15.7323 35.3511 11.8335 30.5416 11.8335C25.7321 11.8335 21.8333 15.7323 21.8333 20.5418C21.8333 25.3513 25.7321 29.2502 30.5416 29.2502Z" stroke="#9CA3AF" stroke-width="1.5" stroke-linecap="round" stroke-linejoin="round"/>
<path d="M40.1666 30.1668L38.3333 28.3335" stroke="#9CA3AF" stroke-width="1.5" stroke-linecap="round" stroke-linejoin="round"/>
<path d="M56.802 27.252C55.9527 27.252 55.2293 27.112 54.632 26.832C54.0347 26.552 53.5773 26.1647 53.26 25.67C52.9427 25.1753 52.784 24.6153 52.784 23.99H54.156C54.156 24.298 54.2353 24.606 54.394 24.914C54.562 25.222 54.8373 25.4787 55.22 25.684C55.612 25.8893 56.1393 25.992 56.802 25.992C57.418 25.992 57.922 25.9033 58.314 25.726C58.706 25.5393 58.9953 25.3013 59.182 25.012C59.3687 24.7133 59.462 24.3913 59.462 24.046C59.462 23.626 59.28 23.2807 58.916 23.01C58.552 22.73 58.02 22.5573 57.32 22.492L56.186 22.394C55.2807 22.3193 54.5573 22.0393 54.016 21.554C53.4747 21.0687 53.204 20.4293 53.204 19.636C53.204 19.0107 53.3533 18.4647 53.652 17.998C53.96 17.5313 54.3847 17.1673 54.926 16.906C55.4673 16.6353 56.0973 16.5 56.816 16.5C57.5253 16.5 58.1507 16.6307 58.692 16.892C59.2333 17.1533 59.6533 17.522 59.952 17.998C60.26 18.4647 60.414 19.0247 60.414 19.678H59.042C59.042 19.3513 58.9627 19.0433 58.804 18.754C58.6547 18.4647 58.4167 18.2267 58.09 18.04C57.7633 17.8533 57.3387 17.76 56.816 17.76C56.312 17.76 55.892 17.8487 55.556 18.026C55.2293 18.2033 54.982 18.4367 54.814 18.726C54.6553 19.006 54.576 19.3093 54.576 19.636C54.576 20.0093 54.7207 20.3407 55.01 20.63C55.2993 20.9193 55.7287 21.0873 56.298 21.134L57.432 21.232C58.132 21.288 58.734 21.4373 59.238 21.68C59.7513 21.9133 60.1433 22.2307 60.414 22.632C60.694 23.024 60.834 23.4953 60.834 24.046C60.834 24.6713 60.666 25.2267 60.33 25.712C59.994 26.1973 59.5227 26.5753 58.916 26.846C58.3093 27.1167 57.6047 27.252 56.802 27.252ZM66.1883 27.252C65.535 27.252 64.9703 27.14 64.4943 26.916C64.0183 26.692 63.631 26.398 63.3323 26.034C63.0337 25.6607 62.8097 25.2453 62.6603 24.788C62.5203 24.3307 62.4503 23.864 62.4503 23.388V23.136C62.4503 22.6507 62.5203 22.1793 62.6603 21.722C62.8097 21.2647 63.0337 20.854 63.3323 20.49C63.631 20.1167 64.009 19.8227 64.4663 19.608C64.933 19.384 65.479 19.272 66.1043 19.272C66.9163 19.272 67.5837 19.4493 68.1063 19.804C68.6383 20.1493 69.0303 20.5973 69.2823 21.148C69.5437 21.6987 69.6743 22.2867 69.6743 22.912V23.514H63.0383V22.506H68.6943L68.3863 23.052C68.3863 22.52 68.3023 22.0627 68.1343 21.68C67.9663 21.288 67.7143 20.9847 67.3783 20.77C67.0423 20.5553 66.6177 20.448 66.1043 20.448C65.5723 20.448 65.129 20.5693 64.7743 20.812C64.429 21.0547 64.1677 21.386 63.9903 21.806C63.8223 22.226 63.7383 22.7113 63.7383 23.262C63.7383 23.794 63.8223 24.2747 63.9903 24.704C64.1677 25.124 64.4383 25.46 64.8023 25.712C65.1663 25.9547 65.6283 26.076 66.1883 26.076C66.7763 26.076 67.2523 25.9453 67.6163 25.684C67.9897 25.4227 68.2137 25.1193 68.2883 24.774H69.5483C69.4457 25.2873 69.2403 25.7307 68.9323 26.104C68.6243 26.4773 68.237 26.762 67.7703 26.958C67.3037 27.154 66.7763 27.252 66.1883 27.252ZM76.1746 27V24.76H75.9506V22.17C75.9506 21.6567 75.8153 21.2693 75.5446 21.008C75.2833 20.7467 74.8959 20.616 74.3826 20.616C74.0933 20.616 73.7946 20.6207 73.4866 20.63C73.1786 20.6393 72.8846 20.6487 72.6046 20.658C72.3246 20.6673 72.0819 20.6813 71.8766 20.7V19.524C72.0819 19.5053 72.2966 19.4913 72.5206 19.482C72.7539 19.4633 72.9919 19.454 73.2346 19.454C73.4773 19.4447 73.7106 19.44 73.9346 19.44C74.6999 19.44 75.3253 19.5333 75.8106 19.72C76.2959 19.8973 76.6553 20.1913 76.8886 20.602C77.1219 21.0127 77.2386 21.568 77.2386 22.268V27H76.1746ZM73.7246 27.196C73.1646 27.196 72.6793 27.1027 72.2686 26.916C71.8673 26.72 71.5546 26.44 71.3306 26.076C71.1159 25.712 71.0086 25.2733 71.0086 24.76C71.0086 24.228 71.1253 23.7847 71.3586 23.43C71.6013 23.0753 71.9513 22.8093 72.4086 22.632C72.8659 22.4453 73.4166 22.352 74.0606 22.352H76.0906V23.36H74.0046C73.4633 23.36 73.0479 23.4907 72.7586 23.752C72.4693 24.0133 72.3246 24.3493 72.3246 24.76C72.3246 25.1707 72.4693 25.502 72.7586 25.754C73.0479 26.006 73.4633 26.132 74.0046 26.132C74.3219 26.132 74.6253 26.076 74.9146 25.964C75.2039 25.8427 75.4419 25.6467 75.6286 25.376C75.8246 25.096 75.9319 24.7133 75.9506 24.228L76.3146 24.76C76.2679 25.292 76.1373 25.74 75.9226 26.104C75.7173 26.4587 75.4279 26.7293 75.0546 26.916C74.6906 27.1027 74.2473 27.196 73.7246 27.196ZM79.7753 27V19.524H80.8393V22.604H80.7833C80.7833 21.512 81.0213 20.714 81.4973 20.21C81.9827 19.6967 82.706 19.44 83.6673 19.44H83.9193V20.644H83.4433C82.6967 20.644 82.1227 20.8447 81.7213 21.246C81.32 21.638 81.1193 22.2073 81.1193 22.954V27H79.7753ZM88.7115 27.252C88.0675 27.252 87.5075 27.14 87.0315 26.916C86.5648 26.692 86.1775 26.3933 85.8695 26.02C85.5615 25.6373 85.3282 25.2173 85.1695 24.76C85.0202 24.3027 84.9455 23.8453 84.9455 23.388V23.136C84.9455 22.66 85.0202 22.1933 85.1695 21.736C85.3282 21.2787 85.5615 20.868 85.8695 20.504C86.1868 20.1307 86.5788 19.832 87.0455 19.608C87.5122 19.384 88.0582 19.272 88.6835 19.272C89.3088 19.272 89.8688 19.3887 90.3635 19.622C90.8675 19.8553 91.2688 20.1867 91.5675 20.616C91.8755 21.036 92.0482 21.5353 92.0855 22.114H90.7975C90.7322 21.6473 90.5175 21.26 90.1535 20.952C89.7895 20.6347 89.2995 20.476 88.6835 20.476C88.1515 20.476 87.7082 20.5973 87.3535 20.84C86.9988 21.0827 86.7328 21.414 86.5555 21.834C86.3782 22.254 86.2895 22.73 86.2895 23.262C86.2895 23.7753 86.3782 24.2467 86.5555 24.676C86.7328 25.096 86.9988 25.432 87.3535 25.684C87.7175 25.9267 88.1702 26.048 88.7115 26.048C89.1315 26.048 89.4955 25.9733 89.8035 25.824C90.1115 25.6747 90.3588 25.474 90.5455 25.222C90.7322 24.97 90.8442 24.6853 90.8815 24.368H92.1695C92.1415 24.956 91.9688 25.4647 91.6515 25.894C91.3435 26.3233 90.9328 26.6593 90.4195 26.902C89.9155 27.1353 89.3462 27.252 88.7115 27.252ZM94.0657 27V16.78H95.4097V22.884H95.0737C95.0737 22.1467 95.1671 21.512 95.3537 20.98C95.5497 20.4387 95.8484 20.0233 96.2497 19.734C96.6511 19.4447 97.1644 19.3 97.7897 19.3H97.8457C98.7417 19.3 99.4184 19.5987 99.8757 20.196C100.333 20.784 100.562 21.6287 100.562 22.73V27H99.2177V22.45C99.2177 21.8433 99.0451 21.372 98.6997 21.036C98.3637 20.7 97.9251 20.532 97.3837 20.532C96.7864 20.532 96.3057 20.7327 95.9417 21.134C95.5871 21.526 95.4097 22.044 95.4097 22.688V27H94.0657ZM105.45 27L109.132 16.78H111.456L115.25 27H113.836L110.406 17.676L111.078 18.012H109.426L110.14 17.676L106.822 27H105.45ZM107.648 23.948L108.11 22.716H112.52L112.982 23.948H107.648ZM116.998 27V19.524H118.062V22.73H117.894C117.894 21.9927 117.992 21.372 118.188 20.868C118.394 20.3547 118.702 19.9673 119.112 19.706C119.523 19.4353 120.041 19.3 120.666 19.3H120.722C121.665 19.3 122.36 19.594 122.808 20.182C123.266 20.77 123.494 21.6193 123.494 22.73V27H122.15V22.45C122.15 21.8713 121.987 21.4093 121.66 21.064C121.334 20.7093 120.886 20.532 120.316 20.532C119.728 20.532 119.252 20.714 118.888 21.078C118.524 21.442 118.342 21.9273 118.342 22.534V27H116.998ZM125.465 29.912V28.708H126.543C126.86 28.708 127.126 28.666 127.341 28.582C127.565 28.5073 127.747 28.3767 127.887 28.19C128.036 28.0033 128.157 27.756 128.251 27.448L130.603 19.524H131.919L129.427 27.798C129.277 28.2927 129.067 28.694 128.797 29.002C128.526 29.3193 128.195 29.548 127.803 29.688C127.42 29.8373 126.972 29.912 126.459 29.912H125.465ZM127.747 26.832V25.712H129.371V26.832H127.747ZM127.607 26.832L124.933 19.524H126.305L128.867 26.832H127.607ZM136.744 27.084C136.184 27.084 135.698 27.0047 135.288 26.846C134.886 26.6873 134.574 26.4167 134.35 26.034C134.135 25.642 134.028 25.1147 134.028 24.452V17.256H135.316V24.62C135.316 25.0213 135.423 25.334 135.638 25.558C135.862 25.7727 136.174 25.88 136.576 25.88H137.892V27.084H136.744ZM132.74 20.532V19.524H137.892V20.532H132.74ZM139.863 27V16.78H141.207V22.884H140.871C140.871 22.1467 140.964 21.512 141.151 20.98C141.347 20.4387 141.645 20.0233 142.047 19.734C142.448 19.4447 142.961 19.3 143.587 19.3H143.643C144.539 19.3 145.215 19.5987 145.673 20.196C146.13 20.784 146.359 21.6287 146.359 22.73V27H145.015V22.45C145.015 21.8433 144.842 21.372 144.497 21.036C144.161 20.7 143.722 20.532 143.181 20.532C142.583 20.532 142.103 20.7327 141.739 21.134C141.384 21.526 141.207 22.044 141.207 22.688V27H139.863ZM149.252 27V19.524H150.596V27H149.252ZM148.104 20.588V19.524H150.596V20.588H148.104ZM149.63 18.32C149.331 18.32 149.107 18.2407 148.958 18.082C148.818 17.9233 148.748 17.7227 148.748 17.48C148.748 17.2373 148.818 17.0367 148.958 16.878C149.107 16.7193 149.331 16.64 149.63 16.64C149.928 16.64 150.148 16.7193 150.288 16.878C150.437 17.0367 150.512 17.2373 150.512 17.48C150.512 17.7227 150.437 17.9233 150.288 18.082C150.148 18.2407 149.928 18.32 149.63 18.32ZM153.264 27V19.524H154.328V22.73H154.16C154.16 21.9927 154.258 21.372 154.454 20.868C154.66 20.3547 154.968 19.9673 155.378 19.706C155.789 19.4353 156.307 19.3 156.932 19.3H156.988C157.931 19.3 158.626 19.594 159.074 20.182C159.532 20.77 159.76 21.6193 159.76 22.73V27H158.416V22.45C158.416 21.8713 158.253 21.4093 157.926 21.064C157.6 20.7093 157.152 20.532 156.582 20.532C155.994 20.532 155.518 20.714 155.154 21.078C154.79 21.442 154.608 21.9273 154.608 22.534V27H153.264ZM165.117 29.912C164.772 29.912 164.422 29.898 164.067 29.87C163.722 29.842 163.391 29.8047 163.073 29.758V28.624C163.409 28.6707 163.759 28.708 164.123 28.736C164.497 28.7733 164.847 28.792 165.173 28.792C165.855 28.792 166.396 28.6987 166.797 28.512C167.208 28.3347 167.502 28.05 167.679 27.658C167.866 27.2753 167.959 26.7807 167.959 26.174V24.746L168.407 23.682C168.379 24.438 168.221 25.068 167.931 25.572C167.642 26.0667 167.264 26.44 166.797 26.692C166.34 26.9347 165.831 27.056 165.271 27.056C164.749 27.056 164.268 26.958 163.829 26.762C163.4 26.5567 163.027 26.2767 162.709 25.922C162.401 25.5673 162.159 25.1613 161.981 24.704C161.813 24.2373 161.729 23.7473 161.729 23.234V22.982C161.729 22.4593 161.818 21.974 161.995 21.526C162.173 21.0687 162.42 20.672 162.737 20.336C163.055 20 163.433 19.7387 163.871 19.552C164.319 19.3653 164.809 19.272 165.341 19.272C165.967 19.272 166.517 19.4073 166.993 19.678C167.469 19.9393 167.843 20.3267 168.113 20.84C168.393 21.344 168.547 21.9647 168.575 22.702L168.183 22.716V19.524H169.247V26.118C169.247 27.014 169.107 27.7373 168.827 28.288C168.557 28.848 168.118 29.2587 167.511 29.52C166.914 29.7813 166.116 29.912 165.117 29.912ZM165.523 25.824C165.971 25.824 166.377 25.726 166.741 25.53C167.115 25.334 167.409 25.054 167.623 24.69C167.847 24.3167 167.959 23.8733 167.959 23.36V22.716C167.959 22.212 167.843 21.7873 167.609 21.442C167.385 21.0967 167.091 20.8353 166.727 20.658C166.363 20.4807 165.967 20.392 165.537 20.392C165.052 20.392 164.623 20.504 164.249 20.728C163.876 20.952 163.587 21.2693 163.381 21.68C163.176 22.0813 163.073 22.5573 163.073 23.108C163.073 23.6587 163.176 24.1393 163.381 24.55C163.596 24.9607 163.885 25.278 164.249 25.502C164.623 25.7167 165.047 25.824 165.523 25.824ZM171.541 27V25.292H173.165V27H171.541ZM175.275 27V25.292H176.899V27H175.275ZM179.009 27V25.292H180.633V27H179.009Z" fill="#9CA3AF"/>
</svg>
