<svg width="21" height="20" viewBox="0 0 21 20" fill="none" xmlns="http://www.w3.org/2000/svg">
<path fill-rule="evenodd" clip-rule="evenodd" d="M17.6157 0.0144909C17.2126 0.058043 1.40666 5.31842 1.06774 5.52178C0.577737 5.81576 0.164424 6.39674 0.0475524 6.95556C-0.105878 7.68934 0.115812 8.41325 0.657123 8.94623C0.932503 9.21731 1.11318 9.32098 4.03489 10.8838C6.36623 12.1309 7.16593 12.5792 7.30218 12.7155C7.43512 12.8485 7.92438 13.7056 9.16043 15.971C10.5861 18.5839 10.8762 19.0869 11.0907 19.3176C11.9209 20.2104 13.3213 20.2297 14.1934 19.3604C14.3425 19.2117 14.5122 18.9858 14.5808 18.8444C14.6479 18.7061 15.9074 15.0204 17.3797 10.6539L20.0565 2.71489L20.0774 2.28796C20.0944 1.93941 20.0814 1.80567 20.0065 1.55951C19.6907 0.522495 18.7198 -0.104892 17.6157 0.0144909ZM12.647 6.36992C9.95752 9.07045 7.7532 11.28 7.74847 11.28C7.74375 11.28 6.38058 10.5488 4.71925 9.65521C1.28811 7.80964 1.43372 7.90939 1.43372 7.40394C1.43372 7.07882 1.49536 6.94983 1.73718 6.76898C1.80394 6.71904 5.37907 5.50557 9.68192 4.07245C13.9848 2.63928 17.5124 1.46514 17.5211 1.46329C17.5298 1.4614 15.3365 3.66938 12.647 6.36992ZM16.7041 8.09835C15.6712 11.1682 14.4909 14.6771 14.0812 15.8958C13.6715 17.1145 13.2951 18.1782 13.2446 18.2596C13.1317 18.4419 12.8376 18.59 12.5886 18.59C12.4008 18.59 12.1126 18.4732 12.017 18.3583C11.9886 18.3241 11.2381 16.9405 10.3493 15.2835L8.7333 12.2708L13.6491 7.39575C16.3528 4.7145 18.5688 2.51981 18.5735 2.51871C18.5782 2.51761 17.7369 5.02844 16.7041 8.09835Z" fill="#6765C8"/>
</svg>
