<svg width="22" height="24" viewBox="0 0 22 24" fill="none" xmlns="http://www.w3.org/2000/svg">
<path d="M10.7969 8.00159C10.0058 8.00159 9.23239 8.23618 8.5746 8.67571C7.9168 9.11523 7.40411 9.73995 7.10136 10.4709C6.79861 11.2018 6.71939 12.006 6.87374 12.7819C7.02808 13.5579 7.40904 14.2706 7.96845 14.83C8.52786 15.3894 9.24059 15.7704 10.0165 15.9247C10.7924 16.0791 11.5967 15.9999 12.3276 15.6971C13.0585 15.3944 13.6832 14.8817 14.1228 14.2239C14.5623 13.5661 14.7969 12.7927 14.7969 12.0016C14.7969 10.9407 14.3755 9.92331 13.6253 9.17316C12.8752 8.42301 11.8577 8.00159 10.7969 8.00159ZM10.7969 14.0016C10.4013 14.0016 10.0146 13.8843 9.68574 13.6645C9.35684 13.4448 9.10049 13.1324 8.94912 12.767C8.79774 12.4015 8.75814 11.9994 8.83531 11.6114C8.91248 11.2234 9.10296 10.8671 9.38266 10.5874C9.66237 10.3077 10.0187 10.1172 10.4067 10.04C10.7947 9.96285 11.1968 10.0025 11.5622 10.1538C11.9277 10.3052 12.2401 10.5615 12.4598 10.8904C12.6796 11.2193 12.7969 11.606 12.7969 12.0016C12.7969 12.532 12.5862 13.0407 12.2111 13.4158C11.836 13.7909 11.3273 14.0016 10.7969 14.0016Z" fill="#161C2A"/>
<path d="M20.0907 13.9L19.6467 13.644C19.8466 12.5564 19.8466 11.4416 19.6467 10.354L20.0907 10.098C20.4321 9.90102 20.7314 9.63871 20.9715 9.32606C21.2115 9.01341 21.3877 8.65654 21.4898 8.27582C21.592 7.8951 21.6181 7.49799 21.5668 7.10716C21.5155 6.71633 21.3877 6.33944 21.1907 5.998C20.9937 5.65656 20.7314 5.35727 20.4187 5.1172C20.1061 4.87714 19.7492 4.70101 19.3685 4.59886C18.9878 4.49672 18.5907 4.47056 18.1998 4.52189C17.809 4.57321 17.4321 4.70102 17.0907 4.898L16.6457 5.155C15.8052 4.43692 14.8393 3.88025 13.7967 3.513V3C13.7967 2.20435 13.4806 1.44129 12.918 0.87868C12.3554 0.31607 11.5923 0 10.7967 0C10.001 0 9.23796 0.31607 8.67535 0.87868C8.11275 1.44129 7.79667 2.20435 7.79667 3V3.513C6.75406 3.88157 5.78852 4.4396 4.94867 5.159L4.50167 4.9C3.81211 4.50218 2.99276 4.39457 2.22386 4.60086C1.45496 4.80715 0.799499 5.31044 0.401674 6C0.00384909 6.68956 -0.103754 7.50892 0.102536 8.27782C0.308826 9.04672 0.812111 9.70218 1.50167 10.1L1.94567 10.356C1.74578 11.4436 1.74578 12.5584 1.94567 13.646L1.50167 13.902C0.812111 14.2998 0.308826 14.9553 0.102536 15.7242C-0.103754 16.4931 0.00384909 17.3124 0.401674 18.002C0.799499 18.6916 1.45496 19.1948 2.22386 19.4011C2.99276 19.6074 3.81211 19.4998 4.50167 19.102L4.94667 18.845C5.78744 19.5632 6.75365 20.1199 7.79667 20.487V21C7.79667 21.7956 8.11275 22.5587 8.67535 23.1213C9.23796 23.6839 10.001 24 10.7967 24C11.5923 24 12.3554 23.6839 12.918 23.1213C13.4806 22.5587 13.7967 21.7956 13.7967 21V20.487C14.8393 20.1184 15.8048 19.5604 16.6447 18.841L17.0917 19.099C17.7812 19.4968 18.6006 19.6044 19.3695 19.3981C20.1384 19.1918 20.7939 18.6886 21.1917 17.999C21.5895 17.3094 21.6971 16.4901 21.4908 15.7212C21.2845 14.9523 20.7812 14.2968 20.0917 13.899L20.0907 13.9ZM17.5427 10.124C17.8813 11.3511 17.8813 12.6469 17.5427 13.874C17.4835 14.0876 17.497 14.3147 17.581 14.5198C17.665 14.7249 17.8147 14.8963 18.0067 15.007L19.0907 15.633C19.3205 15.7656 19.4882 15.9841 19.5569 16.2403C19.6257 16.4966 19.5898 16.7697 19.4572 16.9995C19.3246 17.2293 19.1061 17.397 18.8498 17.4658C18.5936 17.5345 18.3205 17.4986 18.0907 17.366L17.0047 16.738C16.8126 16.6267 16.5889 16.5826 16.3689 16.6124C16.1489 16.6423 15.9452 16.7445 15.7897 16.903C14.8996 17.8117 13.7782 18.46 12.5467 18.778C12.3317 18.8333 12.1412 18.9585 12.0053 19.1339C11.8693 19.3094 11.7956 19.525 11.7957 19.747V21C11.7957 21.2652 11.6903 21.5196 11.5028 21.7071C11.3152 21.8946 11.0609 22 10.7957 22C10.5305 22 10.2761 21.8946 10.0886 21.7071C9.90103 21.5196 9.79567 21.2652 9.79567 21V19.748C9.79578 19.526 9.72205 19.3104 9.58608 19.1349C9.45011 18.9595 9.25964 18.8343 9.04467 18.779C7.81302 18.4597 6.692 17.81 5.80267 16.9C5.6472 16.7415 5.44341 16.6393 5.22343 16.6094C5.00345 16.5796 4.77978 16.6237 4.58767 16.735L3.50367 17.362C3.3899 17.4287 3.26406 17.4722 3.1334 17.4901C3.00274 17.508 2.86983 17.4998 2.74233 17.4661C2.61483 17.4324 2.49526 17.3738 2.39049 17.2937C2.28573 17.2136 2.19785 17.1135 2.13191 16.9993C2.06597 16.8851 2.02327 16.759 2.00627 16.6282C1.98927 16.4974 1.99831 16.3646 2.03286 16.2373C2.06742 16.11 2.12681 15.9909 2.20761 15.8866C2.28841 15.7824 2.38903 15.6952 2.50367 15.63L3.58767 15.004C3.77962 14.8933 3.92935 14.7219 4.01333 14.5168C4.09732 14.3117 4.11081 14.0846 4.05167 13.871C3.71303 12.6439 3.71303 11.3481 4.05167 10.121C4.10974 9.90788 4.09561 9.68153 4.01149 9.47729C3.92737 9.27305 3.77799 9.10241 3.58667 8.992L2.50267 8.366C2.27286 8.23339 2.10514 8.01492 2.03641 7.75865C1.96768 7.50239 2.00357 7.22931 2.13617 6.9995C2.26878 6.76969 2.48725 6.60197 2.74352 6.53324C2.99979 6.46451 3.27286 6.50039 3.50267 6.633L4.58867 7.261C4.78025 7.37251 5.00346 7.41721 5.2232 7.38807C5.44295 7.35893 5.64678 7.25759 5.80267 7.1C6.69276 6.19134 7.8141 5.54302 9.04567 5.225C9.26131 5.16956 9.45227 5.04375 9.58831 4.8675C9.72435 4.69125 9.79768 4.47464 9.79667 4.252V3C9.79667 2.73478 9.90203 2.48043 10.0896 2.29289C10.2771 2.10536 10.5315 2 10.7967 2C11.0619 2 11.3162 2.10536 11.5038 2.29289C11.6913 2.48043 11.7967 2.73478 11.7967 3V4.252C11.7966 4.47396 11.8703 4.68964 12.0063 4.86508C12.1422 5.04052 12.3327 5.16573 12.5477 5.221C13.7797 5.54015 14.9011 6.18988 15.7907 7.1C15.9462 7.25847 16.1499 7.36069 16.3699 7.39057C16.5899 7.42044 16.8136 7.37626 17.0057 7.265L18.0897 6.638C18.2034 6.5713 18.3293 6.52777 18.46 6.5099C18.5906 6.49204 18.7235 6.50019 18.851 6.5339C18.9785 6.56761 19.0981 6.6262 19.2029 6.70631C19.3076 6.78642 19.3955 6.88646 19.4614 7.00067C19.5274 7.11488 19.5701 7.24101 19.5871 7.37179C19.6041 7.50257 19.595 7.63542 19.5605 7.76269C19.5259 7.88997 19.4665 8.00915 19.3857 8.11337C19.3049 8.2176 19.2043 8.30482 19.0897 8.37L18.0057 8.996C17.8147 9.10671 17.6658 9.27748 17.582 9.48169C17.4983 9.68591 17.4844 9.9121 17.5427 10.125V10.124Z" fill="#161C2A"/>
</svg>
