<svg width="17" height="16" viewBox="0 0 17 16" fill="none" xmlns="http://www.w3.org/2000/svg">
<g clip-path="url(#clip0_2_18727)">
<path d="M13.0987 9.77816C12.5947 9.77858 12.0983 9.90163 11.6524 10.1367C11.2065 10.3718 10.8245 10.7118 10.5394 11.1275L6.20005 9.16817C6.50825 8.42392 6.50945 7.58796 6.20338 6.84283L10.5367 4.8735C10.9593 5.48467 11.5869 5.92414 12.3058 6.1122C13.0246 6.30025 13.7871 6.22443 14.4548 5.8985C15.1225 5.57256 15.6513 5.0181 15.9453 4.33568C16.2392 3.65325 16.2788 2.88808 16.057 2.17895C15.8351 1.46982 15.3664 0.863696 14.7359 0.470535C14.1054 0.0773743 13.3548 -0.0767867 12.6204 0.0360157C11.886 0.148818 11.2163 0.521112 10.7329 1.08537C10.2494 1.64962 9.98423 2.36846 9.98538 3.1115C9.9882 3.28736 10.006 3.46267 10.0387 3.6355L5.43205 5.72883C4.98961 5.31431 4.43572 5.03806 3.83843 4.93401C3.24114 4.82996 2.62647 4.90264 2.06992 5.14314C1.51337 5.38363 1.0392 5.78146 0.705646 6.28774C0.372093 6.79402 0.193692 7.38671 0.19236 7.993C0.191028 8.59928 0.366822 9.19275 0.698147 9.70049C1.02947 10.2082 1.5019 10.6081 2.05738 10.8511C2.61286 11.094 3.22721 11.1694 3.82495 11.068C4.42269 10.9666 4.97779 10.6927 5.42205 10.2802L10.0407 12.3655C10.0086 12.5382 9.99102 12.7132 9.98805 12.8888C9.98792 13.5043 10.1703 14.1059 10.5121 14.6176C10.8539 15.1294 11.3399 15.5283 11.9084 15.7639C12.477 15.9994 13.1026 16.0611 13.7062 15.9411C14.3098 15.8211 14.8643 15.5247 15.2994 15.0895C15.7346 14.6544 16.0309 14.0999 16.151 13.4963C16.271 12.8927 16.2093 12.2671 15.9737 11.6985C15.7382 11.13 15.3393 10.6441 14.8275 10.3022C14.3158 9.96041 13.7141 9.77803 13.0987 9.77816ZM13.0987 1.3335C13.4504 1.33337 13.7942 1.43753 14.0867 1.63282C14.3792 1.82811 14.6072 2.10575 14.7418 2.43063C14.8765 2.7555 14.9118 3.11302 14.8433 3.45796C14.7748 3.8029 14.6055 4.11977 14.3569 4.3685C14.1082 4.61722 13.7914 4.78663 13.4465 4.85529C13.1016 4.92394 12.744 4.88877 12.4191 4.75422C12.0942 4.61967 11.8165 4.39178 11.6211 4.09937C11.4257 3.80697 11.3214 3.46318 11.3214 3.1115C11.3217 2.64017 11.5091 2.18823 11.8423 1.85489C12.1755 1.52154 12.6274 1.33403 13.0987 1.3335ZM3.32138 9.77816C2.9697 9.7783 2.62587 9.67413 2.3334 9.47884C2.04092 9.28355 1.81292 9.00591 1.67825 8.68104C1.54357 8.35616 1.50827 7.99865 1.5768 7.6537C1.64533 7.30876 1.81461 6.99189 2.06324 6.74317C2.31187 6.49444 2.62868 6.32504 2.9736 6.25638C3.31852 6.18772 3.67605 6.22289 4.00097 6.35744C4.3259 6.492 4.60362 6.71989 4.79902 7.01229C4.99442 7.3047 5.09871 7.64848 5.09871 8.00016C5.09819 8.47144 4.91078 8.92327 4.5776 9.25658C4.24442 9.58989 3.79266 9.77746 3.32138 9.77816ZM13.0987 14.6668C12.7471 14.6668 12.4033 14.5626 12.1109 14.3672C11.8185 14.1718 11.5906 13.8941 11.4561 13.5692C11.3215 13.2444 11.2863 12.8869 11.3549 12.542C11.4235 12.1971 11.5928 11.8803 11.8415 11.6316C12.0901 11.3829 12.4069 11.2136 12.7518 11.145C13.0967 11.0764 13.4542 11.1116 13.7791 11.2462C14.104 11.3807 14.3817 11.6086 14.5771 11.901C14.7724 12.1934 14.8767 12.5372 14.8767 12.8888C14.8764 13.3603 14.6889 13.8123 14.3556 14.1457C14.0222 14.479 13.5702 14.6665 13.0987 14.6668Z" fill="#838383"/>
</g>
<defs>
<clipPath id="clip0_2_18727">
<rect width="16" height="16" fill="white" transform="translate(0.209961)"/>
</clipPath>
</defs>
</svg>
