<svg width="18" height="18" viewBox="0 0 18 18" fill="none" xmlns="http://www.w3.org/2000/svg">
<path d="M4.82264 18.0003C5.72314 18.0003 6.45314 17.2703 6.45314 16.3698C6.45314 15.4693 5.72314 14.7393 4.82264 14.7393C3.92214 14.7393 3.19214 15.4693 3.19214 16.3698C3.19214 17.2703 3.92214 18.0003 4.82264 18.0003Z" fill="#9CA3AF"/>
<path d="M12.9753 18.0003C13.8759 18.0003 14.6059 17.2703 14.6059 16.3698C14.6059 15.4693 13.8759 14.7393 12.9753 14.7393C12.0748 14.7393 11.3448 15.4693 11.3448 16.3698C11.3448 17.2703 12.0748 18.0003 12.9753 18.0003Z" fill="#9CA3AF"/>
<path d="M16.8703 2.27369H15.4028V0.80624C15.4124 0.704072 15.4006 0.601017 15.3682 0.503673C15.3357 0.40633 15.2832 0.316844 15.2141 0.240947C15.1451 0.16505 15.0609 0.104414 14.9671 0.0629229C14.8732 0.0214318 14.7717 0 14.6691 0C14.5665 0 14.465 0.0214318 14.3711 0.0629229C14.2772 0.104414 14.1931 0.16505 14.124 0.240947C14.0549 0.316844 14.0025 0.40633 13.97 0.503673C13.9375 0.601017 13.9257 0.704072 13.9354 0.80624V2.27369H12.4679C12.2852 2.29093 12.1156 2.37568 11.9921 2.51138C11.8686 2.64707 11.8002 2.82394 11.8002 3.00742C11.8002 3.19089 11.8686 3.36776 11.9921 3.50346C12.1156 3.63915 12.2852 3.7239 12.4679 3.74114H13.9354V5.20859C13.9257 5.31076 13.9375 5.41382 13.97 5.51116C14.0025 5.6085 14.0549 5.69799 14.124 5.77389C14.1931 5.84978 14.2772 5.91042 14.3711 5.95191C14.465 5.9934 14.5665 6.01483 14.6691 6.01483C14.7717 6.01483 14.8732 5.9934 14.9671 5.95191C15.0609 5.91042 15.1451 5.84978 15.2141 5.77389C15.2832 5.69799 15.3357 5.6085 15.3682 5.51116C15.4006 5.41382 15.4124 5.31076 15.4028 5.20859V3.74114H16.8703C17.0529 3.7239 17.2226 3.63915 17.3461 3.50346C17.4696 3.36776 17.538 3.19089 17.538 3.00742C17.538 2.82394 17.4696 2.64707 17.3461 2.51138C17.2226 2.37568 17.0529 2.29093 16.8703 2.27369Z" fill="#9CA3AF"/>
<path d="M15.9635 7.22725C15.8682 7.2094 15.7704 7.21063 15.6756 7.23088C15.5809 7.25112 15.4911 7.28997 15.4115 7.34518C15.3319 7.40039 15.264 7.47085 15.2118 7.55249C15.1596 7.63412 15.1241 7.7253 15.1074 7.82075C15.0157 8.33048 14.7478 8.79178 14.3506 9.12407C13.9533 9.45637 13.4519 9.63854 12.934 9.63876H3.92058L3.22925 3.74613H9.50505C9.68771 3.72889 9.85737 3.64413 9.98086 3.50844C10.1043 3.37275 10.1728 3.19587 10.1728 3.0124C10.1728 2.82893 10.1043 2.65205 9.98086 2.51636C9.85737 2.38067 9.68771 2.29592 9.50505 2.27868H3.05479L3.0287 2.02106C2.96662 1.4819 2.70825 0.984453 2.30289 0.62359C1.89752 0.262727 1.3735 0.0636965 0.830783 0.0644553H0.667733C0.485073 0.0816958 0.315412 0.166448 0.191923 0.302141C0.0684349 0.437834 0 0.614709 0 0.798181C0 0.981653 0.0684349 1.15853 0.191923 1.29422C0.315412 1.42991 0.485073 1.51467 0.667733 1.53191H0.830783C1.01128 1.53231 1.18536 1.59893 1.32 1.71914C1.45464 1.83936 1.54048 2.00481 1.56125 2.18411L2.57379 10.7997C2.6778 11.697 3.10807 12.5247 3.78272 13.1254C4.45737 13.7261 5.32932 14.0578 6.23263 14.0574H13.9237C14.1064 14.0402 14.276 13.9554 14.3995 13.8197C14.523 13.684 14.5914 13.5072 14.5914 13.3237C14.5914 13.1402 14.523 12.9633 14.3995 12.8277C14.276 12.692 14.1064 12.6072 13.9237 12.59H6.23263C5.77627 12.5905 5.33094 12.4498 4.95781 12.187C4.58469 11.9242 4.30209 11.5524 4.14885 11.1225H12.934C13.7997 11.1231 14.6379 10.8185 15.3014 10.2624C15.9649 9.70629 16.4112 8.93414 16.5619 8.08163C16.579 7.98634 16.5772 7.88861 16.5566 7.79401C16.536 7.69942 16.4969 7.60981 16.4417 7.53032C16.3864 7.45082 16.316 7.38299 16.2345 7.33071C16.153 7.27843 16.062 7.24272 15.9667 7.22562L15.9635 7.22725Z" fill="#9CA3AF"/>
</svg>
