<svg width="47" height="22" viewBox="0 0 47 22" fill="none" xmlns="http://www.w3.org/2000/svg">
<path d="M5.145 16.27C4.235 16.27 3.46 16.12 2.82 15.82C2.18 15.52 1.69 15.105 1.35 14.575C1.01 14.045 0.84 13.445 0.84 12.775H2.31C2.31 13.105 2.395 13.435 2.565 13.765C2.745 14.095 3.04 14.37 3.45 14.59C3.87 14.81 4.435 14.92 5.145 14.92C5.805 14.92 6.345 14.825 6.765 14.635C7.185 14.435 7.495 14.18 7.695 13.87C7.895 13.55 7.995 13.205 7.995 12.835C7.995 12.385 7.8 12.015 7.41 11.725C7.02 11.425 6.45 11.24 5.7 11.17L4.485 11.065C3.515 10.985 2.74 10.685 2.16 10.165C1.58 9.645 1.29 8.96 1.29 8.11C1.29 7.44 1.45 6.855 1.77 6.355C2.1 5.855 2.555 5.465 3.135 5.185C3.715 4.895 4.39 4.75 5.16 4.75C5.92 4.75 6.59 4.89 7.17 5.17C7.75 5.45 8.2 5.845 8.52 6.355C8.85 6.855 9.015 7.455 9.015 8.155H7.545C7.545 7.805 7.46 7.475 7.29 7.165C7.13 6.855 6.875 6.6 6.525 6.4C6.175 6.2 5.72 6.1 5.16 6.1C4.62 6.1 4.17 6.195 3.81 6.385C3.46 6.575 3.195 6.825 3.015 7.135C2.845 7.435 2.76 7.76 2.76 8.11C2.76 8.51 2.915 8.865 3.225 9.175C3.535 9.485 3.995 9.665 4.605 9.715L5.82 9.82C6.57 9.88 7.215 10.04 7.755 10.3C8.305 10.55 8.725 10.89 9.015 11.32C9.315 11.74 9.465 12.245 9.465 12.835C9.465 13.505 9.285 14.1 8.925 14.62C8.565 15.14 8.06 15.545 7.41 15.835C6.76 16.125 6.005 16.27 5.145 16.27ZM17.2418 16L14.2268 12.265H12.9068L16.5818 7.99H18.0968L14.7668 11.845L14.8718 11.08L18.9068 16H17.2418ZM11.7218 16V5.05H13.1618V16H11.7218ZM20.7104 16V7.99H22.1504V16H20.7104ZM19.4804 9.13V7.99H22.1504V9.13H19.4804ZM21.1154 6.7C20.7954 6.7 20.5554 6.615 20.3954 6.445C20.2454 6.275 20.1704 6.06 20.1704 5.8C20.1704 5.54 20.2454 5.325 20.3954 5.155C20.5554 4.985 20.7954 4.9 21.1154 4.9C21.4354 4.9 21.6704 4.985 21.8204 5.155C21.9804 5.325 22.0604 5.54 22.0604 5.8C22.0604 6.06 21.9804 6.275 21.8204 6.445C21.6704 6.615 21.4354 6.7 21.1154 6.7ZM24.9347 19V7.99H26.0747V11.455L25.8047 11.425C25.8547 10.565 26.0347 9.865 26.3447 9.325C26.6647 8.775 27.0797 8.37 27.5897 8.11C28.0997 7.85 28.6547 7.72 29.2547 7.72C29.8347 7.72 30.3597 7.83 30.8297 8.05C31.3097 8.27 31.7197 8.57 32.0597 8.95C32.3997 9.33 32.6597 9.77 32.8397 10.27C33.0197 10.77 33.1097 11.3 33.1097 11.86V12.13C33.1097 12.69 33.0147 13.22 32.8247 13.72C32.6347 14.22 32.3647 14.66 32.0147 15.04C31.6747 15.42 31.2647 15.72 30.7847 15.94C30.3147 16.16 29.7947 16.27 29.2247 16.27C28.6547 16.27 28.1097 16.145 27.5897 15.895C27.0697 15.645 26.6397 15.24 26.2997 14.68C25.9597 14.12 25.7647 13.385 25.7147 12.475L26.3747 13.675V19H24.9347ZM28.9997 15.01C29.5397 15.01 30.0097 14.885 30.4097 14.635C30.8097 14.375 31.1197 14.02 31.3397 13.57C31.5597 13.11 31.6697 12.585 31.6697 11.995C31.6697 11.395 31.5597 10.87 31.3397 10.42C31.1197 9.97 30.8097 9.62 30.4097 9.37C30.0097 9.11 29.5397 8.98 28.9997 8.98C28.5197 8.98 28.0747 9.09 27.6647 9.31C27.2547 9.52 26.9247 9.83 26.6747 10.24C26.4347 10.64 26.3147 11.125 26.3147 11.695V12.385C26.3147 12.935 26.4397 13.405 26.6897 13.795C26.9397 14.185 27.2697 14.485 27.6797 14.695C28.0897 14.905 28.5297 15.01 28.9997 15.01Z" fill="#6765C8"/>
<path fill-rule="evenodd" clip-rule="evenodd" d="M39.0926 7.18746L43.1657 11.2606C43.4157 11.5105 43.4157 11.9158 43.1657 12.1657L39.0926 16.2388C38.8426 16.4888 38.4374 16.4888 38.1875 16.2388C37.9375 15.9889 37.9375 15.5836 38.1875 15.3337L41.808 11.7131L38.1875 8.0926C37.9375 7.84265 37.9375 7.43741 38.1875 7.18746C38.4374 6.93751 38.8427 6.93751 39.0926 7.18746Z" fill="#6765C8"/>
<path fill-rule="evenodd" clip-rule="evenodd" d="M42.7391 7.18746L46.8122 11.2606C47.0621 11.5105 47.0621 11.9158 46.8122 12.1657L42.7391 16.2388C42.4891 16.4888 42.0839 16.4888 41.8339 16.2388C41.584 15.9889 41.584 15.5836 41.8339 15.3337L45.4545 11.7131L41.8339 8.0926C41.584 7.84265 41.584 7.43741 41.8339 7.18746C42.0839 6.93751 42.4891 6.93751 42.7391 7.18746Z" fill="#6765C8"/>
</svg>
