<svg width="24" height="24" viewBox="0 0 24 24" fill="none" xmlns="http://www.w3.org/2000/svg">
<path d="M24 12C24 18.6274 18.6274 24 12 24C5.37258 24 0 18.6274 0 12C0 5.37258 5.37258 0 12 0C18.6274 0 24 5.37258 24 12Z" fill="#6765C8"/>
<path fill-rule="evenodd" clip-rule="evenodd" d="M6.27816 14.109C6.55099 13.8362 6.99332 13.8362 7.26614 14.109C9.76664 16.6095 13.8208 16.6095 16.3213 14.109C16.5941 13.8362 17.0364 13.8362 17.3092 14.109C17.5821 14.3819 17.5821 14.8242 17.3092 15.097C14.2631 18.1432 9.32431 18.1432 6.27816 15.097C6.00534 14.8242 6.00534 14.3819 6.27816 14.109Z" fill="white"/>
<path d="M9.88188 8.38619C9.88188 9.4058 9.05533 10.2323 8.03573 10.2323C7.01613 10.2323 6.18958 9.4058 6.18958 8.38619C6.18958 7.36659 7.01613 6.54004 8.03573 6.54004C9.05533 6.54004 9.88188 7.36659 9.88188 8.38619Z" fill="white"/>
<path d="M17.6002 8.3999C17.6002 9.50447 16.7048 10.3999 15.6002 10.3999C14.4957 10.3999 13.6002 9.50447 13.6002 8.3999C13.6002 7.29533 14.4957 6.3999 15.6002 6.3999C16.7048 6.3999 17.6002 7.29533 17.6002 8.3999Z" fill="white"/>
</svg>
