<svg width="17" height="14" viewBox="0 0 17 14" fill="none" xmlns="http://www.w3.org/2000/svg">
<path d="M16.3506 7.74774V8.46134C16.3444 8.56152 16.2989 8.65521 16.224 8.72203C16.1491 8.78885 16.0508 8.82339 15.9506 8.81813H15.4066C15.0488 8.83804 14.695 8.73493 14.404 8.52595C14.1129 8.31697 13.9021 8.01469 13.8066 7.66933L12.5186 1.80693C12.5025 1.77866 12.4793 1.75514 12.4512 1.73878C12.423 1.72242 12.3911 1.7138 12.3586 1.7138C12.3261 1.7138 12.2941 1.72242 12.266 1.73878C12.2379 1.75514 12.2146 1.77866 12.1986 1.80693L10.0866 11.7909C9.98695 12.1659 9.76513 12.4969 9.45621 12.7317C9.1473 12.9664 8.76894 13.0914 8.38099 13.0869C7.99182 13.111 7.60558 13.0061 7.28196 12.7886C6.95834 12.5712 6.71536 12.2531 6.59059 11.8837L4.55859 4.65334C4.54832 4.61932 4.52702 4.5897 4.49804 4.56913C4.46908 4.54856 4.43408 4.53822 4.39859 4.53973H4.23859C4.20526 4.53942 4.17253 4.54858 4.14421 4.56614C4.11588 4.58371 4.09313 4.60895 4.07859 4.63893L2.88659 7.83893C2.76127 8.13609 2.54907 8.38844 2.27783 8.56289C2.00658 8.73734 1.68895 8.82576 1.36659 8.81653H0.750586C0.650606 8.8218 0.552574 8.78748 0.477711 8.721C0.402849 8.65452 0.357178 8.56124 0.350586 8.46134L0.350586 7.74774C0.356775 7.64755 0.402271 7.55386 0.477178 7.48704C0.552086 7.42022 0.650346 7.38568 0.750586 7.39093H1.37459L2.57459 4.19093C2.71221 3.8638 2.94553 3.58591 3.24392 3.39374C3.5423 3.20157 3.89182 3.10411 4.24659 3.11413H4.40659C4.78061 3.10305 5.14827 3.21266 5.45516 3.42677C5.76205 3.64087 5.99186 3.94808 6.11059 4.30293L8.14259 11.5557C8.15286 11.5897 8.17416 11.6194 8.20313 11.6399C8.2321 11.6605 8.26709 11.6709 8.30259 11.6693C8.43059 11.6693 8.49459 11.6197 8.51059 11.5477L10.6146 1.56693C10.7159 1.18833 10.9429 0.855419 11.2584 0.622831C11.5738 0.390243 11.959 0.271798 12.3506 0.286935C12.7422 0.271798 13.1274 0.390243 13.4428 0.622831C13.7583 0.855419 13.9853 1.18833 14.0866 1.56693L15.4066 7.39093H15.9506C16.0508 7.38568 16.1491 7.42022 16.224 7.48704C16.2989 7.55386 16.3444 7.64755 16.3506 7.74774Z" fill="#838383"/>
</svg>
