<svg width="27" height="27" viewBox="0 0 27 27" fill="none" xmlns="http://www.w3.org/2000/svg">
<rect width="27" height="27" rx="6" fill="#9E18F0"/>
<path d="M8.5 9.7501C8.2536 9.75074 8.00951 9.70252 7.78186 9.60822C7.55421 9.51392 7.34752 9.37542 7.17375 9.20072L6.20875 8.34197C6.08493 8.23157 6.01003 8.07651 6.00054 7.91089C5.99104 7.74527 6.04773 7.58267 6.15813 7.45885C6.26852 7.33502 6.42359 7.26013 6.5892 7.25063C6.75482 7.24114 6.91743 7.29782 7.04125 7.40822L8.03188 8.29197C8.08859 8.35566 8.15773 8.40706 8.23505 8.44303C8.31237 8.47899 8.39623 8.49875 8.48147 8.50109C8.56672 8.50343 8.65154 8.48831 8.73072 8.45664C8.80989 8.42498 8.88176 8.37745 8.94188 8.31697L11.1944 6.1726C11.3155 6.06476 11.4738 6.00823 11.6358 6.01494C11.7978 6.02165 11.9509 6.09107 12.0627 6.20854C12.1745 6.32602 12.2363 6.48234 12.2349 6.6445C12.2336 6.80666 12.1693 6.96196 12.0556 7.0776L9.8125 9.21135C9.63986 9.38298 9.43508 9.51891 9.20987 9.61135C8.98466 9.70379 8.74344 9.75094 8.5 9.7501V9.7501ZM21 8.5001C21 8.33434 20.9342 8.17536 20.8169 8.05815C20.6997 7.94094 20.5408 7.8751 20.375 7.8751H14.125C13.9592 7.8751 13.8003 7.94094 13.6831 8.05815C13.5658 8.17536 13.5 8.33434 13.5 8.5001C13.5 8.66586 13.5658 8.82483 13.6831 8.94204C13.8003 9.05925 13.9592 9.1251 14.125 9.1251H20.375C20.5408 9.1251 20.6997 9.05925 20.8169 8.94204C20.9342 8.82483 21 8.66586 21 8.5001ZM9.8125 14.2113L12.0556 12.0776C12.1182 12.0219 12.169 11.9541 12.2049 11.8783C12.2408 11.8026 12.261 11.7204 12.2645 11.6366C12.268 11.5529 12.2546 11.4693 12.2251 11.3908C12.1956 11.3124 12.1506 11.2406 12.0928 11.1799C12.035 11.1192 11.9656 11.0707 11.8887 11.0374C11.8118 11.004 11.729 10.9865 11.6451 10.9858C11.5613 10.9851 11.4782 11.0013 11.4008 11.0334C11.3233 11.0655 11.2531 11.1128 11.1944 11.1726L8.94438 13.317C8.8254 13.4307 8.66712 13.4942 8.5025 13.4942C8.33788 13.4942 8.17961 13.4307 8.06063 13.317L7.06688 12.3263C6.949 12.2125 6.79112 12.1495 6.62725 12.1509C6.46338 12.1523 6.30662 12.2181 6.19074 12.334C6.07486 12.4498 6.00913 12.6066 6.00771 12.7705C6.00628 12.9343 6.06928 13.0922 6.18313 13.2101L7.17375 14.2007C7.52355 14.5506 7.99745 14.748 8.49219 14.75C8.98693 14.752 9.4624 14.5584 9.815 14.2113H9.8125ZM21 13.5001C21 13.3343 20.9342 13.1754 20.8169 13.0582C20.6997 12.9409 20.5408 12.8751 20.375 12.8751H14.125C13.9592 12.8751 13.8003 12.9409 13.6831 13.0582C13.5658 13.1754 13.5 13.3343 13.5 13.5001C13.5 13.6659 13.5658 13.8248 13.6831 13.942C13.8003 14.0592 13.9592 14.1251 14.125 14.1251H20.375C20.5408 14.1251 20.6997 14.0592 20.8169 13.942C20.9342 13.8248 21 13.6659 21 13.5001ZM9.8125 19.2113L12.0531 17.0776C12.1157 17.0219 12.1665 16.9541 12.2024 16.8783C12.2383 16.8026 12.2585 16.7204 12.262 16.6366C12.2655 16.5529 12.2521 16.4693 12.2226 16.3908C12.1931 16.3124 12.1481 16.2406 12.0903 16.1799C12.0325 16.1192 11.9631 16.0707 11.8862 16.0374C11.8093 16.004 11.7265 15.9865 11.6426 15.9858C11.5588 15.9851 11.4757 16.0013 11.3983 16.0334C11.3208 16.0655 11.2506 16.1128 11.1919 16.1726L8.94188 18.317C8.88176 18.3774 8.80989 18.425 8.73072 18.4566C8.65154 18.4883 8.56672 18.5034 8.48147 18.5011C8.39623 18.4988 8.31237 18.479 8.23505 18.443C8.15773 18.4071 8.08859 18.3557 8.03188 18.292L7.04125 17.4082C6.91743 17.2978 6.75482 17.2411 6.5892 17.2506C6.42359 17.2601 6.26852 17.335 6.15813 17.4588C6.04773 17.5827 5.99104 17.7453 6.00054 17.9109C6.01003 18.0765 6.08493 18.2316 6.20875 18.342L7.17375 19.2007C7.52355 19.5506 7.99745 19.748 8.49219 19.75C8.98693 19.752 9.4624 19.5584 9.815 19.2113H9.8125ZM21 18.5001C21 18.3343 20.9342 18.1754 20.8169 18.0582C20.6997 17.9409 20.5408 17.8751 20.375 17.8751H14.125C13.9592 17.8751 13.8003 17.9409 13.6831 18.0582C13.5658 18.1754 13.5 18.3343 13.5 18.5001C13.5 18.6659 13.5658 18.8248 13.6831 18.942C13.8003 19.0592 13.9592 19.1251 14.125 19.1251H20.375C20.5408 19.1251 20.6997 19.0592 20.8169 18.942C20.9342 18.8248 21 18.6659 21 18.5001Z" fill="white"/>
</svg>
