<svg width="27" height="27" viewBox="0 0 27 27" fill="none" xmlns="http://www.w3.org/2000/svg">
<rect width="27" height="27" rx="6" fill="#3979F4"/>
<path d="M13.5 6C12.0166 6 10.5666 6.43987 9.33323 7.26398C8.09986 8.08809 7.13856 9.25943 6.57091 10.6299C6.00325 12.0003 5.85472 13.5083 6.14411 14.9632C6.4335 16.418 7.14781 17.7544 8.1967 18.8033C9.2456 19.8522 10.582 20.5665 12.0368 20.8559C13.4917 21.1453 14.9997 20.9967 16.3701 20.4291C17.7406 19.8614 18.9119 18.9001 19.736 17.6668C20.5601 16.4334 21 14.9834 21 13.5C21 11.5109 20.2098 9.60322 18.8033 8.1967C17.3968 6.79018 15.4891 6 13.5 6V6ZM13.5 19.75C12.2639 19.75 11.0555 19.3834 10.0277 18.6967C8.99988 18.0099 8.1988 17.0338 7.72576 15.8918C7.25271 14.7497 7.12894 13.4931 7.3701 12.2807C7.61125 11.0683 8.20651 9.95466 9.08059 9.08058C9.95466 8.2065 11.0683 7.61125 12.2807 7.37009C13.4931 7.12893 14.7497 7.2527 15.8918 7.72575C17.0338 8.1988 18.0099 8.99988 18.6967 10.0277C19.3834 11.0555 19.75 12.2639 19.75 13.5C19.75 15.1576 19.0915 16.7473 17.9194 17.9194C16.7473 19.0915 15.1576 19.75 13.5 19.75V19.75Z" fill="white"/>
<path d="M13.9488 9.16512C13.5882 9.09934 13.2177 9.11362 12.8633 9.20695C12.5089 9.30029 12.1794 9.4704 11.898 9.70523C11.6167 9.94006 11.3904 10.2339 11.2352 10.5659C11.08 10.8978 10.9997 11.2599 11 11.6264C11 11.7921 11.0658 11.9511 11.1831 12.0683C11.3003 12.1855 11.4592 12.2514 11.625 12.2514C11.7908 12.2514 11.9497 12.1855 12.0669 12.0683C12.1842 11.9511 12.25 11.7921 12.25 11.6264C12.2499 11.4425 12.2904 11.2608 12.3686 11.0944C12.4468 10.9279 12.5607 10.7808 12.7023 10.6634C12.8439 10.546 13.0097 10.4614 13.1877 10.4154C13.3658 10.3695 13.5518 10.3634 13.7325 10.3976C13.9798 10.4458 14.2071 10.5667 14.3853 10.7448C14.5635 10.923 14.6844 11.1503 14.7325 11.3976C14.7818 11.6567 14.7479 11.9248 14.6357 12.1634C14.5234 12.4021 14.3385 12.5991 14.1075 12.7264C13.7257 12.9474 13.4101 13.2666 13.1934 13.6508C12.9767 14.0351 12.8667 14.4703 12.875 14.9114V15.3764C12.875 15.5421 12.9408 15.7011 13.0581 15.8183C13.1753 15.9355 13.3342 16.0014 13.5 16.0014C13.6658 16.0014 13.8247 15.9355 13.9419 15.8183C14.0592 15.7011 14.125 15.5421 14.125 15.3764V14.9114C14.1172 14.6939 14.1668 14.4782 14.2688 14.2859C14.3708 14.0937 14.5217 13.9317 14.7063 13.8164C15.1591 13.5677 15.5237 13.1849 15.7501 12.7205C15.9765 12.2561 16.0534 11.7331 15.9704 11.2232C15.8873 10.7133 15.6484 10.2417 15.2864 9.87313C14.9244 9.50459 14.4571 9.25725 13.9488 9.16512V9.16512Z" fill="white"/>
<path d="M14.127 17.875C14.127 17.5298 13.8471 17.25 13.502 17.25C13.1568 17.25 12.877 17.5298 12.877 17.875C12.877 18.2202 13.1568 18.5 13.502 18.5C13.8471 18.5 14.127 18.2202 14.127 17.875Z" fill="white"/>
</svg>
