<svg width="40" height="40" viewBox="0 0 40 40" fill="none" xmlns="http://www.w3.org/2000/svg">
<path d="M40 20C40 8.95431 31.0457 0 20 0C8.95431 0 0 8.95431 0 20C0 31.0457 8.95431 40 20 40C31.0457 40 40 31.0457 40 20Z" fill="#6765C8"/>
<path d="M26.591 11.8774V23.262C26.591 24.0971 26.2593 24.8979 25.6688 25.4884C25.0783 26.0789 24.2774 26.4106 23.4423 26.4106C22.6072 26.4106 21.8063 26.0789 21.2158 25.4884C20.6253 24.8979 20.2936 24.0971 20.2936 23.262V18.5583C19.837 20.0858 18.8379 21.3939 17.4844 22.2363V23.467C17.4844 25.0447 18.1111 26.5578 19.2267 27.6734C20.3423 28.789 21.8554 29.4158 23.4331 29.4158C25.0108 29.4158 26.5239 28.789 27.6395 27.6734C28.7551 26.5578 29.3818 25.0447 29.3818 23.467V11.8774H26.591Z" fill="white"/>
<path d="M13.4795 9.64252C14.8201 9.70676 16.1123 10.163 17.1961 10.9547C18.2798 11.7465 19.1073 12.8388 19.576 14.0964C20.0447 15.354 20.1341 16.7215 19.8329 18.0294C19.5318 19.3373 18.8534 20.528 17.882 21.454C16.9105 22.38 15.6886 23.0005 14.3678 23.2386C13.047 23.4768 11.6853 23.322 10.4516 22.7936C9.21792 22.2651 8.16647 21.3862 7.42758 20.2658C6.68869 19.1454 6.29485 17.8328 6.29492 16.4907C6.29511 15.5628 6.48364 14.6445 6.84909 13.7915C7.21454 12.9386 7.74931 12.1687 8.42101 11.5284C9.09272 10.8882 9.88737 10.3909 10.7569 10.0667C11.6264 9.74253 12.5526 9.59824 13.4795 9.64252ZM13.4795 20.7102C14.3138 20.71 15.1292 20.4624 15.8228 19.9988C16.5164 19.5352 17.0569 18.8763 17.3761 18.1056C17.6952 17.3348 17.7787 16.4867 17.6159 15.6685C17.4531 14.8503 17.0513 14.0987 16.4614 13.5088C15.8715 12.9189 15.1199 12.5172 14.3017 12.3544C13.4835 12.1916 12.6354 12.275 11.8646 12.5941C11.0939 12.9133 10.435 13.4539 9.97143 14.1475C9.50782 14.841 9.26024 15.6565 9.26004 16.4907C9.25216 17.0469 9.35595 17.5989 9.56525 18.1142C9.77454 18.6295 10.0851 19.0976 10.4786 19.4908C10.872 19.8839 11.3403 20.1942 11.8558 20.4031C12.3712 20.612 12.9234 20.7154 13.4795 20.7071V20.7102Z" fill="white"/>
<path d="M24.4698 15.9237L23.0195 14.4734L28.0452 9.44775L33.0626 14.4653L31.6123 15.9155L28.0452 12.3483L24.4698 15.9237Z" fill="white"/>
<path d="M13.4815 9.64209C14.8221 9.70633 16.1143 10.1626 17.198 10.9543C18.2817 11.746 19.1092 12.8384 19.5779 14.096C20.0467 15.3536 20.136 16.7211 19.8349 18.029C19.5337 19.3369 18.8554 20.5276 17.8839 21.4536C16.9124 22.3796 15.6905 23.0001 14.3697 23.2382C13.0489 23.4763 11.6872 23.3216 10.4536 22.7931C9.21987 22.2647 8.16842 21.3857 7.42953 20.2653C6.69064 19.1449 6.29681 17.8324 6.29688 16.4903C6.29707 15.5623 6.48559 14.6441 6.85104 13.7911C7.21649 12.9381 7.75126 12.1682 8.42296 11.528C9.09467 10.8877 9.88933 10.3904 10.7588 10.0663C11.6283 9.74211 12.5546 9.59781 13.4815 9.64209ZM13.4815 20.7098C14.3157 20.7096 15.1312 20.462 15.8247 19.9984C16.5183 19.5348 17.0589 18.8759 17.378 18.1051C17.6972 17.3343 17.7806 16.4863 17.6178 15.6681C17.455 14.8499 17.0533 14.0983 16.4634 13.5084C15.8735 12.9185 15.1219 12.5167 14.3037 12.3539C13.4855 12.1911 12.6374 12.2745 11.8666 12.5937C11.0958 12.9128 10.437 13.4535 9.97338 14.147C9.50977 14.8406 9.2622 15.6561 9.26199 16.4903C9.25411 17.0464 9.3579 17.5984 9.5672 18.1138C9.7765 18.6291 10.0871 19.0972 10.4805 19.4903C10.8739 19.8835 11.3422 20.1938 11.8577 20.4027C12.3732 20.6116 12.9254 20.715 13.4815 20.7067V20.7098Z" fill="white"/>
</svg>
