<svg width="24" height="24" viewBox="0 0 24 24" fill="none" xmlns="http://www.w3.org/2000/svg">
<path fill-rule="evenodd" clip-rule="evenodd" d="M2.63584 2.63695L2 3.2739L3.58825 4.86257L5.17655 6.45129L5.01969 6.79443C4.67829 7.54124 4.47456 8.32342 4.399 9.17742C4.37382 9.46181 4.35591 11.3143 4.3557 13.6539L4.35531 17.6453L4.14306 17.9365C3.91033 18.2557 3.87039 18.4511 4.00004 18.6362C4.15927 18.8635 3.83426 18.8534 10.9655 18.8534H17.5785L18.7569 20.0312L19.9353 21.209L20.5825 20.5618L21.2297 19.9146L12.2725 10.9573C7.34605 6.03076 3.30552 2 3.29351 2C3.28154 2 2.98561 2.28664 2.63584 2.63695ZM10.5388 2.61589C10.0162 2.7008 9.43719 2.86054 8.92755 3.06041C8.49874 3.2286 7.78869 3.60133 7.66741 3.72185C7.61201 3.77695 7.68087 3.86062 8.24934 4.4291L8.8941 5.07385L9.24611 4.9004C9.98176 4.53786 10.7502 4.36376 11.6146 4.36376C13.1033 4.36376 14.4015 4.90507 15.4576 5.96615C16.2229 6.73512 16.6884 7.59257 16.9456 8.7074C17.0084 8.98002 17.0214 9.32774 17.036 11.1272L17.053 13.2285L17.9312 14.1094C18.4142 14.5939 18.8239 14.9903 18.8416 14.9903C18.8914 14.9903 18.8799 9.73227 18.8289 9.17437C18.625 6.94276 17.4697 4.99006 15.6248 3.75874C14.8414 3.2359 14.0085 2.88856 13.0322 2.67762C12.4787 2.55803 11.1045 2.52398 10.5388 2.61589ZM11.1476 12.4219L15.7535 17.028H10.9655H6.17748L6.19195 13.0269C6.20494 9.4436 6.21394 8.99475 6.27834 8.72862C6.34325 8.46058 6.52609 7.81591 6.53721 7.81591C6.53972 7.81591 8.61438 9.88862 11.1476 12.4219ZM9.36464 19.9058C9.36464 20.3596 9.63633 20.9505 10.0226 21.3368C10.9069 22.2211 12.3223 22.2211 13.2065 21.3368C13.5928 20.9505 13.8645 20.3596 13.8645 19.9058V19.7449H11.6146H9.36464V19.9058Z" fill="#161C2A"/>
</svg>
