<svg width="24" height="24" viewBox="0 0 24 24" fill="none" xmlns="http://www.w3.org/2000/svg">
<path d="M9.5 12C10.4889 12 11.4556 11.7068 12.2779 11.1574C13.1001 10.6079 13.741 9.82705 14.1194 8.91342C14.4978 7.99979 14.5969 6.99446 14.4039 6.02455C14.211 5.05465 13.7348 4.16373 13.0355 3.46447C12.3363 2.76521 11.4454 2.289 10.4755 2.09608C9.50555 1.90315 8.50021 2.00217 7.58658 2.3806C6.67295 2.75904 5.89206 3.39991 5.34265 4.22215C4.79325 5.0444 4.5 6.0111 4.5 7C4.50132 8.32568 5.02853 9.59668 5.96593 10.5341C6.90332 11.4715 8.17432 11.9987 9.5 12ZM9.5 3.66667C10.1593 3.66667 10.8037 3.86217 11.3519 4.22844C11.9001 4.59471 12.3273 5.1153 12.5796 5.72439C12.8319 6.33348 12.8979 7.0037 12.7693 7.6503C12.6407 8.29691 12.3232 8.89085 11.857 9.35703C11.3908 9.8232 10.7969 10.1407 10.1503 10.2693C9.5037 10.3979 8.83348 10.3319 8.22439 10.0796C7.6153 9.82731 7.09471 9.40007 6.72843 8.8519C6.36216 8.30374 6.16667 7.65927 6.16667 7C6.16667 6.11595 6.51786 5.2681 7.14298 4.64298C7.7681 4.01786 8.61595 3.66667 9.5 3.66667V3.66667ZM17 21.1667C17 21.3877 16.9122 21.5996 16.7559 21.7559C16.5996 21.9122 16.3877 22 16.1667 22C15.9457 22 15.7337 21.9122 15.5774 21.7559C15.4211 21.5996 15.3333 21.3877 15.3333 21.1667C15.3333 19.6196 14.7188 18.1358 13.6248 17.0419C12.5308 15.9479 11.0471 15.3333 9.5 15.3333C7.9529 15.3333 6.46917 15.9479 5.37521 17.0419C4.28125 18.1358 3.66667 19.6196 3.66667 21.1667C3.66667 21.3877 3.57887 21.5996 3.42259 21.7559C3.26631 21.9122 3.05435 22 2.83333 22C2.61232 22 2.40036 21.9122 2.24408 21.7559C2.0878 21.5996 2 21.3877 2 21.1667C2 19.1775 2.79018 17.2699 4.1967 15.8634C5.60322 14.4568 7.51088 13.6667 9.5 13.6667C11.4891 13.6667 13.3968 14.4568 14.8033 15.8634C16.2098 17.2699 17 19.1775 17 21.1667V21.1667ZM21.7558 13.9108C21.8354 13.9877 21.8989 14.0797 21.9426 14.1813C21.9863 14.283 22.0092 14.3924 22.0102 14.503C22.0112 14.6137 21.9901 14.7234 21.9482 14.8258C21.9063 14.9282 21.8444 15.0213 21.7662 15.0995C21.6879 15.1777 21.5949 15.2396 21.4925 15.2815C21.39 15.3234 21.2803 15.3445 21.1697 15.3435C21.059 15.3426 20.9497 15.3196 20.848 15.2759C20.7463 15.2322 20.6544 15.1688 20.5775 15.0892L19.0833 13.595L17.5892 15.0892C17.432 15.241 17.2215 15.325 17.003 15.3231C16.7845 15.3212 16.5755 15.2335 16.421 15.079C16.2665 14.9245 16.1788 14.7155 16.1769 14.497C16.175 14.2785 16.259 14.068 16.4108 13.9108L17.905 12.4167L16.4108 10.9225C16.259 10.7653 16.175 10.5548 16.1769 10.3363C16.1788 10.1178 16.2665 9.90883 16.421 9.75432C16.5755 9.59981 16.7845 9.51217 17.003 9.51028C17.2215 9.50838 17.432 9.59237 17.5892 9.74417L19.0833 11.2383L20.5775 9.74417C20.7347 9.59237 20.9452 9.50838 21.1637 9.51028C21.3822 9.51217 21.5912 9.59981 21.7457 9.75432C21.9002 9.90883 21.9878 10.1178 21.9897 10.3363C21.9916 10.5548 21.9076 10.7653 21.7558 10.9225L20.2617 12.4167L21.7558 13.9108Z" fill="#161C2A"/>
</svg>
