<svg width="16" height="16" viewBox="0 0 16 16" fill="none" xmlns="http://www.w3.org/2000/svg">
<path d="M11.3333 15.9999C10.4103 15.9999 9.50809 15.7262 8.74066 15.2135C7.97323 14.7007 7.37509 13.9719 7.02188 13.1191C6.66867 12.2664 6.57626 11.3281 6.75632 10.4229C6.93638 9.51761 7.38084 8.68609 8.03349 8.03344C8.68613 7.3808 9.51765 6.93634 10.4229 6.75628C11.3281 6.57621 12.2665 6.66863 13.1192 7.02184C13.9719 7.37505 14.7007 7.97318 15.2135 8.74061C15.7263 9.50804 16 10.4103 16 11.3333C15.9986 12.5705 15.5065 13.7567 14.6316 14.6315C13.7567 15.5064 12.5706 15.9985 11.3333 15.9999ZM11.3333 7.99994C10.674 7.99994 10.0296 8.19544 9.48142 8.56171C8.93325 8.92798 8.50601 9.44858 8.25372 10.0577C8.00143 10.6667 7.93542 11.337 8.06403 11.9836C8.19265 12.6302 8.51012 13.2241 8.9763 13.6903C9.44247 14.1565 10.0364 14.4739 10.683 14.6026C11.3296 14.7312 11.9998 14.6652 12.6089 14.4129C13.218 14.1606 13.7386 13.7333 14.1049 13.1852C14.4712 12.637 14.6667 11.9925 14.6667 11.3333C14.6656 10.4495 14.3141 9.60231 13.6892 8.97742C13.0643 8.35253 12.217 8.001 11.3333 7.99994ZM12.4713 12.4713C12.5963 12.3463 12.6665 12.1767 12.6665 11.9999C12.6665 11.8232 12.5963 11.6536 12.4713 11.5286L12 11.0573V9.99994C12 9.82313 11.9297 9.65356 11.8047 9.52854C11.6797 9.40351 11.5101 9.33327 11.3333 9.33327C11.1565 9.33327 10.9869 9.40351 10.8619 9.52854C10.7369 9.65356 10.6667 9.82313 10.6667 9.99994V11.3333C10.6667 11.5101 10.737 11.6796 10.862 11.8046L11.5287 12.4713C11.6537 12.5963 11.8232 12.6665 12 12.6665C12.1768 12.6665 12.3463 12.5963 12.4713 12.4713ZM1.33332 15.3333C1.335 14.1083 1.7431 12.9186 2.49365 11.9505C3.2442 10.9824 4.29476 10.2908 5.48065 9.98394C5.5661 9.96459 5.6469 9.9286 5.71844 9.87803C5.78997 9.82746 5.85085 9.76329 5.89759 9.68919C5.94433 9.61508 5.97601 9.5325 5.99084 9.44616C6.00566 9.35981 6.00333 9.27139 5.98398 9.18594C5.96464 9.10049 5.92865 9.0197 5.87807 8.94816C5.8275 8.87662 5.76333 8.81574 5.68923 8.769C5.61513 8.72226 5.53255 8.69058 5.4462 8.67575C5.35985 8.66093 5.27143 8.66326 5.18599 8.68261C3.70001 9.04723 2.38016 9.90174 1.4393 11.1083C0.498438 12.3149 -0.00859049 13.8032 -1.50545e-05 15.3333C-1.50545e-05 15.5101 0.0702228 15.6797 0.195247 15.8047C0.320271 15.9297 0.489841 15.9999 0.666652 15.9999C0.843463 15.9999 1.01303 15.9297 1.13806 15.8047C1.26308 15.6797 1.33332 15.5101 1.33332 15.3333ZM5.64932 7.33327C4.92412 7.33327 4.21521 7.11823 3.61223 6.71533C3.00925 6.31243 2.53928 5.73978 2.26176 5.06978C1.98424 4.39978 1.91163 3.66254 2.05311 2.95128C2.19458 2.24001 2.5438 1.58668 3.05659 1.07388C3.56939 0.56109 4.22272 0.211874 4.93399 0.0703946C5.64525 -0.0710846 6.3825 0.00152769 7.05249 0.279049C7.72249 0.55657 8.29514 1.02654 8.69804 1.62952C9.10094 2.2325 9.31598 2.94141 9.31598 3.66661C9.31493 4.63874 8.92828 5.57076 8.24087 6.25816C7.55347 6.94557 6.62145 7.33222 5.64932 7.33327ZM5.64932 1.33327C5.18783 1.33327 4.7367 1.47012 4.35299 1.72651C3.96927 1.9829 3.6702 2.34732 3.4936 2.77368C3.317 3.20004 3.27079 3.6692 3.36082 4.12182C3.45085 4.57444 3.67308 4.9902 3.9994 5.31652C4.32573 5.64285 4.74149 5.86507 5.19411 5.95511C5.64673 6.04514 6.11589 5.99893 6.54225 5.82233C6.96861 5.64572 7.33302 5.34665 7.58941 4.96294C7.8458 4.57922 7.98265 4.1281 7.98265 3.66661C7.98265 3.04777 7.73682 2.45428 7.29923 2.01669C6.86165 1.57911 6.26816 1.33327 5.64932 1.33327Z" fill="#BCBCBC"/>
</svg>
