<svg width="47" height="15" viewBox="0 0 47 15" fill="none" xmlns="http://www.w3.org/2000/svg">
<path d="M20.0384 14.7464H16.2664L18.6239 0.259389H22.396L20.0384 14.7464ZM13.0907 0.259389L9.49801 10.2228L9.07135 8.07622L7.8035 1.56482C7.72793 1.16039 7.50081 0.800071 7.16853 0.557452C6.83625 0.314832 6.42388 0.20822 6.01565 0.259389H0.0703018L0 0.503021C1.39174 0.851488 2.72217 1.41023 3.94538 2.15996L7.21805 14.7464H11.1513L17.1536 0.259389H13.0907ZM42.7605 14.7464H46.2246L43.2041 0.259389H40.1738C39.8066 0.231144 39.4399 0.320444 39.1268 0.514374C38.8137 0.708303 38.5704 0.996807 38.432 1.33816L32.8079 14.7464H36.7387L37.5254 12.5961H42.3193L42.7605 14.7464ZM38.6102 9.62044L40.592 4.19871L41.7059 9.62044H38.6102ZM33.1 3.74418L33.6382 0.632716C32.5486 0.242614 31.4037 0.0290193 30.2467 0C28.3753 0 23.9305 0.816955 23.9305 4.79628C23.9305 8.54045 29.1425 8.58652 29.1425 10.5525C29.1425 12.5186 24.4626 12.1646 22.9184 10.9259L22.3632 14.1816C23.711 14.7448 25.1608 15.0229 26.6213 14.9985C29.1958 14.9985 33.0782 13.6652 33.0782 10.0374C33.0782 6.26898 27.8141 5.91626 27.8141 4.28114C27.8141 2.64601 31.4879 2.85571 33.1 3.74539V3.74418Z" fill="#04CAFF"/>
<path d="M9.07378 8.07787L7.8035 1.56162C7.72793 1.1572 7.50081 0.796875 7.16853 0.554255C6.83625 0.311636 6.42388 0.205023 6.01565 0.256193H0.0703018L0 0.498612C2.04677 1.02012 3.95634 1.97863 5.59748 3.30826C7.15809 4.56232 8.35773 6.20827 9.07378 8.07787Z" fill="#FFEE00"/>
</svg>
