<svg width="55" height="22" viewBox="0 0 55 22" fill="none" xmlns="http://www.w3.org/2000/svg">
<path d="M3.18219 16L0.578188 5.78H2.63619L4.75019 14.67L4.20419 14.348H5.60419L4.98819 14.67L6.65419 6.172H8.36219L6.29019 16H3.18219ZM9.28619 16L7.03219 6.172H8.81019L10.7282 14.67L10.1262 14.348H11.4982L10.9662 14.67L12.8282 5.78H14.7742L12.4502 16H9.28619ZM15.5455 16V8.398H17.0855V11.618H17.0435C17.0435 10.526 17.2768 9.7 17.7435 9.14C18.2101 8.58 18.8961 8.3 19.8015 8.3H20.0815V9.994H19.5495C18.8961 9.994 18.3875 10.1713 18.0235 10.526C17.6688 10.8713 17.4915 11.3753 17.4915 12.038V16H15.5455ZM21.2473 16V8.398H23.1933V16H21.2473ZM20.1833 9.854V8.398H23.1933V9.854H20.1833ZM21.9613 7.488C21.5787 7.488 21.294 7.39 21.1073 7.194C20.93 6.98867 20.8413 6.73667 20.8413 6.438C20.8413 6.12067 20.93 5.864 21.1073 5.668C21.294 5.472 21.5787 5.374 21.9613 5.374C22.344 5.374 22.624 5.472 22.8013 5.668C22.9787 5.864 23.0673 6.12067 23.0673 6.438C23.0673 6.73667 22.9787 6.98867 22.8013 7.194C22.624 7.39 22.344 7.488 21.9613 7.488ZM28.2401 16.098C27.5401 16.098 26.9614 16.0093 26.5041 15.832C26.0561 15.6453 25.7201 15.3373 25.4961 14.908C25.2721 14.4693 25.1601 13.8813 25.1601 13.144L25.1741 6.256H26.9941L26.9801 13.27C26.9801 13.6433 27.0781 13.9327 27.2741 14.138C27.4794 14.334 27.7687 14.432 28.1421 14.432H29.3321V16.098H28.2401ZM23.9561 9.826V8.398H29.3321V9.826H23.9561ZM33.8264 16.266C33.173 16.266 32.599 16.154 32.1044 15.93C31.619 15.706 31.213 15.4073 30.8864 15.034C30.569 14.6513 30.3264 14.2267 30.1584 13.76C29.9997 13.2933 29.9204 12.8173 29.9204 12.332V12.066C29.9204 11.562 29.9997 11.0767 30.1584 10.61C30.3264 10.134 30.569 9.714 30.8864 9.35C31.213 8.97667 31.6144 8.68267 32.0904 8.468C32.5664 8.244 33.117 8.132 33.7424 8.132C34.5637 8.132 35.2497 8.314 35.8004 8.678C36.3604 9.03267 36.7804 9.504 37.0604 10.092C37.3404 10.6707 37.4804 11.296 37.4804 11.968V12.668H30.7464V11.478H36.2624L35.6604 12.066C35.6604 11.5807 35.5904 11.1653 35.4504 10.82C35.3104 10.4747 35.0957 10.2087 34.8064 10.022C34.5264 9.83533 34.1717 9.742 33.7424 9.742C33.313 9.742 32.949 9.84 32.6504 10.036C32.3517 10.232 32.123 10.5167 31.9644 10.89C31.815 11.254 31.7404 11.6927 31.7404 12.206C31.7404 12.682 31.815 13.1067 31.9644 13.48C32.1137 13.844 32.3424 14.1333 32.6504 14.348C32.9584 14.5533 33.3504 14.656 33.8264 14.656C34.3024 14.656 34.6897 14.5627 34.9884 14.376C35.287 14.18 35.4784 13.942 35.5624 13.662H37.3544C37.2424 14.1847 37.0277 14.642 36.7104 15.034C36.393 15.426 35.987 15.7293 35.4924 15.944C35.007 16.1587 34.4517 16.266 33.8264 16.266Z" fill="#6765C8"/>
<path d="M43.6666 14.3332L50.3333 7.6665" stroke="#6765C8" stroke-width="2" stroke-linecap="round" stroke-linejoin="round"/>
<path d="M43.6666 7.6665H50.3333V14.3332" stroke="#6765C8" stroke-width="2" stroke-linecap="round" stroke-linejoin="round"/>
</svg>
